<?xml version="1.0" encoding="utf-8"?>
<!-- Generator: Adobe Illustrator 27.7.0, SVG Export Plug-In . SVG Version: 6.00 Build 0)  -->
<svg version="1.1" id="Layer_1" xmlns="http://www.w3.org/2000/svg" xmlns:xlink="http://www.w3.org/1999/xlink" x="0px" y="0px"
	 viewBox="0 0 300 380" style="enable-background:new 0 0 300 380;" xml:space="preserve">
<style type="text/css">
	.st0{clip-path:url(#SVGID_00000181766239380184960550000011390699551580497815_);}
	.st1{opacity:0.2;}
	.st2{fill:#364268;}
	.st3{fill:#FABCA6;}
	.st4{fill:#F69583;}
	.st5{fill:#FFFFFF;}
	.st6{fill:#DAD8D3;}
	.st7{fill:#2F2E30;}
	.st8{fill:#1D1C1D;}
	.st9{fill:#2D2421;}
	.st10{fill:#F79B89;}
	.st11{fill:#F9B29A;}
	.st12{fill:#F26A5B;}
	.st13{fill:#30180C;}
	.st14{fill:#414042;}
	.st15{fill:#231916;}
	.st16{fill:#E50027;}
	.st17{fill:#004CA0;}
	.st18{opacity:0.5;}
	.st19{clip-path:url(#SVGID_00000024706792784890541910000004201010600966384788_);fill:#FFFFFF;}
	.st20{clip-path:url(#SVGID_00000072242079221739742350000012187820198719991948_);fill:#FFFFFF;}
	.st21{clip-path:url(#SVGID_00000020374474506626753230000009562440087313479053_);fill:#FEFEFE;}
	.st22{clip-path:url(#SVGID_00000110439487800342787650000017864286063341335704_);fill:#FDFDFD;}
	.st23{clip-path:url(#SVGID_00000063600386044934939620000003237872359710634418_);fill:#FCFCFC;}
	.st24{clip-path:url(#SVGID_00000096747097347798055860000015847361163842101411_);fill:#FBFBFB;}
	.st25{clip-path:url(#SVGID_00000043458420803571964440000004312337171943781305_);fill:#FAFAFA;}
	.st26{clip-path:url(#SVGID_00000111186385972961892540000010085892001140180124_);fill:#F9F9F9;}
	.st27{clip-path:url(#SVGID_00000050621084859419183090000013899979265375533725_);fill:#F8F8F8;}
	.st28{clip-path:url(#SVGID_00000116222398008438151310000001430037402834091700_);fill:#F7F7F7;}
	.st29{clip-path:url(#SVGID_00000081645118155319175060000011139530893146975625_);fill:#F6F6F6;}
	.st30{clip-path:url(#SVGID_00000169560169555210416250000017305163077930156955_);fill:#F5F5F5;}
	.st31{clip-path:url(#SVGID_00000013904852105458384710000001349315234202349997_);fill:#F4F4F4;}
	.st32{clip-path:url(#SVGID_00000081632820943750057570000014985508091522630325_);fill:#F3F3F3;}
	.st33{clip-path:url(#SVGID_00000062170148258677980270000003750353139817629604_);fill:#F2F2F2;}
	.st34{clip-path:url(#SVGID_00000090995612114831655190000003370270973121503376_);fill:#F1F1F1;}
	.st35{clip-path:url(#SVGID_00000082355962145972110970000000151807390796872629_);fill:#F0F0F0;}
	.st36{clip-path:url(#SVGID_00000152255640201261665140000017877385216475244698_);fill:#EFEFEF;}
	.st37{clip-path:url(#SVGID_00000152221961385856131070000014683981229924407735_);fill:#EEEEEE;}
	.st38{clip-path:url(#SVGID_00000075143635090417689910000016758385960049790902_);fill:#EDEDED;}
	.st39{clip-path:url(#SVGID_00000040555767958979600910000011690312189190748601_);fill:#ECECEC;}
	.st40{clip-path:url(#SVGID_00000020365918186774405400000003147294248122599084_);fill:#EBEBEB;}
	.st41{clip-path:url(#SVGID_00000000200937174800479840000008984790043508360605_);fill:#EAEAEA;}
	.st42{clip-path:url(#SVGID_00000013177411633313723480000003089223398467445649_);fill:#E9E9E9;}
	.st43{clip-path:url(#SVGID_00000119807681456289261630000015108284983325904523_);fill:#E8E8E8;}
	.st44{clip-path:url(#SVGID_00000133521663652244583980000014819783911346792578_);fill:#E7E7E7;}
	.st45{clip-path:url(#SVGID_00000104695869024036164810000004458869188374152599_);fill:#E6E6E6;}
	.st46{clip-path:url(#SVGID_00000009570515965343353290000010060194267248494015_);fill:#E5E5E5;}
	.st47{clip-path:url(#SVGID_00000054261374013772705640000015114494490119924865_);fill:#E4E4E4;}
	.st48{clip-path:url(#SVGID_00000132060547196992310870000002925956577212969150_);fill:#E3E3E3;}
	.st49{clip-path:url(#SVGID_00000098900933270177981400000014504193684695682744_);fill:#E2E2E2;}
	.st50{clip-path:url(#SVGID_00000027596761807005030170000005041109160280816024_);fill:#E1E1E1;}
	.st51{clip-path:url(#SVGID_00000169556910445058108120000016206793671754900158_);fill:#E0E0E0;}
	.st52{clip-path:url(#SVGID_00000093891717974844021980000016082780004845462681_);fill:#DFDFDF;}
	.st53{clip-path:url(#SVGID_00000060740606654320942890000004911553427244516739_);fill:#DEDEDE;}
	.st54{clip-path:url(#SVGID_00000114787671891745141430000005631703013741541268_);fill:#DDDDDD;}
	.st55{clip-path:url(#SVGID_00000021807567582531736750000013303248863102756275_);fill:#DCDCDC;}
	.st56{clip-path:url(#SVGID_00000090284949350856882890000005324828456937409928_);fill:#DADBDB;}
	.st57{clip-path:url(#SVGID_00000101077765127352618650000007291435839620147134_);fill:#D9DADA;}
	.st58{clip-path:url(#SVGID_00000036228755991262947210000017255891776708879242_);fill:#D8D9D9;}
	.st59{clip-path:url(#SVGID_00000058569142858845260000000004272333566382382725_);fill:#D7D8D8;}
	.st60{clip-path:url(#SVGID_00000013908374806536539840000008386956986471428795_);fill:#D6D7D7;}
	.st61{clip-path:url(#SVGID_00000091003809864351790110000016835682069385203894_);fill:#D5D6D6;}
	.st62{clip-path:url(#SVGID_00000070809278620486633250000006228705360478668417_);fill:#D4D5D5;}
	.st63{clip-path:url(#SVGID_00000002360107830855515850000006044397008704857230_);fill:#D3D4D4;}
	.st64{clip-path:url(#SVGID_00000152954837073725700590000007372700192883607707_);fill:#D2D3D3;}
	.st65{clip-path:url(#SVGID_00000150809933710032529630000005066380677319448731_);fill:#D1D2D2;}
	.st66{clip-path:url(#SVGID_00000173157407830125670050000012778606540480923552_);fill:#D0D1D1;}
	.st67{clip-path:url(#SVGID_00000112629999554526223080000010653684850325885580_);fill:#CFD0D0;}
	.st68{clip-path:url(#SVGID_00000148645382993391910560000012346678785973722811_);fill:#CECFCF;}
	.st69{clip-path:url(#SVGID_00000029011413259774151650000015705662553292465573_);fill:#CDCECE;}
	.st70{clip-path:url(#SVGID_00000016759267616410948730000000909883758574966444_);fill:#CCCDCD;}
	.st71{clip-path:url(#SVGID_00000125565365253389229340000013558065416578456733_);fill:#CBCCCC;}
	.st72{clip-path:url(#SVGID_00000041260535841489782360000013179522696728794555_);fill:#CACBCB;}
	.st73{clip-path:url(#SVGID_00000101816101063825042780000007142515176960825225_);fill:#C9CACA;}
	.st74{clip-path:url(#SVGID_00000173139665989750365420000005223623373400278958_);fill:#C8C9C9;}
	.st75{clip-path:url(#SVGID_00000103956148352503084210000016896972650911494052_);fill:#C7C8C8;}
	.st76{clip-path:url(#SVGID_00000023264024574551037360000010232761998963336383_);fill:#C6C7C7;}
	.st77{clip-path:url(#SVGID_00000069381486340761918790000006520673389339285678_);fill:#C5C6C6;}
	.st78{clip-path:url(#SVGID_00000063608663120973944690000004055586488312718236_);fill:#C4C5C5;}
	.st79{clip-path:url(#SVGID_00000000207807987953568440000005166395867480926647_);fill:#C3C4C4;}
	.st80{clip-path:url(#SVGID_00000168077928236114139980000013812134929160388520_);fill:#C2C3C3;}
	.st81{clip-path:url(#SVGID_00000043420006056868380700000010884460080601119872_);fill:#C1C2C2;}
	.st82{clip-path:url(#SVGID_00000135692387916705862250000002003994558761750927_);fill:#C0C1C1;}
	.st83{clip-path:url(#SVGID_00000040569146638185184780000015418156341713225119_);fill:#BFC0C0;}
	.st84{clip-path:url(#SVGID_00000052811137288892042070000008738762253571547779_);fill:#BEBFBF;}
	.st85{clip-path:url(#SVGID_00000024680675138698207910000010011936881850803383_);fill:#BDBEBE;}
	.st86{clip-path:url(#SVGID_00000165924589008411674450000011665827233159196081_);fill:#BCBDBD;}
	.st87{clip-path:url(#SVGID_00000132083334941467892440000012890868215974207627_);fill:#BBBCBC;}
	.st88{clip-path:url(#SVGID_00000169544013352642856790000003237610395830600892_);fill:#BABBBB;}
	.st89{clip-path:url(#SVGID_00000060018799583230118530000015365776999492075699_);fill:#B9BABA;}
	.st90{clip-path:url(#SVGID_00000083798594339035935290000001385752166176963002_);fill:#B8B9B9;}
	.st91{clip-path:url(#SVGID_00000011011882462035547230000007024875786815756452_);fill:#B7B8B8;}
	.st92{fill:#383839;}
	.st93{fill:#222123;}
	.st94{fill:#160C08;}
</style>
<g>
	<g>
		<defs>
			<rect id="SVGID_1_" width="300" height="380"/>
		</defs>
		<clipPath id="SVGID_00000131350762694111344040000013407347021019318163_">
			<use xlink:href="#SVGID_1_"  style="overflow:visible;"/>
		</clipPath>
		<g style="clip-path:url(#SVGID_00000131350762694111344040000013407347021019318163_);">
			<g class="st1">
				<g>
					<path class="st2" d="M363.09-46.3c-5.94-18.28-13.21-37.75-21.66-55.02c-8.1-16.58-8.2-33.06-14.24-51.67
						c-57.01,6.57-82.28,55.92-122.54,56.38c1.97,5.75,3.94,11.49,5.91,17.23c-0.07,1.08,0.35,2.3,1.25,3.61
						c7.1,20.69,14.15,41.27,21.17,61.75c0.34,0.06,0.69,0.11,1.03,0.16l8.81,27.15c-1.98,1.36-3.83,2.78-4.41,5.09
						c-1.15,4.59-2.61,9.35-0.94,13.77c1.23,3.29,2.35,6.62,3.33,9.97c-1.08,0.16-2.15,0.33-3.22,0.5
						c-5.95,43.75-19.95,86.53-34.23,108.22c0.23-0.51,0.45-1.03,0.64-1.57c2.17-3.84,3.3-8.27,3.2-12.7
						c-0.11-4.32-1.4-8.6-3.67-12.27c3.5-7.82,4.29-16.85,2.08-25.14c-1.84-6.9-5.78-13.22-11.05-18.04
						c-2.76-4.21-7.01-8.1-14.23-9.78c-5.92-1.37-15.81-2.49-21.76-1.93c-7.81,0.75-14.07,4.07-18.92,9.31
						c-4.02,2.38-7.61,5.51-9.97,9.51c-3.16,5.31-3.85,12.31-0.75,17.67l1.56-1.13c0.33,1.36,0.85,2.68,1.53,3.9
						c-0.14,0.18-0.27,0.38-0.38,0.58c-1.23,2.15-1.28,4.86-0.48,7.21c0.81,2.35,2.38,4.36,4.24,6.02c0.88,0.79,1.81,1.5,2.78,2.18
						c0.01,0.04,0.01,0.09,0.03,0.13c1.67,7.3,6.18,13.26,12.13,17.74c0.62,0.47,1.2,0.92,1.76,1.36c-0.1,1.01-0.26,1.98-0.48,2.95
						c-0.65,2.78-1.54,5.53-2.56,8.2c-0.58,1.52-1.2,3-1.86,4.46c-0.21-0.55-0.43-1.12-0.64-1.67c-2.32,0.28-4.65,0.57-6.97,0.85
						c-13.42-0.89-20.67-1.43-41.67-7.44c-8.01-2.3-15.1-7.47-20.39-13.89c-0.37-0.44-0.65-0.94-0.95-1.43
						c-10.97-18.26-14.68-35.15-23.28-54.65c-0.24,0.04-0.47,0.09-0.69,0.13c0.16-6.18,2.81-12.33,3.5-18.5
						c-3.94,1.57-7.17,5.14-7.88,9.44c-1.15,1.28-2.24,2.78-3.39,4.04c-0.95-8.2-1.74-16.18-1.98-24.45
						c-0.86-0.47-2.25-0.2-2.86,0.61c-0.61,0.81-0.82,1.86-0.98,2.86c-0.99,6.49-0.41,13.08,0.16,19.58
						c-0.23,0.41-0.51,0.31-0.96,0.38c-1.37-6.08-3.13-12.23-5.06-18.15c-0.4-1.23-0.82-2.48-1.64-3.46
						c-0.81-0.98-2.11-1.63-3.33-1.29c-0.45,0.77-1.26,1.02-2.01,1.46c-0.62,0.35-1.36,0.43-1.98,0.77
						c-0.64,0.33-1.16,1.13-0.84,1.77c-1.57,0.2-2.34,2.42-2.38,4.07c-0.33,9.88,1.3,19.77,4.7,28.9c-0.06,0.01-0.11,0.04-0.16,0.06
						c3.24,32.22,3.03,48.34,16.46,77.46c6.09,13.21,37.41,35.02,67.03,45.42c-0.04,0.52-0.09,1.05-0.13,1.57
						c-1.54,21.48-1.08,40.59-0.33,62.16c1.2,1.63,2.93,3.19,4.94,4.62c-16.08,60.23-34.42,170.39-35.8,253.19c0,0,0,0,0,0.01
						h258.07c-26.52-88.94-57.89-176.4-97.88-259.85c0.5-0.27,0.99-0.54,1.49-0.81c-7.25-24.44-9.99-48.19-12.24-66.12
						c18.93-24.02,33.4-39.62,43.04-72.19c10.12-34.15,3.06-62.2-0.06-92.73c-2.05-0.41-4.14-0.71-6.22-0.91
						c0.68-3.29,1.93-6.57,2.34-9.92c0.47-3.84-0.17-7.85-1.9-11.31c0.26-3.17-1.43-6.16-3.24-8.77c-0.98-1.4-2.04-2.78-3.44-3.77
						c-1.4-0.98-3.54-1.76-5.09-1.02c-1.97,0.95-3.9,2.39-5.71,3.78l-7.69-23.7C278.13-11.41,306.27-50.32,363.09-46.3z
						 M207.87,165.07c-0.18-0.16-0.37-0.33-0.55-0.5c0.01-0.23,0.03-0.45,0.04-0.68C207.53,164.29,207.7,164.67,207.87,165.07z
						 M184.79,147.13c0.01-0.01,0.03-0.01,0.03-0.03c0.38,2.03,1.26,4.01,2.52,5.67c-0.33,0.37-0.65,0.74-0.98,1.11
						C185.74,151.67,185.2,149.41,184.79,147.13z"/>
				</g>
			</g>
			<g>
				<g>
					<g>
						<path class="st3" d="M44.93,86.95c-0.06-1.33-0.13-2.68-0.18-4.01c-0.31-6.7,2.73-13.35,3.49-20.03
							c-3.94,1.57-7.17,5.14-7.88,9.44c-1.15,1.28-2.24,2.78-3.39,4.04c-0.95-8.2-1.74-16.18-1.98-24.45
							c-0.86-0.47-2.25-0.2-2.86,0.61s-0.82,1.86-0.98,2.86c-0.99,6.49-0.41,13.08,0.16,19.58c-0.23,0.41-0.51,0.31-0.96,0.38
							c-1.37-6.08-3.13-12.23-5.06-18.15c-0.4-1.23-0.82-2.48-1.64-3.46c-0.82-0.98-2.11-1.63-3.33-1.29
							c-0.45,0.77-1.26,1.02-2.01,1.46c-0.62,0.35-1.36,0.43-1.98,0.77c-0.64,0.33-1.16,1.13-0.84,1.77
							c-1.57,0.2-2.34,2.42-2.38,4.07c-0.34,10.31,1.45,20.67,5.19,30.16C27.15,91.73,36.51,90.22,44.93,86.95z"/>
					</g>
					<g>
						<path class="st4" d="M19.6,53.45c0.64,1.8,1.19,3.63,1.71,5.47c0.27,0.92,0.51,1.84,0.75,2.76l0.71,2.76l0.65,2.78
							c0.2,0.94,0.43,1.86,0.6,2.79c0.38,1.87,0.74,3.74,0.99,5.64c-0.64-1.8-1.19-3.63-1.71-5.47c-0.27-0.92-0.5-1.84-0.75-2.76
							l-0.71-2.76l-0.65-2.78c-0.2-0.94-0.41-1.86-0.6-2.79C20.21,57.22,19.85,55.35,19.6,53.45z"/>
					</g>
					<g>
						<path class="st4" d="M15.4,56.44c0.6,1.67,1.11,3.36,1.57,5.04c0.47,1.7,0.91,3.4,1.32,5.11c0.41,1.71,0.78,3.43,1.12,5.16
							c0.34,1.73,0.64,3.46,0.85,5.21c-0.6-1.67-1.11-3.36-1.57-5.04c-0.47-1.7-0.92-3.4-1.32-5.11c-0.41-1.71-0.78-3.43-1.12-5.16
							C15.91,59.93,15.61,58.2,15.4,56.44z"/>
					</g>
					<g>
						<path class="st4" d="M36.74,77.07c-0.82,0.86-1.63,1.71-2.38,2.61c-0.75,0.88-1.47,1.8-2.14,2.73
							c-0.67,0.95-1.29,1.91-1.87,2.92s-1.12,2.04-1.67,3.1c0.17-1.19,0.54-2.34,1.01-3.44c0.48-1.11,1.08-2.15,1.77-3.13
							s1.49-1.9,2.38-2.71C34.73,78.34,35.69,77.62,36.74,77.07z"/>
					</g>
				</g>
				<g>
					<path class="st5" d="M135.85,158.96c-16.25-1.12-22.75-1.12-45.81-7.71c-8.01-2.3-15.1-7.47-20.39-13.89
						c-0.37-0.44-0.65-0.94-0.95-1.43c-10.97-18.26-14.68-35.15-23.28-54.65c-11.35,2.14-16.92,4.28-27.77,8.2
						c3.24,32.22,3.03,48.34,16.46,77.46c7.47,16.21,52.89,45.37,86.61,50.51C124.49,198.44,128.43,176.87,135.85,158.96z"/>
				</g>
				<g>
					<path class="st6" d="M68.92,144c-0.24,4.07-0.43,8.1-0.47,12.14c-0.03,4.04,0.07,8.08,0.31,12.1
						c0.24,4.02,0.64,8.03,1.16,12.04c0.54,4.01,1.2,7.99,1.94,12c-1.36-3.84-2.38-7.79-3.15-11.8c-0.78-4.01-1.28-8.08-1.53-12.14
						c-0.24-4.08-0.24-8.18,0.03-12.24C67.51,152.04,68.04,147.98,68.92,144z"/>
				</g>
				<g>
					<path class="st6" d="M64.79,137.06c-2.11,2.05-4.11,4.22-5.94,6.5c-0.44,0.58-0.89,1.16-1.35,1.74l-1.28,1.79
						c-0.4,0.61-0.81,1.22-1.22,1.81l-1.15,1.87l-1.09,1.9l-1.02,1.94l-0.95,1.97c-0.28,0.67-0.58,1.35-0.89,2.01
						c-1.13,2.71-2.08,5.48-2.88,8.32c0.41-2.92,1.18-5.81,2.2-8.59c0.27-0.69,0.54-1.39,0.81-2.07l0.91-2.04l1.01-1.98l1.09-1.94
						l1.19-1.88c0.43-0.61,0.84-1.23,1.26-1.83l1.35-1.77c0.47-0.57,0.95-1.13,1.43-1.7C60.25,140.87,62.41,138.83,64.79,137.06z"/>
				</g>
				<g>
					<path class="st3" d="M234.79,49.16c-1.36-5.78-3.1-11.46-5.19-17.02c-1.67-4.42-0.21-9.2,0.94-13.77
						c0.82-3.29,4.22-4.79,6.91-6.84c2.25-1.71,4.72-3.75,7.27-4.99c1.54-0.74,3.68,0.04,5.09,1.02c1.4,0.98,2.47,2.37,3.44,3.77
						c1.83,2.61,3.51,5.6,3.24,8.77c1.73,3.46,2.37,7.47,1.9,11.31c-0.65,5.44-3.56,10.74-2.59,16.14
						C248.8,48.87,241.89,48.93,234.79,49.16z"/>
				</g>
				<g>
					<path class="st7" d="M327.9,533.94H69.27c0-0.21,0.57,0.2,0.57-0.01C71.33,445.3,92.22,325.3,109,268.77
						c39.22,3.95,76.06,0.77,114.5-8.15C266.63,348.11,299.95,440.21,327.9,533.94z"/>
				</g>
				<g>
					<path class="st8" d="M113.02,276.12l-0.85,7.85l-0.82,7.85l-0.75,7.85l-0.68,7.86c-0.86,10.48-1.52,20.98-1.81,31.48
						c-0.3,10.51-0.28,21.03,0.24,31.51c0.5,10.48,1.46,20.96,3.02,31.34c1.53,10.39,3.7,20.67,6.52,30.77
						c2.81,10.12,6.31,20.02,10.51,29.64c2.1,4.8,4.41,9.52,6.87,14.15c2.48,4.63,5.14,9.15,8.02,13.55
						c2.86,4.41,5.92,8.69,9.18,12.81l2.48,3.06l2.56,3l2.62,2.95l2.69,2.88l-2.79-2.81l-2.72-2.88l-2.64-2.95l-2.56-3.02
						c-3.36-4.05-6.53-8.27-9.49-12.64c-2.96-4.36-5.71-8.87-8.27-13.49c-2.56-4.62-4.92-9.34-7.1-14.15
						c-2.18-4.8-4.17-9.71-5.95-14.66c-1.8-4.96-3.41-9.99-4.86-15.06c-2.88-10.16-5.07-20.5-6.63-30.94
						c-1.53-10.44-2.49-20.97-2.95-31.5c-0.44-10.54-0.41-21.1,0.03-31.62c0.41-10.53,1.22-21.04,2.28-31.51l0.85-7.85l0.94-7.84
						l1.01-7.84L113.02,276.12z"/>
				</g>
				<g>
					<path class="st8" d="M140.65,286.38c5.4,22.73,12.57,45,21.48,66.54l3.43,8.05l3.57,7.98l3.74,7.91l3.9,7.82
						c5.28,10.39,10.98,20.56,17.1,30.46c6.08,9.93,12.6,19.61,19.47,29.02l5.21,7.01l5.36,6.9l5.5,6.79l5.62,6.69
						c15.2,17.67,31.84,34.12,49.68,49.21c-18.42-14.38-35.46-30.55-50.96-48.07l-5.75-6.63l-5.6-6.77l-5.45-6.89l-5.3-7
						c-6.96-9.41-13.52-19.13-19.67-29.1c-6.11-9.99-11.83-20.22-17.09-30.67l-3.85-7.89l-3.68-7.98l-3.51-8.05l-3.32-8.12
						C151.9,331.82,145.17,309.31,140.65,286.38z"/>
				</g>
				<g>
					<polygon class="st8" points="192.52,274.41 194.35,278.52 196.17,282.63 199.89,290.79 203.7,298.92 207.6,307 211.59,315.03 
						215.69,323.02 219.87,330.96 224.15,338.85 228.51,346.68 232.99,354.46 237.54,362.2 242.18,369.86 246.93,377.49 
						251.76,385.05 256.65,392.58 259.16,396.32 261.64,400.06 259,396.42 256.38,392.77 251.24,385.39 246.24,377.94 
						241.36,370.39 236.6,362.76 231.96,355.07 227.45,347.29 223.04,339.46 218.78,331.54 214.63,323.56 210.62,315.53 
						206.72,307.42 202.97,299.26 199.34,291.04 195.85,282.75 194.18,278.59 					"/>
				</g>
				<g>
					<path class="st5" d="M194.48,152.33c14.62-21.18,29.14-64.93,35.24-109.72c10.68-1.8,21.92-2.48,32.56-0.38
						c3.12,30.53,10.16,58.59,0.06,92.73c-10.12,34.15-25.53,49.63-45.81,75.72C210.94,187.5,203.77,174.29,194.48,152.33z"/>
				</g>
				<g>
					<g>
						<path class="st9" d="M195.81,120c5.47-19.67-4.14-42.48-25.25-47.04c-0.75-0.16-1.5-0.3-2.27-0.35
							c-0.34,25.14,6.52,50.2,7.74,75.31C184.43,140.66,192.84,130.7,195.81,120z"/>
					</g>
					<g>
						<path class="st10" d="M134.33,111.12c0.23-2.47-1.9-4.82-4.35-5.14c-2.47-0.34-4.97,1.13-6.19,3.29
							c-1.23,2.15-1.28,4.86-0.48,7.21c0.81,2.35,2.38,4.36,4.24,6.02c1.84,1.66,3.95,2.99,6.05,4.32
							C133.33,121.8,133.88,116.13,134.33,111.12z"/>
					</g>
					<g>
						<g>
							<path class="st3" d="M176.22,142.53c-3.56,4.31-7.93,7.79-12.79,10.09c-6.94,3.29-14.82,4.12-22.23,2.44
								c-0.98,2.54-2.07,5.03-3.23,7.42c-4.72,9.78-11.07,18.53-18.28,26.23c3.17,6.12,8.27,13.36,14.28,15.84
								c10.31,4.26,22.16,1.7,31.87-4.05c9.71-5.75,16.93-14.78,24.77-23.31C182.68,167.64,177.72,155.31,176.22,142.53z"/>
						</g>
						<g>
							<path class="st10" d="M163.42,152.62c4.86-2.3,9.24-5.78,12.79-10.09c-0.98-8.37-0.5-16.95,1.63-25.06
								c-0.88-1.28-3.83-2.54-5.28-2.56c-1.46-0.04-2.88,0.41-4.26,0.89c-8.46,2.92-17.04,8.02-24.5,13.28
								c0.23,5.71,1.26,12.24-0.06,17.78c-0.65,2.78-1.54,5.53-2.56,8.2C148.59,156.73,156.46,155.89,163.42,152.62z"/>
						</g>
					</g>
					<g>
						<path class="st3" d="M130.28,102.47c-1.23,7.27-1.62,15.03,0.06,22.33c1.67,7.3,6.18,13.26,12.13,17.74
							c4.55,3.41,7.04,6.35,12.65,5.41c10.22-1.71,22.39-11.52,25.43-21.49c1.74-5.7,2.39-10.9,2.9-16.82
							c0.41-4.68,0.23-9.44-1.37-13.84c-2.21-6.11-8.44-9.63-14.81-10.94c-6.36-1.32-12.96-0.34-19.28,1.19
							c-4.34,1.05-8.71,2.41-12.28,5.07C132.15,93.77,131.02,98.08,130.28,102.47z"/>
					</g>
					<g>
						<path class="st3" d="M182.21,111.53c0.17-2.42,2.58-4.35,5-4.29c2.42,0.06,4.62,1.86,5.47,4.12c0.85,2.27,0.48,4.89-0.65,7.03
							c-1.13,2.14-2.98,3.84-5.02,5.16s-4.28,2.28-6.5,3.23C181.51,121.97,181.87,116.42,182.21,111.53z"/>
					</g>
					<g>
						<path class="st9" d="M165.26,73.65c-5.6-0.55-11.14-0.38-16.51,0.6c-2.68,0.5-5.31,1.19-7.86,2.08l-0.96,0.34
							c-0.31,0.11-0.62,0.24-0.95,0.37c-0.31,0.13-0.64,0.24-0.94,0.37l-0.92,0.41c-1.25,0.54-2.45,1.13-3.63,1.77
							c-1.18,0.65-2.31,1.35-3.4,2.13c-1.09,0.77-2.13,1.59-3.1,2.48c-1.96,1.77-3.64,3.85-4.89,6.15
							c-1.23,2.31-2.05,4.89-2.28,7.57c-0.11,1.33-0.09,2.69,0.1,4.04c0.09,0.68,0.24,1.35,0.43,2.01c0.1,0.33,0.2,0.67,0.31,0.99
							c0.13,0.33,0.26,0.65,0.38,0.98c-0.2-0.28-0.4-0.58-0.6-0.88c-0.18-0.3-0.35-0.61-0.52-0.92c-0.31-0.64-0.61-1.3-0.84-1.98
							c-0.47-1.36-0.72-2.81-0.81-4.26c-0.17-2.92,0.43-5.89,1.59-8.61l0.23-0.51c0.09-0.17,0.17-0.33,0.26-0.5
							c0.17-0.33,0.33-0.67,0.52-0.99c0.37-0.65,0.77-1.26,1.19-1.87c0.85-1.22,1.83-2.34,2.88-3.37c1.05-1.03,2.18-1.98,3.36-2.85
							c1.19-0.86,2.42-1.64,3.68-2.35c5.1-2.78,10.73-4.46,16.45-5.03C154.13,71.26,159.94,71.83,165.26,73.65z"/>
					</g>
					<g>
						<path class="st9" d="M152.31,79.72c-1.8,2.3-2.93,4.79-3.49,7.37c-0.54,2.56-0.48,5.2,0.26,7.58c0.74,2.39,2.15,4.6,4.05,6.42
							c1.9,1.83,4.24,3.24,7.01,4.14c-1.45,0.23-2.96,0.1-4.42-0.3c-1.46-0.4-2.86-1.05-4.14-1.91l-0.94-0.69l-0.88-0.77
							c-0.27-0.28-0.55-0.55-0.81-0.84c-0.26-0.3-0.5-0.61-0.74-0.91c-0.95-1.26-1.69-2.68-2.15-4.21
							c-0.47-1.53-0.65-3.12-0.58-4.69c0.03-0.4,0.07-0.78,0.1-1.18c0.06-0.38,0.13-0.77,0.2-1.15c0.1-0.38,0.18-0.75,0.28-1.13
							l0.38-1.09c0.57-1.43,1.36-2.76,2.35-3.91C149.81,81.31,150.98,80.34,152.31,79.72z"/>
					</g>
					<g>
						<circle class="st11" cx="174.57" cy="120.82" r="5.92"/>
					</g>
					<g>
						<ellipse class="st11" cx="134.89" cy="120.82" rx="4.75" ry="5.92"/>
					</g>
					<g>
						<path class="st12" d="M163.79,127.84c-6.46-1.49-13.25-1.35-19.64,0.41c0.55,2.32,1.69,4.66,3.32,6.33
							c2.69,2.79,6.97,3.5,10.51,2.14C161.51,135.36,163.36,131.79,163.79,127.84z"/>
					</g>
					<g>
						<path class="st4" d="M147.84,105.15c1.6,0.43,3.07,1.37,4.21,2.66c1.13,1.29,1.94,2.92,2.21,4.68
							c0.27,1.76-0.03,3.57-0.77,5.16c-0.72,1.6-1.9,2.98-3.34,3.92l0.18-0.6c0.17,0.74,0.45,1.47,0.77,2.21l0.5,1.11
							c0.17,0.37,0.34,0.74,0.5,1.12c-0.27-0.31-0.54-0.61-0.79-0.94c-0.26-0.31-0.51-0.64-0.75-0.98c-0.48-0.67-0.91-1.39-1.23-2.2
							l-0.13-0.31l0.31-0.28c1.15-1.02,2.03-2.28,2.59-3.67c0.57-1.39,0.81-2.89,0.65-4.36c-0.16-1.47-0.71-2.92-1.54-4.21
							c-0.43-0.65-0.92-1.25-1.47-1.81c-0.14-0.13-0.28-0.27-0.44-0.41l-0.45-0.38l-0.48-0.37
							C148.16,105.39,147.99,105.28,147.84,105.15z"/>
					</g>
					<g>
						
							<ellipse transform="matrix(0.0365 -0.9993 0.9993 0.0365 47.0125 274.5194)" class="st9" cx="165.87" cy="112.88" rx="3.6" ry="3.1"/>
					</g>
					<g>
						
							<ellipse transform="matrix(0.0365 -0.9993 0.9993 0.0365 24.42 251.0754)" class="st9" cx="142.42" cy="112.87" rx="3.6" ry="3.1"/>
					</g>
					<g>
						<path class="st4" d="M184.32,120.82c-0.07-0.64-0.1-1.28-0.09-1.91c0.01-0.62,0.04-1.26,0.1-1.88l0.01-0.11l0.11-0.16
							c0.79-1.09,1.83-2,3-2.65c0.6-0.33,1.22-0.58,1.87-0.74c0.65-0.17,1.32-0.26,1.98-0.2c-0.6,0.3-1.15,0.6-1.69,0.91
							c-0.54,0.31-1.05,0.65-1.54,1.01c-0.99,0.71-1.91,1.5-2.73,2.39l0.13-0.27c-0.13,0.61-0.3,1.22-0.47,1.83
							C184.79,119.63,184.59,120.24,184.32,120.82z"/>
					</g>
					<g>
						<path class="st9" d="M148.12,90.71c0.34,5.48,3.06,7.78,7.3,11.28c4.25,3.5,9.97,5.13,15.43,4.41
							c-5.27-3.97-7.91-7.71-7.47-14.28c2.82,9.49,10.46,17.95,20.05,20.39c0.26,2.37-0.2,5.51-0.95,7.78
							c1.83-3.46,3.53-7.23,4.68-10.95c1.98-6.49,6.62-11.99,4.15-18.31c-2.47-6.32-5.78-16.61-18.84-19.65
							c-5.92-1.37-15.81-2.49-21.76-1.93c-13.08,1.26-21.82,9.68-26.79,22.4c-1.52,3.87-2.24,8.13-1.46,12.2
							c0.79,4.08,3.23,7.93,6.91,9.86c-0.14-3.05,0.27-4.28,0.78-6.67C137.69,101.4,141.19,97.57,148.12,90.71z"/>
					</g>
					<g>
						<path class="st13" d="M134.02,103.73c0.94-0.72,2.04-1.2,3.19-1.53c1.15-0.31,2.35-0.45,3.54-0.41s2.38,0.26,3.51,0.67
							c1.12,0.4,2.18,0.98,3.07,1.76c-1.13-0.33-2.22-0.61-3.33-0.79c-1.09-0.2-2.2-0.31-3.3-0.35s-2.21,0-3.32,0.13
							C136.27,103.28,135.17,103.49,134.02,103.73z"/>
					</g>
					<g>
						<path class="st13" d="M174.03,104.74c-1.12-0.34-2.21-0.65-3.3-0.86c-1.09-0.23-2.2-0.37-3.29-0.43
							c-1.11-0.06-2.21-0.04-3.32,0.06c-1.12,0.1-2.22,0.27-3.39,0.48c0.95-0.69,2.07-1.18,3.22-1.46c1.16-0.3,2.37-0.4,3.56-0.33
							s2.38,0.31,3.5,0.74C172.11,103.34,173.16,103.93,174.03,104.74z"/>
					</g>
					<g>
						<path class="st13" d="M160.73,110.32c0.52-1.08,1.47-1.94,2.58-2.51c1.11-0.57,2.39-0.84,3.66-0.72
							c1.28,0.11,2.48,0.61,3.47,1.37c0.98,0.77,1.74,1.79,2.07,2.95c-0.78-0.89-1.66-1.6-2.62-2.11c-0.95-0.52-1.98-0.85-3.03-0.95
							c-1.05-0.1-2.13,0.04-3.16,0.37C162.66,109.05,161.66,109.59,160.73,110.32z"/>
					</g>
					<g>
						<path class="st13" d="M146.99,110.32c-0.94-0.74-1.93-1.28-2.96-1.6c-1.03-0.34-2.11-0.47-3.16-0.37
							c-1.05,0.1-2.08,0.43-3.03,0.95c-0.96,0.52-1.83,1.22-2.62,2.11c0.33-1.15,1.09-2.18,2.07-2.95c0.98-0.77,2.2-1.26,3.47-1.37
							s2.55,0.16,3.66,0.72C145.51,108.37,146.46,109.25,146.99,110.32z"/>
					</g>
				</g>
				<g>
					<path class="st5" d="M217.47,193.99c2.89,18.31,4.83,48.26,14.04,79.3c-29.02,16-79.39,23.69-110.44,14.78
						c-5.99-1.71-16.29-6.38-20.36-11.93c-0.75-21.56-1.22-40.69,0.33-62.16c0.67-9.37,2.88-18.76,5.82-27.43
						c1.53-4.52,3.34-8.93,5.4-13.13c1.15-2.35,4.32-10.63,6.53-11.45c5.41-2.01,11.62-3.19,17.26-3.68
						c2.71,8.2,7.14,14.42,15.56,24.63c10.22-8.7,20.4-18.63,29.92-28.41c5.57,2.62,9.96,5.37,15.51,7.98
						C209.1,173.09,214.9,177.64,217.47,193.99z"/>
				</g>
				<g>
					<path class="st14" d="M179.57,152.67c-10.5,12.09-23.68,24.06-36.07,34.17c1.74,1.94,2.9,4.72,4.65,6.66
						c16.1-8.26,30.22-21,40.21-36.07C185.47,155.68,182.73,153.85,179.57,152.67z"/>
				</g>
				<g>
					<path class="st14" d="M131.02,158.77c2.56-0.31,5.11-0.62,7.68-0.94c3.58,9.75,8.91,18.82,15.32,26.99
						c-2.11,2.49-4.68,4.35-7.78,5.41C137.95,181.56,133.5,170.51,131.02,158.77z"/>
				</g>
				<g>
					<path class="st9" d="M196.43,175.05c2.17,2.22,3.24,5.44,2.88,8.52s-1.22,6.31-3.85,7.93c1.64,2.86,1.29,6.52-0.09,9.51
						c-1.37,2.99-3.92,5.38-6.16,7.79c-1.84-0.34-3.7-0.95-5.54-1.29c-1.54-2.72-2.08-5.99-1.52-9.05c0.57-3.06,1.77-6.04,4.19-8.01
						c-1.73-2.15-2.55-5.03-2.21-7.76c0.34-2.75,1.36-5.47,3.57-7.13c-2.47-2.37-4.09-5.58-4.55-8.97s-0.04-6.83,1.71-9.76
						c-4.94-1.62-8.44-7.38-8.13-12.58c5.4-6.38,10.82-12.47,16.22-18.83c5.37,7.45,6.23,17.91,2.17,26.14
						c3.33,2.73,4.55,7.61,4.36,11.92C199.32,167.78,198.6,171.3,196.43,175.05z"/>
				</g>
				<g>
					<path class="st6" d="M153.73,232.1l1.08,2.03l1.15,1.98l1.23,1.93l1.32,1.87c1.8,2.48,3.78,4.8,5.91,6.99
						c2.14,2.18,4.39,4.24,6.77,6.15c2.38,1.91,4.85,3.71,7.41,5.37c2.55,1.67,5.19,3.23,7.88,4.7c2.68,1.47,5.41,2.85,8.18,4.19
						c2.76,1.33,5.54,2.61,8.35,3.87l4.19,1.88c1.4,0.62,2.81,1.25,4.21,1.88l-2.15-0.81l-2.15-0.84l-4.28-1.69
						c-2.85-1.16-5.68-2.35-8.47-3.63c-2.81-1.26-5.57-2.64-8.29-4.07c-2.72-1.46-5.37-3.02-7.96-4.69
						c-2.58-1.7-5.07-3.51-7.47-5.47c-2.38-1.97-4.65-4.07-6.74-6.33c-2.11-2.25-4.04-4.68-5.77-7.23l-1.25-1.96l-1.16-2l-1.06-2.04
						L153.73,232.1z"/>
				</g>
				<g>
					<g>
						<g>
							
								<rect x="236.43" y="-67.13" transform="matrix(0.9512 -0.3086 0.3086 0.9512 6.2418 74.5562)" class="st8" width="4.77" height="169.34"/>
						</g>
						<g>
							<g>
								<g>
									<path class="st5" d="M355.22-46.3c-59.79-4.24-87.83,39.08-130.14,32.26c-9.38-27.35-18.82-54.86-28.32-82.59
										c40.27-0.45,65.53-49.8,122.54-56.38c6.04,18.62,6.13,35.11,14.24,51.67C342-84.04,349.29-64.57,355.22-46.3z"/>
								</g>
							</g>
							<g>
								<g>
									<g>
										<g>
											<g>
												<path class="st15" d="M305.79-69.92c-1.67,3.74-3.32,7.52-4.9,11.31c-1.03-0.5-2.05-0.99-3.07-1.47
													c1.56-3.81,3.16-7.62,4.79-11.39C303.65-70.96,304.71-70.44,305.79-69.92z"/>
											</g>
										</g>
										<g>
											<g>
												<path class="st15" d="M311.99-83.21c-1.81,3.7-3.57,7.45-5.28,11.24c-1.08-0.54-2.14-1.06-3.2-1.59
													c1.67-3.83,3.39-7.62,5.16-11.36C309.77-84.35,310.87-83.79,311.99-83.21z"/>
											</g>
										</g>
										<g>
											<g>
												<path class="st15" d="M311.37-67.08c-1.74,3.68-3.46,7.4-5.11,11.14c-1.05-0.52-2.1-1.05-3.13-1.56
													c1.63-3.77,3.29-7.52,4.99-11.24C309.19-68.2,310.28-67.63,311.37-67.08z"/>
											</g>
										</g>
										<g>
											<g>
												<path class="st15" d="M317.86-80.09c-1.9,3.61-3.74,7.28-5.53,10.99c-1.11-0.57-2.2-1.13-3.29-1.69
													c1.74-3.75,3.54-7.48,5.38-11.14C315.58-81.32,316.71-80.71,317.86-80.09z"/>
											</g>
										</g>
										<g>
											<g>
												<path class="st15" d="M317.09-64.06c-1.83,3.6-3.6,7.24-5.33,10.92c-1.08-0.55-2.14-1.11-3.2-1.64
													c1.69-3.71,3.41-7.41,5.2-11.05C314.87-65.25,315.97-64.66,317.09-64.06z"/>
											</g>
										</g>
										<g>
											<g>
												<path class="st15" d="M323.88-76.74c-1.98,3.5-3.91,7.08-5.78,10.71c-1.13-0.61-2.25-1.2-3.36-1.8
													c1.83-3.68,3.7-7.31,5.62-10.88C321.53-78.06,322.7-77.41,323.88-76.74z"/>
											</g>
										</g>
									</g>
									<g>
										<g>
											<g>
												<path class="st15" d="M230.69-93.92c-2.37,7.5-4.76,14.55-7.27,21.03c-0.84-0.54-1.67-1.08-2.49-1.63
													c2.51-6.35,4.9-13.28,7.25-20.69C229.02-94.77,229.86-94.34,230.69-93.92z"/>
											</g>
										</g>
										<g>
											<g>
												<path class="st15" d="M235.02-91.75c-2.38,7.67-4.79,14.91-7.28,21.59c-0.84-0.52-1.67-1.05-2.51-1.57
													c2.49-6.56,4.9-13.7,7.27-21.27C233.34-92.57,234.18-92.16,235.02-91.75z"/>
											</g>
										</g>
										<g>
											<g>
												<path class="st15" d="M239.38-89.64c-2.41,7.81-4.83,15.22-7.33,22.12c-0.84-0.5-1.67-1.01-2.51-1.52
													c2.49-6.77,4.92-14.1,7.3-21.82C237.68-90.45,238.53-90.05,239.38-89.64z"/>
											</g>
										</g>
									</g>
									<g>
										<g>
											<g>
												<path class="st15" d="M243.45-37.27c-2.78-1.74-5.55-3.54-8.33-5.4c0.35-0.86,0.72-1.73,1.08-2.62
													c2.78,1.81,5.55,3.56,8.35,5.26C244.17-39.1,243.8-38.18,243.45-37.27z"/>
											</g>
										</g>
										<g>
											<g>
												<path class="st15" d="M253.39-31.26c-2.81-1.64-5.61-3.32-8.42-5.06c0.35-0.92,0.72-1.86,1.08-2.79
													c2.81,1.69,5.62,3.33,8.44,4.93C254.11-33.2,253.76-32.23,253.39-31.26z"/>
											</g>
										</g>
										<g>
											<g>
												<path class="st15" d="M255.28-36.34c-6.12-3.41-12.21-7-18.32-10.88c0.35-0.91,0.71-1.81,1.06-2.73
													c6.11,3.78,12.2,7.27,18.35,10.6C256-38.35,255.63-37.34,255.28-36.34z"/>
											</g>
										</g>
										<g>
											<g>
												<path class="st15" d="M251.52-26.39c-6.08-3.71-12.16-7.65-18.26-11.96c0.37-0.82,0.72-1.66,1.08-2.49
													c6.11,4.18,12.17,8.02,18.26,11.63C252.24-28.26,251.88-27.32,251.52-26.39z"/>
											</g>
										</g>
									</g>
								</g>
								<g>
									<g>
										<g>
											<path class="st16" d="M260.11-96.95c-9.29,6.26-13.6,19.79-9.95,31.03c0.03,0.09,0.06,0.18,0.09,0.27
												c0.03,0.09,0.06,0.17,0.09,0.27c1.98,5.47,7.2,8.03,11.8,5.47c4.77-2.66,7.11-9.71,5.14-15.6
												c-1.97-5.89,0.37-13.22,5.38-16.31c5.04-3.12,10.92-0.68,13.06,5.28C281.52-98.73,269.84-103.49,260.11-96.95z"/>
										</g>
									</g>
									<g>
										<g>
											<path class="st17" d="M285.72-86.55c-2.14-5.96-8.02-8.42-13.06-5.28c-5.02,3.09-7.35,10.41-5.38,16.31
												c1.97,5.89-0.35,12.94-5.14,15.6c-4.6,2.56-9.82,0-11.8-5.47c3.9,11.15,14.52,16.44,24.09,11.18
												c10.02-5.51,15.39-19.54,11.49-31.75c-0.03-0.1-0.06-0.2-0.1-0.28C285.8-86.35,285.77-86.45,285.72-86.55z"/>
										</g>
									</g>
								</g>
							</g>
						</g>
					</g>
					<g class="st18">
						<g>
							<g>
								<defs>
									
										<ellipse id="SVGID_00000021104097031848330190000013615346467252897441_" transform="matrix(0.3277 -0.9448 0.9448 0.3277 229.9988 198.533)" cx="254.5" cy="-62.34" rx="12.99" ry="54.65"/>
								</defs>
								<clipPath id="SVGID_00000121274455090726451610000016883180863757617329_">
									<use xlink:href="#SVGID_00000021104097031848330190000013615346467252897441_"  style="overflow:visible;"/>
								</clipPath>
								
									<rect x="200.49" y="-87.03" style="clip-path:url(#SVGID_00000121274455090726451610000016883180863757617329_);fill:#FFFFFF;" width="107.98" height="49.38"/>
							</g>
							<g>
								<defs>
									
										<ellipse id="SVGID_00000062174260514753334870000004826849532764245678_" transform="matrix(0.6192 -0.7852 0.7852 0.6192 145.8764 176.0931)" cx="254.5" cy="-62.36" rx="54.65" ry="12.99"/>
								</defs>
								<clipPath id="SVGID_00000115480949896042985980000010349026251925905850_">
									<use xlink:href="#SVGID_00000062174260514753334870000004826849532764245678_"  style="overflow:visible;"/>
								</clipPath>
								
									<ellipse transform="matrix(0.3277 -0.9448 0.9448 0.3277 229.9985 198.5318)" style="clip-path:url(#SVGID_00000115480949896042985980000010349026251925905850_);fill:#FFFFFF;" cx="254.5" cy="-62.34" rx="12.99" ry="54.65"/>
							</g>
							<g>
								<defs>
									
										<ellipse id="SVGID_00000091698292863515441840000014678750789712449447_" transform="matrix(0.6192 -0.7852 0.7852 0.6192 145.8764 176.0931)" cx="254.5" cy="-62.36" rx="54.65" ry="12.99"/>
								</defs>
								<clipPath id="SVGID_00000053542670300462428020000001403881032822812044_">
									<use xlink:href="#SVGID_00000091698292863515441840000014678750789712449447_"  style="overflow:visible;"/>
								</clipPath>
								
									<ellipse transform="matrix(0.3277 -0.9448 0.9448 0.3277 229.9985 198.5318)" style="clip-path:url(#SVGID_00000053542670300462428020000001403881032822812044_);fill:#FEFEFE;" cx="254.5" cy="-62.34" rx="12.81" ry="53.9"/>
							</g>
							<g>
								<defs>
									
										<ellipse id="SVGID_00000103226913845825228990000010956249559033069218_" transform="matrix(0.6192 -0.7852 0.7852 0.6192 145.8764 176.0931)" cx="254.5" cy="-62.36" rx="54.65" ry="12.99"/>
								</defs>
								<clipPath id="SVGID_00000012437682518425000920000012511514181422473632_">
									<use xlink:href="#SVGID_00000103226913845825228990000010956249559033069218_"  style="overflow:visible;"/>
								</clipPath>
								
									<ellipse transform="matrix(0.3277 -0.9448 0.9448 0.3277 229.9985 198.5318)" style="clip-path:url(#SVGID_00000012437682518425000920000012511514181422473632_);fill:#FDFDFD;" cx="254.5" cy="-62.34" rx="12.62" ry="53.13"/>
							</g>
							<g>
								<defs>
									
										<ellipse id="SVGID_00000093892621310109457980000006596097199992334517_" transform="matrix(0.6192 -0.7852 0.7852 0.6192 145.8765 176.0932)" cx="254.5" cy="-62.36" rx="54.65" ry="12.99"/>
								</defs>
								<clipPath id="SVGID_00000084516452460123810460000017303188647912886930_">
									<use xlink:href="#SVGID_00000093892621310109457980000006596097199992334517_"  style="overflow:visible;"/>
								</clipPath>
								
									<ellipse transform="matrix(0.3277 -0.9448 0.9448 0.3277 229.9986 198.5319)" style="clip-path:url(#SVGID_00000084516452460123810460000017303188647912886930_);fill:#FCFCFC;" cx="254.5" cy="-62.34" rx="12.45" ry="52.38"/>
							</g>
							<g>
								<defs>
									
										<ellipse id="SVGID_00000118358830875827787720000010105520073531777932_" transform="matrix(0.6192 -0.7852 0.7852 0.6192 145.8764 176.0931)" cx="254.5" cy="-62.36" rx="54.65" ry="12.99"/>
								</defs>
								<clipPath id="SVGID_00000096747496732616768600000001904794288017393577_">
									<use xlink:href="#SVGID_00000118358830875827787720000010105520073531777932_"  style="overflow:visible;"/>
								</clipPath>
								
									<ellipse transform="matrix(0.3277 -0.9448 0.9448 0.3277 229.9985 198.5318)" style="clip-path:url(#SVGID_00000096747496732616768600000001904794288017393577_);fill:#FBFBFB;" cx="254.5" cy="-62.34" rx="12.27" ry="51.62"/>
							</g>
							<g>
								<defs>
									
										<ellipse id="SVGID_00000124127726451971010090000000332283228091989637_" transform="matrix(0.6192 -0.7852 0.7852 0.6192 145.8764 176.0931)" cx="254.5" cy="-62.36" rx="54.65" ry="12.99"/>
								</defs>
								<clipPath id="SVGID_00000076567913421383735650000005662753270259000220_">
									<use xlink:href="#SVGID_00000124127726451971010090000000332283228091989637_"  style="overflow:visible;"/>
								</clipPath>
								
									<ellipse transform="matrix(0.3277 -0.9448 0.9448 0.3277 229.9985 198.5318)" style="clip-path:url(#SVGID_00000076567913421383735650000005662753270259000220_);fill:#FAFAFA;" cx="254.5" cy="-62.34" rx="12.09" ry="50.85"/>
							</g>
							<g>
								<defs>
									
										<ellipse id="SVGID_00000132775337534915514680000016571782381191600826_" transform="matrix(0.6192 -0.7852 0.7852 0.6192 145.8764 176.0931)" cx="254.5" cy="-62.36" rx="54.65" ry="12.99"/>
								</defs>
								<clipPath id="SVGID_00000124160739773549790730000007460138562990718874_">
									<use xlink:href="#SVGID_00000132775337534915514680000016571782381191600826_"  style="overflow:visible;"/>
								</clipPath>
								
									<ellipse transform="matrix(0.3277 -0.9448 0.9448 0.3277 229.9985 198.5318)" style="clip-path:url(#SVGID_00000124160739773549790730000007460138562990718874_);fill:#F9F9F9;" cx="254.5" cy="-62.34" rx="11.9" ry="50.1"/>
							</g>
							<g>
								<defs>
									
										<ellipse id="SVGID_00000063598092810091074580000006735363199822729650_" transform="matrix(0.6192 -0.7852 0.7852 0.6192 145.8764 176.0931)" cx="254.5" cy="-62.36" rx="54.65" ry="12.99"/>
								</defs>
								<clipPath id="SVGID_00000091720683255041856990000015974599767568576149_">
									<use xlink:href="#SVGID_00000063598092810091074580000006735363199822729650_"  style="overflow:visible;"/>
								</clipPath>
								
									<ellipse transform="matrix(0.3277 -0.9448 0.9448 0.3277 229.9985 198.5318)" style="clip-path:url(#SVGID_00000091720683255041856990000015974599767568576149_);fill:#F8F8F8;" cx="254.5" cy="-62.34" rx="11.73" ry="49.34"/>
							</g>
							<g>
								<defs>
									
										<ellipse id="SVGID_00000154426685433084273200000012838181053070677126_" transform="matrix(0.6192 -0.7852 0.7852 0.6192 145.8764 176.0931)" cx="254.5" cy="-62.36" rx="54.65" ry="12.99"/>
								</defs>
								<clipPath id="SVGID_00000086686229043364538970000018063354507791039360_">
									<use xlink:href="#SVGID_00000154426685433084273200000012838181053070677126_"  style="overflow:visible;"/>
								</clipPath>
								
									<ellipse transform="matrix(0.3277 -0.9448 0.9448 0.3277 229.9985 198.5318)" style="clip-path:url(#SVGID_00000086686229043364538970000018063354507791039360_);fill:#F7F7F7;" cx="254.5" cy="-62.34" rx="11.55" ry="48.58"/>
							</g>
							<g>
								<defs>
									
										<ellipse id="SVGID_00000093877324004841316440000015008893202454472833_" transform="matrix(0.6192 -0.7852 0.7852 0.6192 145.8765 176.0932)" cx="254.5" cy="-62.36" rx="54.65" ry="12.99"/>
								</defs>
								<clipPath id="SVGID_00000042717871461879213670000002861794838343707320_">
									<use xlink:href="#SVGID_00000093877324004841316440000015008893202454472833_"  style="overflow:visible;"/>
								</clipPath>
								
									<ellipse transform="matrix(0.3277 -0.9448 0.9448 0.3277 229.9986 198.5319)" style="clip-path:url(#SVGID_00000042717871461879213670000002861794838343707320_);fill:#F6F6F6;" cx="254.5" cy="-62.34" rx="11.36" ry="47.82"/>
							</g>
							<g>
								<defs>
									
										<ellipse id="SVGID_00000156550643156169186600000005888800165530462880_" transform="matrix(0.6192 -0.7852 0.7852 0.6192 145.8764 176.0931)" cx="254.5" cy="-62.36" rx="54.65" ry="12.99"/>
								</defs>
								<clipPath id="SVGID_00000145772306338980569510000007160884026441743530_">
									<use xlink:href="#SVGID_00000156550643156169186600000005888800165530462880_"  style="overflow:visible;"/>
								</clipPath>
								
									<ellipse transform="matrix(0.3277 -0.9448 0.9448 0.3277 229.9985 198.5318)" style="clip-path:url(#SVGID_00000145772306338980569510000007160884026441743530_);fill:#F5F5F5;" cx="254.5" cy="-62.34" rx="11.18" ry="47.07"/>
							</g>
							<g>
								<defs>
									
										<ellipse id="SVGID_00000170968883455129080350000013091729949158567847_" transform="matrix(0.6192 -0.7852 0.7852 0.6192 145.8764 176.0931)" cx="254.5" cy="-62.36" rx="54.65" ry="12.99"/>
								</defs>
								<clipPath id="SVGID_00000009555794617754944270000002470380381406874247_">
									<use xlink:href="#SVGID_00000170968883455129080350000013091729949158567847_"  style="overflow:visible;"/>
								</clipPath>
								
									<ellipse transform="matrix(0.3277 -0.9448 0.9448 0.3277 229.9985 198.5318)" style="clip-path:url(#SVGID_00000009555794617754944270000002470380381406874247_);fill:#F4F4F4;" cx="254.5" cy="-62.34" rx="11.01" ry="46.3"/>
							</g>
							<g>
								<defs>
									
										<ellipse id="SVGID_00000090289187866127864590000014786218997116280988_" transform="matrix(0.6192 -0.7852 0.7852 0.6192 145.8764 176.0931)" cx="254.5" cy="-62.36" rx="54.65" ry="12.99"/>
								</defs>
								<clipPath id="SVGID_00000043449936015666983810000008650066011895950770_">
									<use xlink:href="#SVGID_00000090289187866127864590000014786218997116280988_"  style="overflow:visible;"/>
								</clipPath>
								
									<ellipse transform="matrix(0.3277 -0.9448 0.9448 0.3277 229.9985 198.5318)" style="clip-path:url(#SVGID_00000043449936015666983810000008650066011895950770_);fill:#F3F3F3;" cx="254.5" cy="-62.34" rx="10.82" ry="45.54"/>
							</g>
							<g>
								<defs>
									
										<ellipse id="SVGID_00000110469029342138163620000004732233707848408470_" transform="matrix(0.6192 -0.7852 0.7852 0.6192 145.8764 176.0931)" cx="254.5" cy="-62.36" rx="54.65" ry="12.99"/>
								</defs>
								<clipPath id="SVGID_00000111871620060715657080000015351959304092902820_">
									<use xlink:href="#SVGID_00000110469029342138163620000004732233707848408470_"  style="overflow:visible;"/>
								</clipPath>
								
									<ellipse transform="matrix(0.3277 -0.9448 0.9448 0.3277 229.9985 198.5318)" style="clip-path:url(#SVGID_00000111871620060715657080000015351959304092902820_);fill:#F2F2F2;" cx="254.5" cy="-62.34" rx="10.64" ry="44.79"/>
							</g>
							<g>
								<defs>
									
										<ellipse id="SVGID_00000021841570718345130830000011025173778519318145_" transform="matrix(0.6192 -0.7852 0.7852 0.6192 145.8764 176.0931)" cx="254.5" cy="-62.36" rx="54.65" ry="12.99"/>
								</defs>
								<clipPath id="SVGID_00000114783532771898937140000004152824897694434437_">
									<use xlink:href="#SVGID_00000021841570718345130830000011025173778519318145_"  style="overflow:visible;"/>
								</clipPath>
								
									<ellipse transform="matrix(0.3277 -0.9448 0.9448 0.3277 229.9985 198.5318)" style="clip-path:url(#SVGID_00000114783532771898937140000004152824897694434437_);fill:#F1F1F1;" cx="254.5" cy="-62.34" rx="10.46" ry="44.02"/>
							</g>
							<g>
								<defs>
									
										<ellipse id="SVGID_00000083077899502921968990000005057056975693921436_" transform="matrix(0.6192 -0.7852 0.7852 0.6192 145.8764 176.0931)" cx="254.5" cy="-62.36" rx="54.65" ry="12.99"/>
								</defs>
								<clipPath id="SVGID_00000022562282596729877050000012644840882145280646_">
									<use xlink:href="#SVGID_00000083077899502921968990000005057056975693921436_"  style="overflow:visible;"/>
								</clipPath>
								
									<ellipse transform="matrix(0.3277 -0.9448 0.9448 0.3277 229.9985 198.5318)" style="clip-path:url(#SVGID_00000022562282596729877050000012644840882145280646_);fill:#F0F0F0;" cx="254.5" cy="-62.34" rx="10.29" ry="43.27"/>
							</g>
							<g>
								<defs>
									
										<ellipse id="SVGID_00000079445364473820064990000004355211588925693848_" transform="matrix(0.6192 -0.7852 0.7852 0.6192 145.8764 176.0931)" cx="254.5" cy="-62.36" rx="54.65" ry="12.99"/>
								</defs>
								<clipPath id="SVGID_00000101788707764066248650000006574081306130730624_">
									<use xlink:href="#SVGID_00000079445364473820064990000004355211588925693848_"  style="overflow:visible;"/>
								</clipPath>
								
									<ellipse transform="matrix(0.3277 -0.9448 0.9448 0.3277 229.9985 198.5318)" style="clip-path:url(#SVGID_00000101788707764066248650000006574081306130730624_);fill:#EFEFEF;" cx="254.5" cy="-62.34" rx="10.1" ry="42.51"/>
							</g>
							<g>
								<defs>
									
										<ellipse id="SVGID_00000077323824132913042340000001212846438687832468_" transform="matrix(0.6192 -0.7852 0.7852 0.6192 145.8764 176.0931)" cx="254.5" cy="-62.36" rx="54.65" ry="12.99"/>
								</defs>
								<clipPath id="SVGID_00000075882918291992722230000010560998168407168425_">
									<use xlink:href="#SVGID_00000077323824132913042340000001212846438687832468_"  style="overflow:visible;"/>
								</clipPath>
								
									<ellipse transform="matrix(0.3277 -0.9448 0.9448 0.3277 229.9985 198.5318)" style="clip-path:url(#SVGID_00000075882918291992722230000010560998168407168425_);fill:#EEEEEE;" cx="254.5" cy="-62.34" rx="9.92" ry="41.76"/>
							</g>
							<g>
								<defs>
									
										<ellipse id="SVGID_00000087371340316566768900000017671210260602930073_" transform="matrix(0.6192 -0.7852 0.7852 0.6192 145.8764 176.0931)" cx="254.5" cy="-62.36" rx="54.65" ry="12.99"/>
								</defs>
								<clipPath id="SVGID_00000150094747683686830320000004178033185570874004_">
									<use xlink:href="#SVGID_00000087371340316566768900000017671210260602930073_"  style="overflow:visible;"/>
								</clipPath>
								
									<ellipse transform="matrix(0.3277 -0.9448 0.9448 0.3277 229.9985 198.5318)" style="clip-path:url(#SVGID_00000150094747683686830320000004178033185570874004_);fill:#EDEDED;" cx="254.5" cy="-62.34" rx="9.75" ry="40.99"/>
							</g>
							<g>
								<defs>
									
										<ellipse id="SVGID_00000076592517251426056190000012623276459227015095_" transform="matrix(0.6192 -0.7852 0.7852 0.6192 145.8764 176.0931)" cx="254.5" cy="-62.36" rx="54.65" ry="12.99"/>
								</defs>
								<clipPath id="SVGID_00000094603491108479583200000014360859629082015935_">
									<use xlink:href="#SVGID_00000076592517251426056190000012623276459227015095_"  style="overflow:visible;"/>
								</clipPath>
								
									<ellipse transform="matrix(0.3277 -0.9448 0.9448 0.3277 229.9985 198.5318)" style="clip-path:url(#SVGID_00000094603491108479583200000014360859629082015935_);fill:#ECECEC;" cx="254.5" cy="-62.34" rx="9.56" ry="40.23"/>
							</g>
							<g>
								<defs>
									
										<ellipse id="SVGID_00000066514109466442535870000007550888273580849584_" transform="matrix(0.6192 -0.7852 0.7852 0.6192 145.8764 176.0931)" cx="254.5" cy="-62.36" rx="54.65" ry="12.99"/>
								</defs>
								<clipPath id="SVGID_00000024717016977486064020000012821875212047978175_">
									<use xlink:href="#SVGID_00000066514109466442535870000007550888273580849584_"  style="overflow:visible;"/>
								</clipPath>
								
									<ellipse transform="matrix(0.3277 -0.9448 0.9448 0.3277 229.9985 198.5318)" style="clip-path:url(#SVGID_00000024717016977486064020000012821875212047978175_);fill:#EBEBEB;" cx="254.5" cy="-62.34" rx="9.38" ry="39.47"/>
							</g>
							<g>
								<defs>
									
										<ellipse id="SVGID_00000034075044110602067070000006848161275046018949_" transform="matrix(0.6192 -0.7852 0.7852 0.6192 145.8764 176.0931)" cx="254.5" cy="-62.36" rx="54.65" ry="12.99"/>
								</defs>
								<clipPath id="SVGID_00000001657170486837844480000015139970170903820170_">
									<use xlink:href="#SVGID_00000034075044110602067070000006848161275046018949_"  style="overflow:visible;"/>
								</clipPath>
								
									<ellipse transform="matrix(0.3277 -0.9448 0.9448 0.3277 229.9985 198.5318)" style="clip-path:url(#SVGID_00000001657170486837844480000015139970170903820170_);fill:#EAEAEA;" cx="254.5" cy="-62.34" rx="9.2" ry="38.71"/>
							</g>
							<g>
								<defs>
									
										<ellipse id="SVGID_00000095340147564980315660000010621088757933332113_" transform="matrix(0.6192 -0.7852 0.7852 0.6192 145.8764 176.0931)" cx="254.5" cy="-62.36" rx="54.65" ry="12.99"/>
								</defs>
								<clipPath id="SVGID_00000075882868257291364910000004520022766004089231_">
									<use xlink:href="#SVGID_00000095340147564980315660000010621088757933332113_"  style="overflow:visible;"/>
								</clipPath>
								
									<ellipse transform="matrix(0.3277 -0.9448 0.9448 0.3277 229.9985 198.5318)" style="clip-path:url(#SVGID_00000075882868257291364910000004520022766004089231_);fill:#E9E9E9;" cx="254.5" cy="-62.34" rx="9.03" ry="37.96"/>
							</g>
							<g>
								<defs>
									
										<ellipse id="SVGID_00000146462107639849514380000013310393623519976109_" transform="matrix(0.6192 -0.7852 0.7852 0.6192 145.8764 176.0931)" cx="254.5" cy="-62.36" rx="54.65" ry="12.99"/>
								</defs>
								<clipPath id="SVGID_00000140703084031641675780000005143522707061108110_">
									<use xlink:href="#SVGID_00000146462107639849514380000013310393623519976109_"  style="overflow:visible;"/>
								</clipPath>
								
									<ellipse transform="matrix(0.3277 -0.9448 0.9448 0.3277 229.9985 198.5318)" style="clip-path:url(#SVGID_00000140703084031641675780000005143522707061108110_);fill:#E8E8E8;" cx="254.5" cy="-62.34" rx="8.84" ry="37.19"/>
							</g>
							<g>
								<defs>
									
										<ellipse id="SVGID_00000169541371783357691020000016915839155094136473_" transform="matrix(0.6192 -0.7852 0.7852 0.6192 145.8764 176.0931)" cx="254.5" cy="-62.36" rx="54.65" ry="12.99"/>
								</defs>
								<clipPath id="SVGID_00000176739490835497525260000014231912145833444006_">
									<use xlink:href="#SVGID_00000169541371783357691020000016915839155094136473_"  style="overflow:visible;"/>
								</clipPath>
								
									<ellipse transform="matrix(0.3277 -0.9448 0.9448 0.3277 229.9985 198.5318)" style="clip-path:url(#SVGID_00000176739490835497525260000014231912145833444006_);fill:#E7E7E7;" cx="254.5" cy="-62.34" rx="8.66" ry="36.44"/>
							</g>
							<g>
								<defs>
									
										<ellipse id="SVGID_00000098914492036019551780000004711559481739612301_" transform="matrix(0.6192 -0.7852 0.7852 0.6192 145.8764 176.0931)" cx="254.5" cy="-62.36" rx="54.65" ry="12.99"/>
								</defs>
								<clipPath id="SVGID_00000106130106224384939850000016383004348670287540_">
									<use xlink:href="#SVGID_00000098914492036019551780000004711559481739612301_"  style="overflow:visible;"/>
								</clipPath>
								
									<ellipse transform="matrix(0.3277 -0.9448 0.9448 0.3277 229.9985 198.5318)" style="clip-path:url(#SVGID_00000106130106224384939850000016383004348670287540_);fill:#E6E6E6;" cx="254.5" cy="-62.34" rx="8.47" ry="35.68"/>
							</g>
							<g>
								<defs>
									
										<ellipse id="SVGID_00000028285627590294191860000015019046351250407580_" transform="matrix(0.6192 -0.7852 0.7852 0.6192 145.8764 176.0931)" cx="254.5" cy="-62.36" rx="54.65" ry="12.99"/>
								</defs>
								<clipPath id="SVGID_00000150815048092704745390000016911754825670904749_">
									<use xlink:href="#SVGID_00000028285627590294191860000015019046351250407580_"  style="overflow:visible;"/>
								</clipPath>
								
									<ellipse transform="matrix(0.3277 -0.9448 0.9448 0.3277 229.9985 198.5318)" style="clip-path:url(#SVGID_00000150815048092704745390000016911754825670904749_);fill:#E5E5E5;" cx="254.5" cy="-62.34" rx="8.3" ry="34.91"/>
							</g>
							<g>
								<defs>
									
										<ellipse id="SVGID_00000078751605652428530650000017922515502685840784_" transform="matrix(0.6192 -0.7852 0.7852 0.6192 145.8765 176.0932)" cx="254.5" cy="-62.36" rx="54.65" ry="12.99"/>
								</defs>
								<clipPath id="SVGID_00000093860644283975732880000002663945603706693029_">
									<use xlink:href="#SVGID_00000078751605652428530650000017922515502685840784_"  style="overflow:visible;"/>
								</clipPath>
								
									<ellipse transform="matrix(0.3277 -0.9448 0.9448 0.3277 229.9986 198.5319)" style="clip-path:url(#SVGID_00000093860644283975732880000002663945603706693029_);fill:#E4E4E4;" cx="254.5" cy="-62.34" rx="8.12" ry="34.16"/>
							</g>
							<g>
								<defs>
									
										<ellipse id="SVGID_00000021117041506198439150000002863373140243396480_" transform="matrix(0.6192 -0.7852 0.7852 0.6192 145.8765 176.0932)" cx="254.5" cy="-62.36" rx="54.65" ry="12.99"/>
								</defs>
								<clipPath id="SVGID_00000057849205304282878920000014860578253405215377_">
									<use xlink:href="#SVGID_00000021117041506198439150000002863373140243396480_"  style="overflow:visible;"/>
								</clipPath>
								
									<ellipse transform="matrix(0.3277 -0.9448 0.9448 0.3277 229.9986 198.5319)" style="clip-path:url(#SVGID_00000057849205304282878920000014860578253405215377_);fill:#E3E3E3;" cx="254.5" cy="-62.34" rx="7.93" ry="33.4"/>
							</g>
							<g>
								<defs>
									
										<ellipse id="SVGID_00000137843096643504528880000009058749761986802350_" transform="matrix(0.6192 -0.7852 0.7852 0.6192 145.8764 176.0931)" cx="254.5" cy="-62.36" rx="54.65" ry="12.99"/>
								</defs>
								<clipPath id="SVGID_00000146500222799491896990000000945191078164558264_">
									<use xlink:href="#SVGID_00000137843096643504528880000009058749761986802350_"  style="overflow:visible;"/>
								</clipPath>
								
									<ellipse transform="matrix(0.3277 -0.9448 0.9448 0.3277 229.9985 198.5318)" style="clip-path:url(#SVGID_00000146500222799491896990000000945191078164558264_);fill:#E2E2E2;" cx="254.5" cy="-62.34" rx="7.75" ry="32.64"/>
							</g>
							<g>
								<defs>
									
										<ellipse id="SVGID_00000181055153713499513840000015439092730111615366_" transform="matrix(0.6192 -0.7852 0.7852 0.6192 145.8764 176.0931)" cx="254.5" cy="-62.36" rx="54.65" ry="12.99"/>
								</defs>
								<clipPath id="SVGID_00000178181721244734872980000016379240532711170176_">
									<use xlink:href="#SVGID_00000181055153713499513840000015439092730111615366_"  style="overflow:visible;"/>
								</clipPath>
								
									<ellipse transform="matrix(0.3277 -0.9448 0.9448 0.3277 229.9985 198.5318)" style="clip-path:url(#SVGID_00000178181721244734872980000016379240532711170176_);fill:#E1E1E1;" cx="254.5" cy="-62.34" rx="7.58" ry="31.88"/>
							</g>
							<g>
								<defs>
									
										<ellipse id="SVGID_00000139994661762462297110000014659770395149727423_" transform="matrix(0.6192 -0.7852 0.7852 0.6192 145.8764 176.0931)" cx="254.5" cy="-62.36" rx="54.65" ry="12.99"/>
								</defs>
								<clipPath id="SVGID_00000004529448651909872860000012767351002666761641_">
									<use xlink:href="#SVGID_00000139994661762462297110000014659770395149727423_"  style="overflow:visible;"/>
								</clipPath>
								
									<ellipse transform="matrix(0.3277 -0.9448 0.9448 0.3277 229.9985 198.5318)" style="clip-path:url(#SVGID_00000004529448651909872860000012767351002666761641_);fill:#E0E0E0;" cx="254.5" cy="-62.34" rx="7.4" ry="31.13"/>
							</g>
							<g>
								<defs>
									
										<ellipse id="SVGID_00000179613268020947288630000016308184872102369441_" transform="matrix(0.6192 -0.7852 0.7852 0.6192 145.8764 176.0931)" cx="254.5" cy="-62.36" rx="54.65" ry="12.99"/>
								</defs>
								<clipPath id="SVGID_00000173129801693789631050000007168188406207777923_">
									<use xlink:href="#SVGID_00000179613268020947288630000016308184872102369441_"  style="overflow:visible;"/>
								</clipPath>
								
									<ellipse transform="matrix(0.3277 -0.9448 0.9448 0.3277 229.9985 198.5318)" style="clip-path:url(#SVGID_00000173129801693789631050000007168188406207777923_);fill:#DFDFDF;" cx="254.5" cy="-62.34" rx="7.21" ry="30.36"/>
							</g>
							<g>
								<defs>
									
										<ellipse id="SVGID_00000066499447176951060830000008286672949040609716_" transform="matrix(0.6192 -0.7852 0.7852 0.6192 145.8765 176.0932)" cx="254.5" cy="-62.36" rx="54.65" ry="12.99"/>
								</defs>
								<clipPath id="SVGID_00000101097413000054440150000013879973659268199068_">
									<use xlink:href="#SVGID_00000066499447176951060830000008286672949040609716_"  style="overflow:visible;"/>
								</clipPath>
								
									<ellipse transform="matrix(0.3277 -0.9448 0.9448 0.3277 229.9986 198.5319)" style="clip-path:url(#SVGID_00000101097413000054440150000013879973659268199068_);fill:#DEDEDE;" cx="254.5" cy="-62.34" rx="7.04" ry="29.6"/>
							</g>
							<g>
								<defs>
									
										<ellipse id="SVGID_00000057139309242163548590000011781710028990426273_" transform="matrix(0.6192 -0.7852 0.7852 0.6192 145.8765 176.0932)" cx="254.5" cy="-62.36" rx="54.65" ry="12.99"/>
								</defs>
								<clipPath id="SVGID_00000079447365681600475120000002650690821854108093_">
									<use xlink:href="#SVGID_00000057139309242163548590000011781710028990426273_"  style="overflow:visible;"/>
								</clipPath>
								
									<ellipse transform="matrix(0.3277 -0.9448 0.9448 0.3277 229.9986 198.5319)" style="clip-path:url(#SVGID_00000079447365681600475120000002650690821854108093_);fill:#DDDDDD;" cx="254.5" cy="-62.34" rx="6.86" ry="28.85"/>
							</g>
							<g>
								<defs>
									
										<ellipse id="SVGID_00000008834205071046532400000002504064773476690049_" transform="matrix(0.6192 -0.7852 0.7852 0.6192 145.8765 176.0932)" cx="254.5" cy="-62.36" rx="54.65" ry="12.99"/>
								</defs>
								<clipPath id="SVGID_00000074424496515405550100000007359061074997500602_">
									<use xlink:href="#SVGID_00000008834205071046532400000002504064773476690049_"  style="overflow:visible;"/>
								</clipPath>
								
									<ellipse transform="matrix(0.3277 -0.9448 0.9448 0.3277 229.9986 198.5319)" style="clip-path:url(#SVGID_00000074424496515405550100000007359061074997500602_);fill:#DCDCDC;" cx="254.5" cy="-62.34" rx="6.67" ry="28.08"/>
							</g>
							<g>
								<defs>
									
										<ellipse id="SVGID_00000048484075012272872370000015903073179980976269_" transform="matrix(0.6192 -0.7852 0.7852 0.6192 145.8765 176.0932)" cx="254.5" cy="-62.36" rx="54.65" ry="12.99"/>
								</defs>
								<clipPath id="SVGID_00000067924070056254029720000003708378150449779111_">
									<use xlink:href="#SVGID_00000048484075012272872370000015903073179980976269_"  style="overflow:visible;"/>
								</clipPath>
								
									<ellipse transform="matrix(0.3277 -0.9448 0.9448 0.3277 229.9986 198.5319)" style="clip-path:url(#SVGID_00000067924070056254029720000003708378150449779111_);fill:#DADBDB;" cx="254.5" cy="-62.34" rx="6.49" ry="27.33"/>
							</g>
							<g>
								<defs>
									
										<ellipse id="SVGID_00000029747404957378837540000012792327427196627607_" transform="matrix(0.6192 -0.7852 0.7852 0.6192 145.8764 176.0931)" cx="254.5" cy="-62.36" rx="54.65" ry="12.99"/>
								</defs>
								<clipPath id="SVGID_00000098914210848258732930000008839914393949758638_">
									<use xlink:href="#SVGID_00000029747404957378837540000012792327427196627607_"  style="overflow:visible;"/>
								</clipPath>
								
									<ellipse transform="matrix(0.3277 -0.9448 0.9448 0.3277 229.9985 198.5318)" style="clip-path:url(#SVGID_00000098914210848258732930000008839914393949758638_);fill:#D9DADA;" cx="254.5" cy="-62.34" rx="6.32" ry="26.57"/>
							</g>
							<g>
								<defs>
									
										<ellipse id="SVGID_00000040576967502523132670000008643595977000705442_" transform="matrix(0.6192 -0.7852 0.7852 0.6192 145.8764 176.0931)" cx="254.5" cy="-62.36" rx="54.65" ry="12.99"/>
								</defs>
								<clipPath id="SVGID_00000065796211839146921450000009345801512744100234_">
									<use xlink:href="#SVGID_00000040576967502523132670000008643595977000705442_"  style="overflow:visible;"/>
								</clipPath>
								
									<ellipse transform="matrix(0.3277 -0.9448 0.9448 0.3277 229.9985 198.5318)" style="clip-path:url(#SVGID_00000065796211839146921450000009345801512744100234_);fill:#D8D9D9;" cx="254.5" cy="-62.34" rx="6.14" ry="25.82"/>
							</g>
							<g>
								<defs>
									
										<ellipse id="SVGID_00000137838886157036396150000000976282375867245211_" transform="matrix(0.6192 -0.7852 0.7852 0.6192 145.8764 176.0931)" cx="254.5" cy="-62.36" rx="54.65" ry="12.99"/>
								</defs>
								<clipPath id="SVGID_00000080205647959045659300000011066260644278990466_">
									<use xlink:href="#SVGID_00000137838886157036396150000000976282375867245211_"  style="overflow:visible;"/>
								</clipPath>
								
									<ellipse transform="matrix(0.3277 -0.9448 0.9448 0.3277 229.9985 198.5318)" style="clip-path:url(#SVGID_00000080205647959045659300000011066260644278990466_);fill:#D7D8D8;" cx="254.5" cy="-62.34" rx="5.95" ry="25.05"/>
							</g>
							<g>
								<defs>
									
										<ellipse id="SVGID_00000096024951206443438660000006904652766900306077_" transform="matrix(0.6192 -0.7852 0.7852 0.6192 145.8765 176.0932)" cx="254.5" cy="-62.36" rx="54.65" ry="12.99"/>
								</defs>
								<clipPath id="SVGID_00000152244127750580677710000014120042998523232421_">
									<use xlink:href="#SVGID_00000096024951206443438660000006904652766900306077_"  style="overflow:visible;"/>
								</clipPath>
								
									<ellipse transform="matrix(0.3277 -0.9448 0.9448 0.3277 229.9986 198.5319)" style="clip-path:url(#SVGID_00000152244127750580677710000014120042998523232421_);fill:#D6D7D7;" cx="254.5" cy="-62.34" rx="5.77" ry="24.29"/>
							</g>
							<g>
								<defs>
									
										<ellipse id="SVGID_00000160882175208876334720000017661150182901685425_" transform="matrix(0.6192 -0.7852 0.7852 0.6192 145.8765 176.0932)" cx="254.5" cy="-62.36" rx="54.65" ry="12.99"/>
								</defs>
								<clipPath id="SVGID_00000003825231158149937070000005345747682363933364_">
									<use xlink:href="#SVGID_00000160882175208876334720000017661150182901685425_"  style="overflow:visible;"/>
								</clipPath>
								
									<ellipse transform="matrix(0.3277 -0.9448 0.9448 0.3277 229.9986 198.5319)" style="clip-path:url(#SVGID_00000003825231158149937070000005345747682363933364_);fill:#D5D6D6;" cx="254.5" cy="-62.34" rx="5.6" ry="23.53"/>
							</g>
							<g>
								<defs>
									
										<ellipse id="SVGID_00000063606370568057121420000009420247534593655445_" transform="matrix(0.6192 -0.7852 0.7852 0.6192 145.8764 176.0931)" cx="254.5" cy="-62.36" rx="54.65" ry="12.99"/>
								</defs>
								<clipPath id="SVGID_00000024692875734614532230000015721064955367361694_">
									<use xlink:href="#SVGID_00000063606370568057121420000009420247534593655445_"  style="overflow:visible;"/>
								</clipPath>
								
									<ellipse transform="matrix(0.3277 -0.9448 0.9448 0.3277 229.9985 198.5318)" style="clip-path:url(#SVGID_00000024692875734614532230000015721064955367361694_);fill:#D4D5D5;" cx="254.5" cy="-62.34" rx="5.41" ry="22.77"/>
							</g>
							<g>
								<defs>
									
										<ellipse id="SVGID_00000165220991551051085140000008504144353650269590_" transform="matrix(0.6192 -0.7852 0.7852 0.6192 145.8764 176.0931)" cx="254.5" cy="-62.36" rx="54.65" ry="12.99"/>
								</defs>
								<clipPath id="SVGID_00000102521611112528027650000006827614231558649767_">
									<use xlink:href="#SVGID_00000165220991551051085140000008504144353650269590_"  style="overflow:visible;"/>
								</clipPath>
								
									<ellipse transform="matrix(0.3277 -0.9448 0.9448 0.3277 229.9985 198.5318)" style="clip-path:url(#SVGID_00000102521611112528027650000006827614231558649767_);fill:#D3D4D4;" cx="254.5" cy="-62.34" rx="5.23" ry="22.02"/>
							</g>
							<g>
								<defs>
									
										<ellipse id="SVGID_00000057835650705884586190000018141360479421017227_" transform="matrix(0.6192 -0.7852 0.7852 0.6192 145.8764 176.0931)" cx="254.5" cy="-62.36" rx="54.65" ry="12.99"/>
								</defs>
								<clipPath id="SVGID_00000124880746861759016100000003496588895612595106_">
									<use xlink:href="#SVGID_00000057835650705884586190000018141360479421017227_"  style="overflow:visible;"/>
								</clipPath>
								
									<ellipse transform="matrix(0.3277 -0.9448 0.9448 0.3277 229.9985 198.5318)" style="clip-path:url(#SVGID_00000124880746861759016100000003496588895612595106_);fill:#D2D3D3;" cx="254.5" cy="-62.34" rx="5.04" ry="21.25"/>
							</g>
							<g>
								<defs>
									
										<ellipse id="SVGID_00000088848250184333096240000010948604997131003048_" transform="matrix(0.6192 -0.7852 0.7852 0.6192 145.8764 176.093)" cx="254.5" cy="-62.36" rx="54.65" ry="12.99"/>
								</defs>
								<clipPath id="SVGID_00000127031579156948581760000017885412520787179666_">
									<use xlink:href="#SVGID_00000088848250184333096240000010948604997131003048_"  style="overflow:visible;"/>
								</clipPath>
								
									<ellipse transform="matrix(0.3277 -0.9448 0.9448 0.3277 229.9984 198.5316)" style="clip-path:url(#SVGID_00000127031579156948581760000017885412520787179666_);fill:#D1D2D2;" cx="254.5" cy="-62.34" rx="4.87" ry="20.5"/>
							</g>
							<g>
								<defs>
									
										<ellipse id="SVGID_00000126304548880472673450000012019233932098192575_" transform="matrix(0.6192 -0.7852 0.7852 0.6192 145.8764 176.093)" cx="254.5" cy="-62.36" rx="54.65" ry="12.99"/>
								</defs>
								<clipPath id="SVGID_00000045592330122382605530000016952782040685891007_">
									<use xlink:href="#SVGID_00000126304548880472673450000012019233932098192575_"  style="overflow:visible;"/>
								</clipPath>
								
									<ellipse transform="matrix(0.3277 -0.9448 0.9448 0.3277 229.9984 198.5316)" style="clip-path:url(#SVGID_00000045592330122382605530000016952782040685891007_);fill:#D0D1D1;" cx="254.5" cy="-62.34" rx="4.69" ry="19.74"/>
							</g>
							<g>
								<defs>
									
										<ellipse id="SVGID_00000083802031132685291870000006023453286537670304_" transform="matrix(0.6192 -0.7852 0.7852 0.6192 145.8764 176.0931)" cx="254.5" cy="-62.36" rx="54.65" ry="12.99"/>
								</defs>
								<clipPath id="SVGID_00000043424096306027210580000007148332271641840771_">
									<use xlink:href="#SVGID_00000083802031132685291870000006023453286537670304_"  style="overflow:visible;"/>
								</clipPath>
								
									<ellipse transform="matrix(0.3277 -0.9448 0.9448 0.3277 229.9985 198.5318)" style="clip-path:url(#SVGID_00000043424096306027210580000007148332271641840771_);fill:#CFD0D0;" cx="254.5" cy="-62.34" rx="4.51" ry="18.97"/>
							</g>
							<g>
								<defs>
									
										<ellipse id="SVGID_00000062170571744312899850000003299743431237651370_" transform="matrix(0.6192 -0.7852 0.7852 0.6192 145.8764 176.0931)" cx="254.5" cy="-62.36" rx="54.65" ry="12.99"/>
								</defs>
								<clipPath id="SVGID_00000059993036534190437360000001048895753731587486_">
									<use xlink:href="#SVGID_00000062170571744312899850000003299743431237651370_"  style="overflow:visible;"/>
								</clipPath>
								
									<ellipse transform="matrix(0.3277 -0.9448 0.9448 0.3277 229.9985 198.5318)" style="clip-path:url(#SVGID_00000059993036534190437360000001048895753731587486_);fill:#CECFCF;" cx="254.5" cy="-62.34" rx="4.34" ry="18.22"/>
							</g>
							<g>
								<defs>
									
										<ellipse id="SVGID_00000023245262232312896920000003943087157499192997_" transform="matrix(0.6192 -0.7852 0.7852 0.6192 145.8764 176.0931)" cx="254.5" cy="-62.36" rx="54.65" ry="12.99"/>
								</defs>
								<clipPath id="SVGID_00000045581088463134092080000007307309900387813520_">
									<use xlink:href="#SVGID_00000023245262232312896920000003943087157499192997_"  style="overflow:visible;"/>
								</clipPath>
								
									<ellipse transform="matrix(0.3277 -0.9448 0.9448 0.3277 229.9985 198.5318)" style="clip-path:url(#SVGID_00000045581088463134092080000007307309900387813520_);fill:#CDCECE;" cx="254.5" cy="-62.34" rx="4.15" ry="17.46"/>
							</g>
							<g>
								<defs>
									
										<ellipse id="SVGID_00000000922058300438594770000008280603547786415772_" transform="matrix(0.6192 -0.7852 0.7852 0.6192 145.8765 176.0932)" cx="254.5" cy="-62.36" rx="54.65" ry="12.99"/>
								</defs>
								<clipPath id="SVGID_00000165919130529882688460000012184388109611661495_">
									<use xlink:href="#SVGID_00000000922058300438594770000008280603547786415772_"  style="overflow:visible;"/>
								</clipPath>
								
									<ellipse transform="matrix(0.3277 -0.9448 0.9448 0.3277 229.9986 198.5319)" style="clip-path:url(#SVGID_00000165919130529882688460000012184388109611661495_);fill:#CCCDCD;" cx="254.5" cy="-62.34" rx="3.97" ry="16.71"/>
							</g>
							<g>
								<defs>
									
										<ellipse id="SVGID_00000038371925547890779700000012490599141790050741_" transform="matrix(0.6192 -0.7852 0.7852 0.6192 145.8765 176.0932)" cx="254.5" cy="-62.36" rx="54.65" ry="12.99"/>
								</defs>
								<clipPath id="SVGID_00000117653743570879099580000010577634590759415979_">
									<use xlink:href="#SVGID_00000038371925547890779700000012490599141790050741_"  style="overflow:visible;"/>
								</clipPath>
								
									<ellipse transform="matrix(0.3277 -0.9448 0.9448 0.3277 229.9986 198.5319)" style="clip-path:url(#SVGID_00000117653743570879099580000010577634590759415979_);fill:#CBCCCC;" cx="254.5" cy="-62.34" rx="3.78" ry="15.94"/>
							</g>
							<g>
								<defs>
									
										<ellipse id="SVGID_00000132080859137748144510000009685817247561704372_" transform="matrix(0.6192 -0.7852 0.7852 0.6192 145.8764 176.0934)" cx="254.5" cy="-62.36" rx="54.65" ry="12.99"/>
								</defs>
								<clipPath id="SVGID_00000077311538838183116380000008379489809042661539_">
									<use xlink:href="#SVGID_00000132080859137748144510000009685817247561704372_"  style="overflow:visible;"/>
								</clipPath>
								
									<ellipse transform="matrix(0.3277 -0.9448 0.9448 0.3277 229.9986 198.5321)" style="clip-path:url(#SVGID_00000077311538838183116380000008379489809042661539_);fill:#CACBCB;" cx="254.5" cy="-62.34" rx="3.61" ry="15.17"/>
							</g>
							<g>
								<defs>
									
										<ellipse id="SVGID_00000000184346184996857750000009639113203113205945_" transform="matrix(0.6192 -0.7852 0.7852 0.6192 145.8764 176.093)" cx="254.5" cy="-62.36" rx="54.65" ry="12.99"/>
								</defs>
								<clipPath id="SVGID_00000010286333143154071980000006952423150940695207_">
									<use xlink:href="#SVGID_00000000184346184996857750000009639113203113205945_"  style="overflow:visible;"/>
								</clipPath>
								
									<ellipse transform="matrix(0.3277 -0.9448 0.9448 0.3277 229.9984 198.5316)" style="clip-path:url(#SVGID_00000010286333143154071980000006952423150940695207_);fill:#C9CACA;" cx="254.5" cy="-62.34" rx="3.43" ry="14.42"/>
							</g>
							<g>
								<defs>
									
										<ellipse id="SVGID_00000152255289252933515920000013745366230341467532_" transform="matrix(0.6192 -0.7852 0.7852 0.6192 145.8764 176.0928)" cx="254.5" cy="-62.36" rx="54.65" ry="12.99"/>
								</defs>
								<clipPath id="SVGID_00000104669695244755878400000015271302240959727261_">
									<use xlink:href="#SVGID_00000152255289252933515920000013745366230341467532_"  style="overflow:visible;"/>
								</clipPath>
								
									<ellipse transform="matrix(0.3277 -0.9448 0.9448 0.3277 229.9985 198.5314)" style="clip-path:url(#SVGID_00000104669695244755878400000015271302240959727261_);fill:#C8C9C9;" cx="254.5" cy="-62.34" rx="3.24" ry="13.66"/>
							</g>
							<g>
								<defs>
									
										<ellipse id="SVGID_00000068662756155426549470000003194179910120339114_" transform="matrix(0.6192 -0.7852 0.7852 0.6192 145.8764 176.0931)" cx="254.5" cy="-62.36" rx="54.65" ry="12.99"/>
								</defs>
								<clipPath id="SVGID_00000096053537106026238920000013600797406065429680_">
									<use xlink:href="#SVGID_00000068662756155426549470000003194179910120339114_"  style="overflow:visible;"/>
								</clipPath>
								
									<ellipse transform="matrix(0.3277 -0.9448 0.9448 0.3277 229.9985 198.5318)" style="clip-path:url(#SVGID_00000096053537106026238920000013600797406065429680_);fill:#C7C8C8;" cx="254.5" cy="-62.34" rx="3.06" ry="12.91"/>
							</g>
							<g>
								<defs>
									
										<ellipse id="SVGID_00000066484626410308024360000006695671964504714656_" transform="matrix(0.6192 -0.7852 0.7852 0.6192 145.8765 176.0932)" cx="254.5" cy="-62.36" rx="54.65" ry="12.99"/>
								</defs>
								<clipPath id="SVGID_00000018206361142863468520000002876398086537078180_">
									<use xlink:href="#SVGID_00000066484626410308024360000006695671964504714656_"  style="overflow:visible;"/>
								</clipPath>
								
									<ellipse transform="matrix(0.3277 -0.9448 0.9448 0.3277 229.9986 198.5319)" style="clip-path:url(#SVGID_00000018206361142863468520000002876398086537078180_);fill:#C6C7C7;" cx="254.5" cy="-62.34" rx="2.89" ry="12.14"/>
							</g>
							<g>
								<defs>
									
										<ellipse id="SVGID_00000048468090054881497810000007095848798113286306_" transform="matrix(0.6192 -0.7852 0.7852 0.6192 145.8765 176.0932)" cx="254.5" cy="-62.36" rx="54.65" ry="12.99"/>
								</defs>
								<clipPath id="SVGID_00000140015166224318750990000018237422779190840754_">
									<use xlink:href="#SVGID_00000048468090054881497810000007095848798113286306_"  style="overflow:visible;"/>
								</clipPath>
								
									<ellipse transform="matrix(0.3277 -0.9448 0.9448 0.3277 229.9986 198.5319)" style="clip-path:url(#SVGID_00000140015166224318750990000018237422779190840754_);fill:#C5C6C6;" cx="254.5" cy="-62.34" rx="2.71" ry="11.39"/>
							</g>
							<g>
								<defs>
									
										<ellipse id="SVGID_00000026851969311457645260000006377765621007997856_" transform="matrix(0.6192 -0.7852 0.7852 0.6192 145.8765 176.0932)" cx="254.5" cy="-62.36" rx="54.65" ry="12.99"/>
								</defs>
								<clipPath id="SVGID_00000092440474442544772550000015285994205100640683_">
									<use xlink:href="#SVGID_00000026851969311457645260000006377765621007997856_"  style="overflow:visible;"/>
								</clipPath>
								
									<ellipse transform="matrix(0.3277 -0.9448 0.9448 0.3277 229.9986 198.5319)" style="clip-path:url(#SVGID_00000092440474442544772550000015285994205100640683_);fill:#C4C5C5;" cx="254.5" cy="-62.34" rx="2.52" ry="10.63"/>
							</g>
							<g>
								<defs>
									
										<ellipse id="SVGID_00000077287772064129332570000013529786110963947665_" transform="matrix(0.6192 -0.7852 0.7852 0.6192 145.8765 176.0932)" cx="254.5" cy="-62.36" rx="54.65" ry="12.99"/>
								</defs>
								<clipPath id="SVGID_00000023984630832928464700000001641091452199864502_">
									<use xlink:href="#SVGID_00000077287772064129332570000013529786110963947665_"  style="overflow:visible;"/>
								</clipPath>
								
									<ellipse transform="matrix(0.3277 -0.9448 0.9448 0.3277 229.9986 198.5319)" style="clip-path:url(#SVGID_00000023984630832928464700000001641091452199864502_);fill:#C3C4C4;" cx="254.5" cy="-62.34" rx="2.35" ry="9.86"/>
							</g>
							<g>
								<defs>
									
										<ellipse id="SVGID_00000126310582254814117730000002270163121627252137_" transform="matrix(0.6192 -0.7852 0.7852 0.6192 145.8765 176.0932)" cx="254.5" cy="-62.36" rx="54.65" ry="12.99"/>
								</defs>
								<clipPath id="SVGID_00000034077953485234780540000012731969285286367619_">
									<use xlink:href="#SVGID_00000126310582254814117730000002270163121627252137_"  style="overflow:visible;"/>
								</clipPath>
								
									<ellipse transform="matrix(0.3277 -0.9448 0.9448 0.3277 229.9986 198.5319)" style="clip-path:url(#SVGID_00000034077953485234780540000012731969285286367619_);fill:#C2C3C3;" cx="254.5" cy="-62.34" rx="2.17" ry="9.11"/>
							</g>
							<g>
								<defs>
									
										<ellipse id="SVGID_00000144314028056040873960000014217840648274740628_" transform="matrix(0.3277 -0.9448 0.9448 0.3277 229.9988 198.533)" cx="254.5" cy="-62.34" rx="12.99" ry="54.65"/>
								</defs>
								<clipPath id="SVGID_00000072973256734033705170000011574684973068659608_">
									<use xlink:href="#SVGID_00000144314028056040873960000014217840648274740628_"  style="overflow:visible;"/>
								</clipPath>
								<path style="clip-path:url(#SVGID_00000072973256734033705170000011574684973068659608_);fill:#C1C2C2;" d="M262.38-59.6
									c-0.35,1.03-4.18,0.65-8.54-0.86c-4.36-1.52-7.59-3.57-7.24-4.6c0.35-1.03,4.18-0.65,8.54,0.86
									C259.48-62.7,262.73-60.63,262.38-59.6z"/>
							</g>
							<g>
								<defs>
									
										<ellipse id="SVGID_00000173122139768147187210000014222482199928854718_" transform="matrix(0.3277 -0.9448 0.9448 0.3277 229.9988 198.533)" cx="254.5" cy="-62.34" rx="12.99" ry="54.65"/>
								</defs>
								<clipPath id="SVGID_00000115472719116431723620000001026031218095030178_">
									<use xlink:href="#SVGID_00000173122139768147187210000014222482199928854718_"  style="overflow:visible;"/>
								</clipPath>
								<path style="clip-path:url(#SVGID_00000115472719116431723620000001026031218095030178_);fill:#C0C1C1;" d="M261.65-59.86
									c-0.33,0.94-3.8,0.6-7.76-0.78c-3.97-1.37-6.9-3.24-6.57-4.19c0.33-0.94,3.8-0.6,7.76,0.78
									C259.05-62.68,261.98-60.79,261.65-59.86z"/>
							</g>
							<g>
								<defs>
									
										<ellipse id="SVGID_00000137116989897977049140000015638543194826590127_" transform="matrix(0.6192 -0.7852 0.7852 0.6192 145.8764 176.0931)" cx="254.5" cy="-62.36" rx="54.65" ry="12.99"/>
								</defs>
								<clipPath id="SVGID_00000150061113089925691290000014540233462391642031_">
									<use xlink:href="#SVGID_00000137116989897977049140000015638543194826590127_"  style="overflow:visible;"/>
								</clipPath>
								
									<ellipse transform="matrix(0.3277 -0.9448 0.9448 0.3277 229.9985 198.5318)" style="clip-path:url(#SVGID_00000150061113089925691290000014540233462391642031_);fill:#BFC0C0;" cx="254.5" cy="-62.34" rx="1.63" ry="6.83"/>
							</g>
							<g>
								<defs>
									
										<ellipse id="SVGID_00000132775184039234981170000006346149868545065640_" transform="matrix(0.6192 -0.7852 0.7852 0.6192 145.8764 176.0934)" cx="254.5" cy="-62.36" rx="54.65" ry="12.99"/>
								</defs>
								<clipPath id="SVGID_00000183230746764785993240000010854548035610194856_">
									<use xlink:href="#SVGID_00000132775184039234981170000006346149868545065640_"  style="overflow:visible;"/>
								</clipPath>
								
									<ellipse transform="matrix(0.3277 -0.9448 0.9448 0.3277 229.9986 198.5321)" style="clip-path:url(#SVGID_00000183230746764785993240000010854548035610194856_);fill:#BEBFBF;" cx="254.5" cy="-62.34" rx="1.45" ry="6.08"/>
							</g>
							<g>
								<defs>
									
										<ellipse id="SVGID_00000181080799272538197590000000303979700129832380_" transform="matrix(0.3277 -0.9448 0.9448 0.3277 229.9988 198.533)" cx="254.5" cy="-62.34" rx="12.99" ry="54.65"/>
								</defs>
								<clipPath id="SVGID_00000074406046351394977950000013233017850895334581_">
									<use xlink:href="#SVGID_00000181080799272538197590000000303979700129832380_"  style="overflow:visible;"/>
								</clipPath>
								<path style="clip-path:url(#SVGID_00000074406046351394977950000013233017850895334581_);fill:#BDBEBE;" d="M259.5-60.59
									c-0.23,0.67-2.66,0.41-5.44-0.55c-2.78-0.96-4.83-2.28-4.6-2.93c0.23-0.67,2.66-0.41,5.44,0.55
									C257.67-62.58,259.73-61.26,259.5-60.59z"/>
							</g>
							<g>
								<defs>
									
										<ellipse id="SVGID_00000013886533493894845370000004513732317090665400_" transform="matrix(0.3277 -0.9448 0.9448 0.3277 229.9988 198.533)" cx="254.5" cy="-62.34" rx="12.99" ry="54.65"/>
								</defs>
								<clipPath id="SVGID_00000181801768035167131910000000469696028227672720_">
									<use xlink:href="#SVGID_00000013886533493894845370000004513732317090665400_"  style="overflow:visible;"/>
								</clipPath>
								<path style="clip-path:url(#SVGID_00000181801768035167131910000000469696028227672720_);fill:#BCBDBD;" d="M258.79-60.85
									c-0.2,0.57-2.28,0.35-4.66-0.47s-4.14-1.96-3.95-2.52c0.2-0.57,2.28-0.35,4.66,0.47C257.22-62.53,258.97-61.41,258.79-60.85
									z"/>
							</g>
							<g>
								<defs>
									
										<ellipse id="SVGID_00000048466218621511472650000017799465752154822272_" transform="matrix(0.3277 -0.9448 0.9448 0.3277 229.9988 198.533)" cx="254.5" cy="-62.34" rx="12.99" ry="54.65"/>
								</defs>
								<clipPath id="SVGID_00000128460086727182559170000003698135927888933559_">
									<use xlink:href="#SVGID_00000048466218621511472650000017799465752154822272_"  style="overflow:visible;"/>
								</clipPath>
								<path style="clip-path:url(#SVGID_00000128460086727182559170000003698135927888933559_);fill:#BBBCBC;" d="M258.07-61.1
									c-0.17,0.47-1.9,0.3-3.88-0.4c-1.98-0.68-3.46-1.63-3.29-2.1c0.17-0.47,1.9-0.3,3.88,0.4S258.22-61.57,258.07-61.1z"/>
							</g>
							<g>
								<defs>
									
										<ellipse id="SVGID_00000054253649063816071800000011101674793797628595_" transform="matrix(0.3277 -0.9448 0.9448 0.3277 229.9988 198.533)" cx="254.5" cy="-62.34" rx="12.99" ry="54.65"/>
								</defs>
								<clipPath id="SVGID_00000028322714160784142140000018101924119423881150_">
									<use xlink:href="#SVGID_00000054253649063816071800000011101674793797628595_"  style="overflow:visible;"/>
								</clipPath>
								<path style="clip-path:url(#SVGID_00000028322714160784142140000018101924119423881150_);fill:#BABBBB;" d="M257.35-61.34
									c-0.13,0.38-1.52,0.24-3.1-0.31c-1.59-0.55-2.76-1.3-2.64-1.67c0.13-0.38,1.52-0.24,3.1,0.31
									C256.3-62.48,257.49-61.73,257.35-61.34z"/>
							</g>
							<g>
								<defs>
									
										<ellipse id="SVGID_00000060745581519331218110000017427263452357390767_" transform="matrix(0.3277 -0.9448 0.9448 0.3277 229.9988 198.533)" cx="254.5" cy="-62.34" rx="12.99" ry="54.65"/>
								</defs>
								<clipPath id="SVGID_00000047742218639651734570000011854855180436896432_">
									<use xlink:href="#SVGID_00000060745581519331218110000017427263452357390767_"  style="overflow:visible;"/>
								</clipPath>
								<path style="clip-path:url(#SVGID_00000047742218639651734570000011854855180436896432_);fill:#B9BABA;" d="M256.64-61.6
									c-0.1,0.28-1.15,0.18-2.32-0.24c-1.19-0.41-2.07-0.98-1.97-1.26c0.1-0.28,1.15-0.18,2.32,0.24
									C255.84-62.43,256.74-61.88,256.64-61.6z"/>
							</g>
							<g>
								<defs>
									
										<ellipse id="SVGID_00000173882290546377263250000008028831800904491671_" transform="matrix(0.3277 -0.9448 0.9448 0.3277 229.9988 198.533)" cx="254.5" cy="-62.34" rx="12.99" ry="54.65"/>
								</defs>
								<clipPath id="SVGID_00000016768059876959398390000013518347013546933671_">
									<use xlink:href="#SVGID_00000173882290546377263250000008028831800904491671_"  style="overflow:visible;"/>
								</clipPath>
								<path style="clip-path:url(#SVGID_00000016768059876959398390000013518347013546933671_);fill:#B8B9B9;" d="M255.91-61.84
									c-0.07,0.18-0.77,0.11-1.56-0.16c-0.79-0.27-1.37-0.65-1.32-0.84c0.07-0.18,0.77-0.11,1.56,0.16
									C255.39-62.41,255.99-62.04,255.91-61.84z"/>
							</g>
							<g>
								<defs>
									
										<ellipse id="SVGID_00000035510919515352408540000018095166851774812569_" transform="matrix(0.3277 -0.9448 0.9448 0.3277 229.9988 198.533)" cx="254.5" cy="-62.34" rx="12.99" ry="54.65"/>
								</defs>
								<clipPath id="SVGID_00000057832831597329938260000000919049895713959303_">
									<use xlink:href="#SVGID_00000035510919515352408540000018095166851774812569_"  style="overflow:visible;"/>
								</clipPath>
								<path style="clip-path:url(#SVGID_00000057832831597329938260000000919049895713959303_);fill:#B7B8B8;" d="M255.21-62.09
									c-0.03,0.1-0.38,0.06-0.78-0.09c-0.4-0.14-0.69-0.33-0.65-0.43c0.03-0.1,0.38-0.06,0.78,0.09
									C254.94-62.38,255.23-62.18,255.21-62.09z"/>
							</g>
						</g>
					</g>
				</g>
				<g>
					<path class="st6" d="M214.41,208.81c4.14-8.8,7.61-17.89,10-27.27c1.19-4.69,2.15-9.44,2.79-14.23c0.16-1.19,0.3-2.39,0.44-3.6
						c0.13-1.2,0.23-2.41,0.34-3.61l0.23-3.61c0.04-1.2,0.1-2.41,0.11-3.63c0.11-4.83-0.06-9.66-0.45-14.48
						c-0.38-4.82-1.03-9.62-1.81-14.41c-1.62-9.56-3.95-19-6.6-28.35c3.26,9.17,5.95,18.56,7.81,28.14
						c0.94,4.79,1.63,9.63,2.1,14.49c0.45,4.86,0.64,9.76,0.54,14.65c-0.11,4.89-0.51,9.78-1.23,14.62
						c-0.74,4.83-1.74,9.63-3.07,14.32C222.96,191.25,219.13,200.29,214.41,208.81z"/>
				</g>
				<g>
					<path class="st6" d="M227,71.22l0.6,1.9l0.58,1.91l1.28,3.77l1.37,3.74l1.47,3.7l1.57,3.66l1.69,3.6l1.77,3.56l1.88,3.5
						l1.97,3.44l2.08,3.39l2.17,3.33c0.77,1.09,1.52,2.17,2.27,3.27l2.37,3.2l2.45,3.13l2.52,3.07l1.32,1.5l1.3,1.52l-1.4-1.42
						l-1.39-1.43l-2.69-2.95l-2.58-3.05l-2.47-3.15c-0.79-1.08-1.57-2.15-2.35-3.23l-2.24-3.32l-2.13-3.4l-2.01-3.46l-1.88-3.53
						l-1.76-3.6l-1.63-3.66l-1.5-3.71l-1.37-3.75l-1.23-3.8l-1.08-3.84l-0.48-1.94L227,71.22z"/>
				</g>
				<g>
					<path class="st6" d="M114.71,168.8c-1.79,3.44-3.43,6.94-4.9,10.51c-0.35,0.89-0.71,1.8-1.06,2.69l-0.99,2.72l-0.94,2.73
						l-0.85,2.76l-0.79,2.78l-0.71,2.81l-0.65,2.82c-0.18,0.95-0.38,1.88-0.57,2.83c-0.72,3.8-1.23,7.62-1.62,11.49
						c-0.01-3.88,0.31-7.76,0.89-11.6c0.16-0.96,0.31-1.91,0.48-2.88l0.58-2.86l0.69-2.83l0.78-2.82l0.88-2.78l0.96-2.75l1.06-2.72
						c0.38-0.89,0.77-1.79,1.16-2.68C110.74,175.47,112.58,172.04,114.71,168.8z"/>
				</g>
				<g class="st1">
					<path class="st2" d="M150.47,192.76c-0.45-0.01-0.85,0.04-1.22,0.14c0.01-0.35,0.03-0.71,0.06-1.05
						c-3.98,3.85-5.84,9.37-7.41,14.68c-8.63,28.97-13.36,59.11-14.03,89.33c3.78,0.57,7.42,0.95,11.21,1.52
						c-0.35-12.98,0.16-26.07,1.42-39.08c-0.01,16.68,1.42,33.35,4.36,49.72c3.78,0.54,5.26,0.35,9.05,0.89
						c-1.87-35.22-2.82-71.66-2.76-106.94c10.13,2.68,21.38,2.51,31.61,0.21c1.16-4.41,1.4-9.14,1.45-13.7
						C172.84,187,161.11,188.49,150.47,192.76z"/>
				</g>
				<g>
					<path class="st6" d="M117.25,224.55c-0.11,5.77,0.07,11.5,0.64,17.2c0.17,1.42,0.34,2.85,0.5,4.26l0.64,4.24
						c0.27,1.4,0.51,2.81,0.77,4.22l0.92,4.18l1.05,4.15l1.19,4.12l1.32,4.08c0.5,1.35,0.98,2.69,1.46,4.04
						c2.04,5.36,4.43,10.57,7.1,15.67c-3.24-4.77-5.96-9.89-8.25-15.22c-0.55-1.33-1.09-2.68-1.62-4.02l-1.45-4.09l-1.26-4.15
						l-1.09-4.21l-0.89-4.25c-0.24-1.43-0.5-2.85-0.72-4.28l-0.54-4.31c-0.13-1.45-0.24-2.89-0.35-4.32
						C116.33,236.07,116.48,230.26,117.25,224.55z"/>
				</g>
				<g>
					<path class="st92" d="M151.08,304.22c-1.87-35.22-2.82-71.66-2.76-106.94c10.13,2.68,21.38,2.51,31.61,0.21
						c1.16-4.41,1.4-9.14,1.45-13.7c-11.36-1.47-23.09,0.01-33.72,4.28c-1.12-0.03-1.86,0.31-2.76,0.95
						c-8.37,37.38-9.63,76.61-2.85,114.3C145.81,303.87,147.3,303.68,151.08,304.22z"/>
				</g>
				<g>
					<path class="st14" d="M146.48,187.17c-3.98,3.85-5.84,9.37-7.41,14.68c-8.63,28.97-13.36,59.11-14.03,89.33
						c3.78,0.57,7.42,0.95,11.21,1.52c-0.67-24.54,1.7-49.45,6.57-73.51C145.02,208.36,145.97,198.2,146.48,187.17z"/>
				</g>
				<g>
					<path class="st93" d="M148.57,189.43c2.79,0.18,5.57,0.38,8.35,0.45c2.78,0.09,5.55,0.07,8.32-0.04
						c2.76-0.1,5.54-0.31,8.29-0.61c0.69-0.07,1.37-0.14,2.04-0.27c0.67-0.13,1.3-0.31,1.9-0.6s1.12-0.71,1.52-1.25
						c0.4-0.52,0.67-1.19,0.65-1.9c0.07,0.34,0.07,0.71,0.01,1.06c-0.07,0.35-0.2,0.69-0.37,1.02c-0.35,0.64-0.88,1.19-1.5,1.59
						c-0.62,0.4-1.32,0.67-2.01,0.86c-0.69,0.2-1.4,0.33-2.08,0.44c-2.76,0.48-5.57,0.78-8.39,0.88c-2.81,0.11-5.62,0.03-8.43-0.24
						C154.07,190.6,151.29,190.13,148.57,189.43z"/>
				</g>
				<g>
					<path class="st9" d="M184.86,205.15c-3.05,4.38-4.49,9.85-3.98,15.15c0.51,5.3,2.95,10.4,6.77,14.13
						c3.74,3.64,8.9,6.19,10.94,10.99c0.34-2.35-0.43-5.1-1.4-7.27c1.5,2.69,3.92,4.86,6.76,6.04c-2.68-4.24-3.78-9.58-4.63-14.51
						c-0.85-4.93-1.52-9.97-3.41-14.61C194,210.44,189.55,206.9,184.86,205.15z"/>
				</g>
				<g>
					<path class="st3" d="M231.33,19.45c1.08-1.18,2.22-2.31,3.41-3.39c0.65-0.6,1.53-0.88,2.41-0.81c2.58,0.21,5.2,0.72,7.52,1.81
						c1.2,0.57,1.62,2.1,0.85,3.17c-0.52,0.75-1.37,1.2-2.24,1.53c-1.67,0.65-3.47,0.94-5.27,0.84c2.41,4.56,4.12,9.96,4.56,15.12
						c-5.5-1.7-10.47-7.08-12.4-12.79C229.53,23.03,229.99,20.92,231.33,19.45z"/>
				</g>
				<g>
					<path class="st4" d="M251.49,10.48c-0.27,0.74-0.65,1.43-1.06,2.08c-0.43,0.65-0.89,1.28-1.39,1.86
						c-0.51,0.58-1.06,1.13-1.64,1.64c-0.6,0.51-1.22,0.98-1.91,1.35c0.43-0.67,0.91-1.26,1.37-1.87c0.48-0.6,0.96-1.18,1.46-1.74
						c0.5-0.57,1.01-1.13,1.53-1.7C250.37,11.54,250.9,10.99,251.49,10.48z"/>
				</g>
				<g>
					<path class="st4" d="M245.29,26.53c0.89-0.67,1.8-1.29,2.69-1.93c0.89-0.64,1.76-1.28,2.62-1.94c0.86-0.67,1.71-1.33,2.56-2.03
						c0.85-0.69,1.69-1.4,2.56-2.1c-0.58,0.95-1.29,1.83-2.05,2.64c-0.77,0.81-1.6,1.56-2.49,2.24c-0.89,0.68-1.83,1.29-2.81,1.83
						C247.37,25.75,246.35,26.22,245.29,26.53z"/>
				</g>
				<g>
					<path class="st4" d="M246.85,32.27c0.91-0.43,1.8-0.84,2.66-1.28c0.86-0.44,1.71-0.91,2.54-1.39c0.82-0.5,1.63-1.02,2.42-1.59
						c0.79-0.55,1.57-1.15,2.38-1.74c-0.51,0.86-1.18,1.63-1.9,2.32c-0.74,0.69-1.54,1.3-2.41,1.81c-0.86,0.52-1.79,0.95-2.73,1.28
						C248.84,32,247.85,32.23,246.85,32.27z"/>
				</g>
				<g>
					<path class="st4" d="M247.43,35.61c0.79,0.41,1.6,0.64,2.42,0.74c0.82,0.1,1.64,0.09,2.45-0.01c0.82-0.11,1.64-0.3,2.47-0.51
						s1.67-0.45,2.54-0.62c-0.72,0.52-1.49,0.96-2.3,1.32c-0.81,0.35-1.69,0.64-2.59,0.75c-0.91,0.11-1.84,0.07-2.73-0.2
						C248.82,36.82,247.98,36.33,247.43,35.61z"/>
				</g>
				<g>
					<path class="st4" d="M242.65,22.17c0.52-0.3,1.05-0.57,1.54-0.86c0.5-0.3,0.98-0.62,1.39-0.99c0.82-0.72,1.45-1.7,1.53-2.71
						l0.3,0.48c-1.11-0.45-2.24-0.85-3.4-1.19c-0.58-0.17-1.16-0.33-1.74-0.47c-0.6-0.14-1.19-0.26-1.8-0.38
						c0.61-0.1,1.23-0.1,1.86-0.09c0.62,0.03,1.25,0.09,1.86,0.2c1.23,0.21,2.42,0.57,3.58,1.03l0.33,0.13l-0.03,0.34
						c-0.06,0.68-0.31,1.32-0.68,1.86c-0.35,0.54-0.82,0.99-1.35,1.36c-0.51,0.35-1.08,0.62-1.64,0.82
						C243.81,21.91,243.25,22.07,242.65,22.17z"/>
				</g>
				<g>
					<path class="st9" d="M178.61,75.53l1.76,0.88l1.7,0.99l1.64,1.08l1.59,1.16c2.07,1.62,3.97,3.46,5.64,5.5
						c1.69,2.03,3.15,4.24,4.38,6.57c1.22,2.34,2.18,4.82,2.88,7.37c0.68,2.55,1.08,5.19,1.19,7.82c0.1,2.64-0.06,5.28-0.51,7.88
						c-0.44,2.59-1.16,5.14-2.14,7.58l-0.79,1.8l-0.88,1.76l-0.98,1.7l-1.08,1.63l0.96-1.7l0.88-1.74l0.78-1.79l0.68-1.83
						c0.86-2.45,1.47-4.97,1.86-7.52c0.35-2.56,0.5-5.14,0.34-7.72c-0.14-2.58-0.54-5.13-1.2-7.62c-0.65-2.49-1.6-4.9-2.76-7.2
						c-1.16-2.31-2.56-4.48-4.15-6.52c-1.6-2.03-3.39-3.91-5.37-5.6l-1.5-1.23l-1.57-1.16l-1.63-1.08L178.61,75.53z"/>
				</g>
				<g>
					<path class="st9" d="M194.03,120.5c3.74,4.53,5.78,10.31,5.77,16.07c-0.01,5.75-2.1,11.42-5.71,15.76
						c3.36-4.53,5.06-10.2,4.76-15.73c-0.3-5.53-2.58-10.87-6.25-14.85L194.03,120.5z"/>
				</g>
				<g>
					<path class="st94" d="M188.27,129.92c-0.84,1.91-1.42,3.92-1.74,5.96c-0.33,2.05-0.37,4.12-0.18,6.18
						c0.18,2.05,0.62,4.08,1.3,6.02c0.68,1.94,1.6,3.78,2.76,5.47l-0.41-0.17c0.55-0.11,1.15,0.04,1.57,0.33
						c0.44,0.27,0.79,0.62,1.09,0.99c0.3,0.37,0.55,0.77,0.79,1.16c0.23,0.41,0.44,0.79,0.64,1.2c0.82,1.62,1.5,3.32,1.93,5.09
						s0.62,3.63,0.41,5.47c-0.21,1.84-0.81,3.64-1.8,5.21c-0.5,0.79-1.11,1.52-1.8,2.14c-0.09,0.07-0.17,0.16-0.27,0.23l-0.28,0.21
						c-0.1,0.07-0.18,0.14-0.28,0.21l-0.3,0.2c-0.1,0.06-0.2,0.13-0.28,0.18l-0.24,0.17c-0.09,0.06-0.16,0.13-0.21,0.18
						c-0.07,0.07-0.14,0.13-0.21,0.2c-0.51,0.6-0.85,1.37-1.05,2.2c-0.2,0.82-0.28,1.7-0.33,2.56c-0.03,0.86-0.01,1.76,0.06,2.64
						c0.06,0.86,0.21,1.71,0.45,2.55c0.48,1.67,1.3,3.23,2.42,4.58l-0.5,0.44l-0.35-0.38l0.57-0.18c-0.17,1.43-0.41,2.85-0.74,4.24
						c-0.33,1.4-0.74,2.78-1.26,4.11c-0.51,1.33-1.13,2.64-1.86,3.87c-0.72,1.23-1.57,2.39-2.55,3.43c0.92-1.09,1.7-2.28,2.37-3.53
						s1.23-2.55,1.69-3.9c0.45-1.35,0.81-2.71,1.09-4.09c0.28-1.39,0.48-2.79,0.6-4.19l0.07-0.72l0.5,0.54l0.35,0.38l-0.5,0.44
						c-1.2-1.39-2.11-3.02-2.65-4.77c-0.14-0.44-0.24-0.89-0.34-1.33c-0.09-0.45-0.16-0.91-0.18-1.37
						c-0.07-0.91-0.11-1.81-0.09-2.72c0.03-0.91,0.1-1.83,0.31-2.75c0.21-0.91,0.57-1.83,1.22-2.59c0.09-0.1,0.18-0.18,0.27-0.27
						s0.18-0.18,0.28-0.24l0.31-0.23l0.27-0.18l0.27-0.17c0.09-0.06,0.17-0.13,0.26-0.2l0.26-0.2c0.09-0.07,0.16-0.14,0.24-0.21
						c0.62-0.57,1.18-1.23,1.63-1.96c0.91-1.45,1.46-3.12,1.66-4.83c0.2-1.7,0.03-3.46-0.37-5.16c-0.41-1.7-1.05-3.34-1.81-4.92
						c-0.2-0.4-0.4-0.79-0.6-1.18c-0.21-0.37-0.44-0.74-0.69-1.06c-0.5-0.65-1.19-1.18-1.84-1.05l-0.27,0.06l-0.14-0.23
						c-1.18-1.77-2.08-3.7-2.75-5.71c-0.67-2.01-1.05-4.09-1.18-6.21c-0.13-2.1,0.03-4.22,0.43-6.28l0.35-1.53l0.45-1.5l0.55-1.46
						L188.27,129.92z"/>
				</g>
				<g>
					<path class="st94" d="M180.57,133.05c-0.62,2.05-0.89,4.17-0.78,6.25c0.06,1.03,0.2,2.08,0.44,3.09c0.24,1.01,0.57,2,1.01,2.93
						c0.43,0.95,0.95,1.84,1.54,2.69c0.6,0.85,1.29,1.63,2.03,2.37c1.5,1.46,3.26,2.65,5.21,3.53c-2.08-0.51-4.05-1.57-5.71-2.99
						c-0.84-0.71-1.59-1.52-2.25-2.38c-0.67-0.88-1.22-1.83-1.69-2.82c-0.44-1.01-0.79-2.05-1.01-3.13
						c-0.21-1.08-0.33-2.17-0.31-3.26C179.08,137.13,179.57,134.95,180.57,133.05z"/>
				</g>
				<g>
					<path class="st94" d="M189.41,161.03c0.74,1.12,1.28,2.37,1.64,3.66c0.38,1.29,0.6,2.64,0.67,4c0.06,1.35-0.04,2.71-0.31,4.04
						c-0.27,1.32-0.69,2.61-1.33,3.78c0.27-1.32,0.48-2.61,0.61-3.9c0.11-1.29,0.16-2.59,0.1-3.88c-0.06-1.29-0.2-2.58-0.43-3.87
						C190.12,163.58,189.79,162.32,189.41,161.03z"/>
				</g>
				<g>
					<path class="st94" d="M165.65,78.27c0.33,3.19,1.01,6.31,2.04,9.29c0.28,0.74,0.57,1.47,0.84,2.22l0.96,2.17l1.08,2.11
						l1.2,2.04l1.32,1.97l1.43,1.88l1.53,1.8c0.55,0.57,1.09,1.13,1.64,1.71c2.25,2.22,4.77,4.18,7.51,5.85
						c-2.92-1.32-5.62-3.15-8.01-5.31c-0.58-0.55-1.16-1.12-1.74-1.69l-1.62-1.8l-1.49-1.91l-1.36-2.01l-1.22-2.1l-1.08-2.17
						l-0.92-2.24c-0.27-0.77-0.52-1.53-0.77-2.3C166.06,84.69,165.58,81.48,165.65,78.27z"/>
				</g>
				<g>
					<path class="st94" d="M156.04,72.39c-2.82,0.95-5.47,2.25-7.91,3.9c-1.2,0.82-2.38,1.71-3.46,2.69
						c-1.09,0.98-2.11,2.03-3.03,3.15c-0.94,1.12-1.79,2.31-2.55,3.56c-0.78,1.25-1.43,2.55-2.03,3.88
						c-1.18,2.69-1.97,5.54-2.41,8.47c0.04-2.98,0.65-5.95,1.71-8.76c0.52-1.4,1.19-2.76,1.94-4.07c0.77-1.3,1.63-2.54,2.59-3.7
						c0.98-1.15,2.03-2.24,3.17-3.22c1.15-0.98,2.37-1.87,3.66-2.65C150.3,74.11,153.12,72.97,156.04,72.39z"/>
				</g>
			</g>
		</g>
	</g>
</g>
</svg>
