<?xml version="1.0" encoding="utf-8"?>
<!-- Generator: Adobe Illustrator 27.7.0, SVG Export Plug-In . SVG Version: 6.00 Build 0)  -->
<svg version="1.1" id="Layer_1" xmlns="http://www.w3.org/2000/svg" xmlns:xlink="http://www.w3.org/1999/xlink" x="0px" y="0px"
	 viewBox="0 0 300 380" style="enable-background:new 0 0 300 380;" xml:space="preserve">
<style type="text/css">
	.st0{clip-path:url(#SVGID_00000181780427082879287420000002101776259209424282_);}
	.st1{opacity:0.2;}
	.st2{fill:#364268;}
	.st3{opacity:0.5;}
	.st4{clip-path:url(#SVGID_00000020378670920484755260000003670699288774860968_);fill:#364268;}
	.st5{opacity:0.3;}
	.st6{clip-path:url(#SVGID_00000123412874857157417920000012762422918699760793_);fill:#364268;}
	.st7{fill:#FABCA6;}
	.st8{fill:#F69583;}
	.st9{fill:#2F2E30;}
	.st10{fill:#262627;}
	.st11{fill:#F79B89;}
	.st12{fill:#30180C;}
	.st13{fill:#F26A5B;}
	.st14{fill:#F9B29A;}
	.st15{fill:#FFFFFF;}
	.st16{fill:#414042;}
	.st17{fill:#2C2C2D;}
	.st18{fill:#FAAD5C;}
	.st19{fill:#383738;}
	.st20{fill:#1A1A1B;}
	.st21{fill:#1D1C1D;}
	.st22{fill:#231916;}
	.st23{fill:#E50027;}
	.st24{fill:#004CA0;}
	.st25{clip-path:url(#SVGID_00000078027363811466964620000006387088300164728508_);fill:#FFFFFF;}
	.st26{clip-path:url(#SVGID_00000078027363811466964620000006387088300164728508_);fill:#FEFEFE;}
	.st27{clip-path:url(#SVGID_00000078027363811466964620000006387088300164728508_);fill:#FDFDFD;}
	.st28{clip-path:url(#SVGID_00000078027363811466964620000006387088300164728508_);fill:#FCFCFC;}
	.st29{clip-path:url(#SVGID_00000078027363811466964620000006387088300164728508_);fill:#FBFBFB;}
	.st30{clip-path:url(#SVGID_00000078027363811466964620000006387088300164728508_);fill:#FAFAFA;}
	.st31{clip-path:url(#SVGID_00000078027363811466964620000006387088300164728508_);fill:#F9F9F9;}
	.st32{clip-path:url(#SVGID_00000078027363811466964620000006387088300164728508_);fill:#F8F8F8;}
	.st33{clip-path:url(#SVGID_00000078027363811466964620000006387088300164728508_);fill:#F7F7F7;}
	.st34{clip-path:url(#SVGID_00000078027363811466964620000006387088300164728508_);fill:#F6F6F6;}
	.st35{clip-path:url(#SVGID_00000078027363811466964620000006387088300164728508_);fill:#F5F5F5;}
	.st36{clip-path:url(#SVGID_00000078027363811466964620000006387088300164728508_);fill:#F4F4F4;}
	.st37{clip-path:url(#SVGID_00000078027363811466964620000006387088300164728508_);fill:#F3F3F3;}
	.st38{clip-path:url(#SVGID_00000078027363811466964620000006387088300164728508_);fill:#F2F2F2;}
	.st39{clip-path:url(#SVGID_00000078027363811466964620000006387088300164728508_);fill:#F1F1F1;}
	.st40{clip-path:url(#SVGID_00000078027363811466964620000006387088300164728508_);fill:#F0F0F0;}
	.st41{clip-path:url(#SVGID_00000078027363811466964620000006387088300164728508_);fill:#EFEFEF;}
	.st42{clip-path:url(#SVGID_00000078027363811466964620000006387088300164728508_);fill:#EEEEEE;}
	.st43{clip-path:url(#SVGID_00000078027363811466964620000006387088300164728508_);fill:#EDEDED;}
	.st44{clip-path:url(#SVGID_00000078027363811466964620000006387088300164728508_);fill:#ECECEC;}
	.st45{clip-path:url(#SVGID_00000078027363811466964620000006387088300164728508_);fill:#EBEBEB;}
	.st46{clip-path:url(#SVGID_00000078027363811466964620000006387088300164728508_);fill:#EAEAEA;}
	.st47{clip-path:url(#SVGID_00000078027363811466964620000006387088300164728508_);fill:#E9E9E9;}
	.st48{clip-path:url(#SVGID_00000078027363811466964620000006387088300164728508_);fill:#E8E8E8;}
	.st49{clip-path:url(#SVGID_00000078027363811466964620000006387088300164728508_);fill:#E7E7E7;}
	.st50{clip-path:url(#SVGID_00000078027363811466964620000006387088300164728508_);fill:#E6E6E6;}
	.st51{clip-path:url(#SVGID_00000078027363811466964620000006387088300164728508_);fill:#E5E5E5;}
	.st52{clip-path:url(#SVGID_00000078027363811466964620000006387088300164728508_);fill:#E4E4E4;}
	.st53{clip-path:url(#SVGID_00000078027363811466964620000006387088300164728508_);fill:#E3E3E3;}
	.st54{clip-path:url(#SVGID_00000078027363811466964620000006387088300164728508_);fill:#E2E2E2;}
	.st55{clip-path:url(#SVGID_00000078027363811466964620000006387088300164728508_);fill:#E1E1E1;}
	.st56{clip-path:url(#SVGID_00000078027363811466964620000006387088300164728508_);fill:#E0E0E0;}
	.st57{clip-path:url(#SVGID_00000078027363811466964620000006387088300164728508_);fill:#DFDFDF;}
	.st58{clip-path:url(#SVGID_00000078027363811466964620000006387088300164728508_);fill:#DEDEDE;}
	.st59{clip-path:url(#SVGID_00000078027363811466964620000006387088300164728508_);fill:#DDDDDD;}
	.st60{clip-path:url(#SVGID_00000078027363811466964620000006387088300164728508_);fill:#DCDCDC;}
	.st61{clip-path:url(#SVGID_00000078027363811466964620000006387088300164728508_);fill:#DADBDB;}
	.st62{clip-path:url(#SVGID_00000078027363811466964620000006387088300164728508_);fill:#D9DADA;}
	.st63{clip-path:url(#SVGID_00000078027363811466964620000006387088300164728508_);fill:#D8D9D9;}
	.st64{clip-path:url(#SVGID_00000078027363811466964620000006387088300164728508_);fill:#D7D8D8;}
	.st65{clip-path:url(#SVGID_00000078027363811466964620000006387088300164728508_);fill:#D6D7D7;}
	.st66{clip-path:url(#SVGID_00000078027363811466964620000006387088300164728508_);fill:#D5D6D6;}
	.st67{clip-path:url(#SVGID_00000078027363811466964620000006387088300164728508_);fill:#D4D5D5;}
	.st68{clip-path:url(#SVGID_00000078027363811466964620000006387088300164728508_);fill:#D3D4D4;}
	.st69{clip-path:url(#SVGID_00000078027363811466964620000006387088300164728508_);fill:#D2D3D3;}
	.st70{clip-path:url(#SVGID_00000078027363811466964620000006387088300164728508_);fill:#D1D2D2;}
	.st71{clip-path:url(#SVGID_00000078027363811466964620000006387088300164728508_);fill:#D0D1D1;}
	.st72{clip-path:url(#SVGID_00000078027363811466964620000006387088300164728508_);fill:#CFD0D0;}
	.st73{clip-path:url(#SVGID_00000078027363811466964620000006387088300164728508_);fill:#CECFCF;}
	.st74{clip-path:url(#SVGID_00000078027363811466964620000006387088300164728508_);fill:#CDCECE;}
	.st75{clip-path:url(#SVGID_00000078027363811466964620000006387088300164728508_);fill:#CCCDCD;}
	.st76{clip-path:url(#SVGID_00000078027363811466964620000006387088300164728508_);fill:#CBCCCC;}
	.st77{clip-path:url(#SVGID_00000078027363811466964620000006387088300164728508_);fill:#CACBCB;}
	.st78{clip-path:url(#SVGID_00000078027363811466964620000006387088300164728508_);fill:#C9CACA;}
	.st79{clip-path:url(#SVGID_00000078027363811466964620000006387088300164728508_);fill:#C8C9C9;}
	.st80{clip-path:url(#SVGID_00000078027363811466964620000006387088300164728508_);fill:#C7C8C8;}
	.st81{clip-path:url(#SVGID_00000078027363811466964620000006387088300164728508_);fill:#C6C7C7;}
	.st82{clip-path:url(#SVGID_00000078027363811466964620000006387088300164728508_);fill:#C5C6C6;}
	.st83{clip-path:url(#SVGID_00000078027363811466964620000006387088300164728508_);fill:#C4C5C5;}
	.st84{clip-path:url(#SVGID_00000078027363811466964620000006387088300164728508_);fill:#C3C4C4;}
	.st85{clip-path:url(#SVGID_00000078027363811466964620000006387088300164728508_);fill:#C2C3C3;}
	.st86{clip-path:url(#SVGID_00000078027363811466964620000006387088300164728508_);fill:#C1C2C2;}
	.st87{clip-path:url(#SVGID_00000078027363811466964620000006387088300164728508_);fill:#C0C1C1;}
	.st88{clip-path:url(#SVGID_00000078027363811466964620000006387088300164728508_);fill:#BFC0C0;}
	.st89{clip-path:url(#SVGID_00000078027363811466964620000006387088300164728508_);fill:#BEBFBF;}
	.st90{clip-path:url(#SVGID_00000078027363811466964620000006387088300164728508_);fill:#BDBEBE;}
	.st91{clip-path:url(#SVGID_00000078027363811466964620000006387088300164728508_);fill:#BCBDBD;}
	.st92{clip-path:url(#SVGID_00000078027363811466964620000006387088300164728508_);fill:#BBBCBC;}
	.st93{clip-path:url(#SVGID_00000078027363811466964620000006387088300164728508_);fill:#BABBBB;}
	.st94{clip-path:url(#SVGID_00000078027363811466964620000006387088300164728508_);fill:#B9BABA;}
	.st95{clip-path:url(#SVGID_00000078027363811466964620000006387088300164728508_);fill:#B8B9B9;}
	.st96{clip-path:url(#SVGID_00000078027363811466964620000006387088300164728508_);fill:#B7B8B8;}
	.st97{clip-path:url(#SVGID_00000074430954242488079240000003858953961134970511_);fill:#FFFFFF;}
	.st98{clip-path:url(#SVGID_00000074430954242488079240000003858953961134970511_);fill:#FEFEFE;}
	.st99{clip-path:url(#SVGID_00000074430954242488079240000003858953961134970511_);fill:#FCFCFC;}
	.st100{clip-path:url(#SVGID_00000074430954242488079240000003858953961134970511_);fill:#FBFBFB;}
	.st101{clip-path:url(#SVGID_00000074430954242488079240000003858953961134970511_);fill:#F9F9F9;}
	.st102{clip-path:url(#SVGID_00000074430954242488079240000003858953961134970511_);fill:#F8F8F8;}
	.st103{clip-path:url(#SVGID_00000074430954242488079240000003858953961134970511_);fill:#F6F6F6;}
	.st104{clip-path:url(#SVGID_00000074430954242488079240000003858953961134970511_);fill:#F5F5F5;}
	.st105{clip-path:url(#SVGID_00000074430954242488079240000003858953961134970511_);fill:#F4F4F4;}
	.st106{clip-path:url(#SVGID_00000074430954242488079240000003858953961134970511_);fill:#F2F2F2;}
	.st107{clip-path:url(#SVGID_00000074430954242488079240000003858953961134970511_);fill:#F1F1F1;}
	.st108{clip-path:url(#SVGID_00000074430954242488079240000003858953961134970511_);fill:#EFEFEF;}
	.st109{clip-path:url(#SVGID_00000074430954242488079240000003858953961134970511_);fill:#EEEEEE;}
	.st110{clip-path:url(#SVGID_00000074430954242488079240000003858953961134970511_);fill:#EDEDED;}
	.st111{clip-path:url(#SVGID_00000074430954242488079240000003858953961134970511_);fill:#EBEBEB;}
	.st112{clip-path:url(#SVGID_00000074430954242488079240000003858953961134970511_);fill:#EAEAEA;}
	.st113{clip-path:url(#SVGID_00000074430954242488079240000003858953961134970511_);fill:#E9E9E9;}
	.st114{clip-path:url(#SVGID_00000074430954242488079240000003858953961134970511_);fill:#E7E7E7;}
	.st115{clip-path:url(#SVGID_00000074430954242488079240000003858953961134970511_);fill:#E6E6E6;}
	.st116{clip-path:url(#SVGID_00000074430954242488079240000003858953961134970511_);fill:#E5E5E5;}
	.st117{clip-path:url(#SVGID_00000074430954242488079240000003858953961134970511_);fill:#E3E3E3;}
	.st118{clip-path:url(#SVGID_00000074430954242488079240000003858953961134970511_);fill:#E2E2E2;}
	.st119{clip-path:url(#SVGID_00000074430954242488079240000003858953961134970511_);fill:#E1E1E1;}
	.st120{clip-path:url(#SVGID_00000074430954242488079240000003858953961134970511_);fill:#DFDFDF;}
	.st121{clip-path:url(#SVGID_00000074430954242488079240000003858953961134970511_);fill:#DEDEDE;}
	.st122{clip-path:url(#SVGID_00000074430954242488079240000003858953961134970511_);fill:#DDDDDD;}
	.st123{clip-path:url(#SVGID_00000074430954242488079240000003858953961134970511_);fill:#DCDCDC;}
	.st124{clip-path:url(#SVGID_00000074430954242488079240000003858953961134970511_);fill:#DADADA;}
	.st125{clip-path:url(#SVGID_00000074430954242488079240000003858953961134970511_);fill:#D9D9D9;}
	.st126{clip-path:url(#SVGID_00000074430954242488079240000003858953961134970511_);fill:#D8D8D8;}
	.st127{clip-path:url(#SVGID_00000074430954242488079240000003858953961134970511_);fill:#D7D7D7;}
	.st128{clip-path:url(#SVGID_00000074430954242488079240000003858953961134970511_);fill:#D5D5D5;}
	.st129{clip-path:url(#SVGID_00000074430954242488079240000003858953961134970511_);fill:#D4D4D4;}
	.st130{clip-path:url(#SVGID_00000074430954242488079240000003858953961134970511_);fill:#D3D3D3;}
	.st131{clip-path:url(#SVGID_00000074430954242488079240000003858953961134970511_);fill:#D2D2D2;}
	.st132{clip-path:url(#SVGID_00000074430954242488079240000003858953961134970511_);fill:#D1D1D1;}
	.st133{clip-path:url(#SVGID_00000074430954242488079240000003858953961134970511_);fill:#CFCFCF;}
	.st134{clip-path:url(#SVGID_00000074430954242488079240000003858953961134970511_);fill:#CECECE;}
	.st135{clip-path:url(#SVGID_00000074430954242488079240000003858953961134970511_);fill:#CDCDCD;}
	.st136{clip-path:url(#SVGID_00000074430954242488079240000003858953961134970511_);fill:#CCCCCC;}
	.st137{clip-path:url(#SVGID_00000074430954242488079240000003858953961134970511_);fill:#CBCBCB;}
	.st138{clip-path:url(#SVGID_00000074430954242488079240000003858953961134970511_);fill:#CACACA;}
	.st139{clip-path:url(#SVGID_00000074430954242488079240000003858953961134970511_);fill:#C9C9C9;}
	.st140{clip-path:url(#SVGID_00000074430954242488079240000003858953961134970511_);fill:#C7C7C7;}
	.st141{clip-path:url(#SVGID_00000074430954242488079240000003858953961134970511_);fill:#C6C6C6;}
	.st142{clip-path:url(#SVGID_00000074430954242488079240000003858953961134970511_);fill:#C5C5C5;}
	.st143{clip-path:url(#SVGID_00000074430954242488079240000003858953961134970511_);fill:#C4C4C4;}
	.st144{clip-path:url(#SVGID_00000074430954242488079240000003858953961134970511_);fill:#C3C3C3;}
	.st145{clip-path:url(#SVGID_00000074430954242488079240000003858953961134970511_);fill:#C2C2C2;}
	.st146{clip-path:url(#SVGID_00000074430954242488079240000003858953961134970511_);fill:#C1C1C1;}
	.st147{clip-path:url(#SVGID_00000074430954242488079240000003858953961134970511_);fill:#C0C0C0;}
	.st148{clip-path:url(#SVGID_00000074430954242488079240000003858953961134970511_);fill:#BFBFBF;}
	.st149{clip-path:url(#SVGID_00000074430954242488079240000003858953961134970511_);fill:#BEBEBE;}
	.st150{clip-path:url(#SVGID_00000074430954242488079240000003858953961134970511_);fill:#BDBDBD;}
	.st151{clip-path:url(#SVGID_00000074430954242488079240000003858953961134970511_);fill:#BCBCBC;}
	.st152{clip-path:url(#SVGID_00000074430954242488079240000003858953961134970511_);fill:#BBBBBB;}
	.st153{clip-path:url(#SVGID_00000074430954242488079240000003858953961134970511_);fill:#BABABA;}
	.st154{clip-path:url(#SVGID_00000074430954242488079240000003858953961134970511_);fill:#B9B9B9;}
	.st155{clip-path:url(#SVGID_00000074430954242488079240000003858953961134970511_);fill:#B8B8B8;}
	.st156{clip-path:url(#SVGID_00000074430954242488079240000003858953961134970511_);fill:#B7B7B7;}
	.st157{clip-path:url(#SVGID_00000074430954242488079240000003858953961134970511_);fill:#B6B6B6;}
	.st158{clip-path:url(#SVGID_00000074430954242488079240000003858953961134970511_);fill:#B5B5B5;}
	.st159{clip-path:url(#SVGID_00000074430954242488079240000003858953961134970511_);fill:#B4B4B4;}
	.st160{clip-path:url(#SVGID_00000074430954242488079240000003858953961134970511_);fill:#B3B3B3;}
	.st161{clip-path:url(#SVGID_00000074430954242488079240000003858953961134970511_);fill:#B2B2B2;}
	.st162{clip-path:url(#SVGID_00000074430954242488079240000003858953961134970511_);fill:#B1B1B1;}
	.st163{clip-path:url(#SVGID_00000074430954242488079240000003858953961134970511_);fill:#B0B0B0;}
	.st164{clip-path:url(#SVGID_00000074430954242488079240000003858953961134970511_);fill:#AFAFAF;}
	.st165{clip-path:url(#SVGID_00000074430954242488079240000003858953961134970511_);fill:#AEAEAE;}
	.st166{clip-path:url(#SVGID_00000074430954242488079240000003858953961134970511_);fill:#ADADAD;}
	.st167{clip-path:url(#SVGID_00000074430954242488079240000003858953961134970511_);fill:#ACACAC;}
	.st168{clip-path:url(#SVGID_00000074430954242488079240000003858953961134970511_);fill:#ABABAB;}
	.st169{clip-path:url(#SVGID_00000074430954242488079240000003858953961134970511_);fill:#AAAAAA;}
	.st170{clip-path:url(#SVGID_00000074430954242488079240000003858953961134970511_);fill:#A9A9A9;}
	.st171{clip-path:url(#SVGID_00000074430954242488079240000003858953961134970511_);fill:#A8A8A8;}
	.st172{clip-path:url(#SVGID_00000074430954242488079240000003858953961134970511_);fill:#A7A7A7;}
	.st173{clip-path:url(#SVGID_00000074430954242488079240000003858953961134970511_);fill:#A6A6A6;}
	.st174{clip-path:url(#SVGID_00000074430954242488079240000003858953961134970511_);fill:#A5A5A5;}
	.st175{clip-path:url(#SVGID_00000074430954242488079240000003858953961134970511_);fill:#A4A4A4;}
	.st176{clip-path:url(#SVGID_00000074430954242488079240000003858953961134970511_);fill:#A3A3A3;}
	.st177{clip-path:url(#SVGID_00000074430954242488079240000003858953961134970511_);fill:#A2A2A2;}
	.st178{clip-path:url(#SVGID_00000019643138769300857760000009948337472039776669_);}
	.st179{fill:#DAD8D3;}
	.st180{fill:#2D2421;}
	.st181{clip-path:url(#SVGID_00000121959983582012858210000014288076134866777535_);fill:#FFFFFF;}
	.st182{clip-path:url(#SVGID_00000121959983582012858210000014288076134866777535_);fill:#FEFEFE;}
	.st183{clip-path:url(#SVGID_00000121959983582012858210000014288076134866777535_);fill:#FDFDFD;}
	.st184{clip-path:url(#SVGID_00000121959983582012858210000014288076134866777535_);fill:#FCFCFC;}
	.st185{clip-path:url(#SVGID_00000121959983582012858210000014288076134866777535_);fill:#FBFBFB;}
	.st186{clip-path:url(#SVGID_00000121959983582012858210000014288076134866777535_);fill:#FAFAFA;}
	.st187{clip-path:url(#SVGID_00000121959983582012858210000014288076134866777535_);fill:#F9F9F9;}
	.st188{clip-path:url(#SVGID_00000121959983582012858210000014288076134866777535_);fill:#F8F8F8;}
	.st189{clip-path:url(#SVGID_00000121959983582012858210000014288076134866777535_);fill:#F7F7F7;}
	.st190{clip-path:url(#SVGID_00000121959983582012858210000014288076134866777535_);fill:#F6F6F6;}
	.st191{clip-path:url(#SVGID_00000121959983582012858210000014288076134866777535_);fill:#F5F5F5;}
	.st192{clip-path:url(#SVGID_00000121959983582012858210000014288076134866777535_);fill:#F4F4F4;}
	.st193{clip-path:url(#SVGID_00000121959983582012858210000014288076134866777535_);fill:#F3F3F3;}
	.st194{clip-path:url(#SVGID_00000121959983582012858210000014288076134866777535_);fill:#F2F2F2;}
	.st195{clip-path:url(#SVGID_00000121959983582012858210000014288076134866777535_);fill:#F1F1F1;}
	.st196{clip-path:url(#SVGID_00000121959983582012858210000014288076134866777535_);fill:#F0F0F0;}
	.st197{clip-path:url(#SVGID_00000121959983582012858210000014288076134866777535_);fill:#EFEFEF;}
	.st198{clip-path:url(#SVGID_00000121959983582012858210000014288076134866777535_);fill:#EEEEEE;}
	.st199{clip-path:url(#SVGID_00000121959983582012858210000014288076134866777535_);fill:#EDEDED;}
	.st200{clip-path:url(#SVGID_00000121959983582012858210000014288076134866777535_);fill:#ECECEC;}
	.st201{clip-path:url(#SVGID_00000121959983582012858210000014288076134866777535_);fill:#EBEBEB;}
	.st202{clip-path:url(#SVGID_00000121959983582012858210000014288076134866777535_);fill:#EAEAEA;}
	.st203{clip-path:url(#SVGID_00000121959983582012858210000014288076134866777535_);fill:#E9E9E9;}
	.st204{clip-path:url(#SVGID_00000121959983582012858210000014288076134866777535_);fill:#E8E8E8;}
	.st205{clip-path:url(#SVGID_00000121959983582012858210000014288076134866777535_);fill:#E7E7E7;}
	.st206{clip-path:url(#SVGID_00000121959983582012858210000014288076134866777535_);fill:#E6E6E6;}
	.st207{clip-path:url(#SVGID_00000121959983582012858210000014288076134866777535_);fill:#E5E5E5;}
	.st208{clip-path:url(#SVGID_00000121959983582012858210000014288076134866777535_);fill:#E4E4E4;}
	.st209{clip-path:url(#SVGID_00000121959983582012858210000014288076134866777535_);fill:#E3E3E3;}
	.st210{clip-path:url(#SVGID_00000121959983582012858210000014288076134866777535_);fill:#E2E2E2;}
	.st211{clip-path:url(#SVGID_00000121959983582012858210000014288076134866777535_);fill:#E1E1E1;}
	.st212{clip-path:url(#SVGID_00000121959983582012858210000014288076134866777535_);fill:#E0E0E0;}
	.st213{clip-path:url(#SVGID_00000121959983582012858210000014288076134866777535_);fill:#DFDFDF;}
	.st214{clip-path:url(#SVGID_00000121959983582012858210000014288076134866777535_);fill:#DEDEDE;}
	.st215{clip-path:url(#SVGID_00000121959983582012858210000014288076134866777535_);fill:#DDDDDD;}
	.st216{clip-path:url(#SVGID_00000121959983582012858210000014288076134866777535_);fill:#DCDCDC;}
	.st217{clip-path:url(#SVGID_00000121959983582012858210000014288076134866777535_);fill:#DADBDB;}
	.st218{clip-path:url(#SVGID_00000121959983582012858210000014288076134866777535_);fill:#D9DADA;}
	.st219{clip-path:url(#SVGID_00000121959983582012858210000014288076134866777535_);fill:#D8D9D9;}
	.st220{clip-path:url(#SVGID_00000121959983582012858210000014288076134866777535_);fill:#D7D8D8;}
	.st221{clip-path:url(#SVGID_00000121959983582012858210000014288076134866777535_);fill:#D6D7D7;}
	.st222{clip-path:url(#SVGID_00000121959983582012858210000014288076134866777535_);fill:#D5D6D6;}
	.st223{clip-path:url(#SVGID_00000121959983582012858210000014288076134866777535_);fill:#D4D5D5;}
	.st224{clip-path:url(#SVGID_00000121959983582012858210000014288076134866777535_);fill:#D3D4D4;}
	.st225{clip-path:url(#SVGID_00000121959983582012858210000014288076134866777535_);fill:#D2D3D3;}
	.st226{clip-path:url(#SVGID_00000121959983582012858210000014288076134866777535_);fill:#D1D2D2;}
	.st227{clip-path:url(#SVGID_00000121959983582012858210000014288076134866777535_);fill:#D0D1D1;}
	.st228{clip-path:url(#SVGID_00000121959983582012858210000014288076134866777535_);fill:#CFD0D0;}
	.st229{clip-path:url(#SVGID_00000121959983582012858210000014288076134866777535_);fill:#CECFCF;}
	.st230{clip-path:url(#SVGID_00000121959983582012858210000014288076134866777535_);fill:#CDCECE;}
	.st231{clip-path:url(#SVGID_00000121959983582012858210000014288076134866777535_);fill:#CCCDCD;}
	.st232{clip-path:url(#SVGID_00000121959983582012858210000014288076134866777535_);fill:#CBCCCC;}
	.st233{clip-path:url(#SVGID_00000121959983582012858210000014288076134866777535_);fill:#CACBCB;}
	.st234{clip-path:url(#SVGID_00000121959983582012858210000014288076134866777535_);fill:#C9CACA;}
	.st235{clip-path:url(#SVGID_00000121959983582012858210000014288076134866777535_);fill:#C8C9C9;}
	.st236{clip-path:url(#SVGID_00000121959983582012858210000014288076134866777535_);fill:#C7C8C8;}
	.st237{clip-path:url(#SVGID_00000121959983582012858210000014288076134866777535_);fill:#C6C7C7;}
	.st238{clip-path:url(#SVGID_00000121959983582012858210000014288076134866777535_);fill:#C5C6C6;}
	.st239{clip-path:url(#SVGID_00000121959983582012858210000014288076134866777535_);fill:#C4C5C5;}
	.st240{clip-path:url(#SVGID_00000121959983582012858210000014288076134866777535_);fill:#C3C4C4;}
	.st241{clip-path:url(#SVGID_00000121959983582012858210000014288076134866777535_);fill:#C2C3C3;}
	.st242{clip-path:url(#SVGID_00000121959983582012858210000014288076134866777535_);fill:#C1C2C2;}
	.st243{clip-path:url(#SVGID_00000121959983582012858210000014288076134866777535_);fill:#C0C1C1;}
	.st244{clip-path:url(#SVGID_00000121959983582012858210000014288076134866777535_);fill:#BFC0C0;}
	.st245{clip-path:url(#SVGID_00000121959983582012858210000014288076134866777535_);fill:#BEBFBF;}
	.st246{clip-path:url(#SVGID_00000121959983582012858210000014288076134866777535_);fill:#BDBEBE;}
	.st247{clip-path:url(#SVGID_00000121959983582012858210000014288076134866777535_);fill:#BCBDBD;}
	.st248{clip-path:url(#SVGID_00000121959983582012858210000014288076134866777535_);fill:#BBBCBC;}
	.st249{clip-path:url(#SVGID_00000121959983582012858210000014288076134866777535_);fill:#BABBBB;}
	.st250{clip-path:url(#SVGID_00000121959983582012858210000014288076134866777535_);fill:#B9BABA;}
	.st251{clip-path:url(#SVGID_00000121959983582012858210000014288076134866777535_);fill:#B8B9B9;}
	.st252{clip-path:url(#SVGID_00000121959983582012858210000014288076134866777535_);fill:#B7B8B8;}
	.st253{clip-path:url(#SVGID_00000053539398548768629000000002585253176644032133_);fill:#FFFFFF;}
	.st254{clip-path:url(#SVGID_00000053539398548768629000000002585253176644032133_);fill:#FEFEFE;}
	.st255{clip-path:url(#SVGID_00000053539398548768629000000002585253176644032133_);fill:#FCFCFC;}
	.st256{clip-path:url(#SVGID_00000053539398548768629000000002585253176644032133_);fill:#FBFBFB;}
	.st257{clip-path:url(#SVGID_00000053539398548768629000000002585253176644032133_);fill:#F9F9F9;}
	.st258{clip-path:url(#SVGID_00000053539398548768629000000002585253176644032133_);fill:#F8F8F8;}
	.st259{clip-path:url(#SVGID_00000053539398548768629000000002585253176644032133_);fill:#F6F6F6;}
	.st260{clip-path:url(#SVGID_00000053539398548768629000000002585253176644032133_);fill:#F5F5F5;}
	.st261{clip-path:url(#SVGID_00000053539398548768629000000002585253176644032133_);fill:#F4F4F4;}
	.st262{clip-path:url(#SVGID_00000053539398548768629000000002585253176644032133_);fill:#F2F2F2;}
	.st263{clip-path:url(#SVGID_00000053539398548768629000000002585253176644032133_);fill:#F1F1F1;}
	.st264{clip-path:url(#SVGID_00000053539398548768629000000002585253176644032133_);fill:#EFEFEF;}
	.st265{clip-path:url(#SVGID_00000053539398548768629000000002585253176644032133_);fill:#EEEEEE;}
	.st266{clip-path:url(#SVGID_00000053539398548768629000000002585253176644032133_);fill:#EDEDED;}
	.st267{clip-path:url(#SVGID_00000053539398548768629000000002585253176644032133_);fill:#EBEBEB;}
	.st268{clip-path:url(#SVGID_00000053539398548768629000000002585253176644032133_);fill:#EAEAEA;}
	.st269{clip-path:url(#SVGID_00000053539398548768629000000002585253176644032133_);fill:#E9E9E9;}
	.st270{clip-path:url(#SVGID_00000053539398548768629000000002585253176644032133_);fill:#E7E7E7;}
	.st271{clip-path:url(#SVGID_00000053539398548768629000000002585253176644032133_);fill:#E6E6E6;}
	.st272{clip-path:url(#SVGID_00000053539398548768629000000002585253176644032133_);fill:#E5E5E5;}
	.st273{clip-path:url(#SVGID_00000053539398548768629000000002585253176644032133_);fill:#E3E3E3;}
	.st274{clip-path:url(#SVGID_00000053539398548768629000000002585253176644032133_);fill:#E2E2E2;}
	.st275{clip-path:url(#SVGID_00000053539398548768629000000002585253176644032133_);fill:#E1E1E1;}
	.st276{clip-path:url(#SVGID_00000053539398548768629000000002585253176644032133_);fill:#DFDFDF;}
	.st277{clip-path:url(#SVGID_00000053539398548768629000000002585253176644032133_);fill:#DEDEDE;}
	.st278{clip-path:url(#SVGID_00000053539398548768629000000002585253176644032133_);fill:#DDDDDD;}
	.st279{clip-path:url(#SVGID_00000053539398548768629000000002585253176644032133_);fill:#DCDCDC;}
	.st280{clip-path:url(#SVGID_00000053539398548768629000000002585253176644032133_);fill:#DADADA;}
	.st281{clip-path:url(#SVGID_00000053539398548768629000000002585253176644032133_);fill:#D9D9D9;}
	.st282{clip-path:url(#SVGID_00000053539398548768629000000002585253176644032133_);fill:#D8D8D8;}
	.st283{clip-path:url(#SVGID_00000053539398548768629000000002585253176644032133_);fill:#D7D7D7;}
	.st284{clip-path:url(#SVGID_00000053539398548768629000000002585253176644032133_);fill:#D5D5D5;}
	.st285{clip-path:url(#SVGID_00000053539398548768629000000002585253176644032133_);fill:#D4D4D4;}
	.st286{clip-path:url(#SVGID_00000053539398548768629000000002585253176644032133_);fill:#D3D3D3;}
	.st287{clip-path:url(#SVGID_00000053539398548768629000000002585253176644032133_);fill:#D2D2D2;}
	.st288{clip-path:url(#SVGID_00000053539398548768629000000002585253176644032133_);fill:#D1D1D1;}
	.st289{clip-path:url(#SVGID_00000053539398548768629000000002585253176644032133_);fill:#CFCFCF;}
	.st290{clip-path:url(#SVGID_00000053539398548768629000000002585253176644032133_);fill:#CECECE;}
	.st291{clip-path:url(#SVGID_00000053539398548768629000000002585253176644032133_);fill:#CDCDCD;}
	.st292{clip-path:url(#SVGID_00000053539398548768629000000002585253176644032133_);fill:#CCCCCC;}
	.st293{clip-path:url(#SVGID_00000053539398548768629000000002585253176644032133_);fill:#CBCBCB;}
	.st294{clip-path:url(#SVGID_00000053539398548768629000000002585253176644032133_);fill:#CACACA;}
	.st295{clip-path:url(#SVGID_00000053539398548768629000000002585253176644032133_);fill:#C9C9C9;}
	.st296{clip-path:url(#SVGID_00000053539398548768629000000002585253176644032133_);fill:#C7C7C7;}
	.st297{clip-path:url(#SVGID_00000053539398548768629000000002585253176644032133_);fill:#C6C6C6;}
	.st298{clip-path:url(#SVGID_00000053539398548768629000000002585253176644032133_);fill:#C5C5C5;}
	.st299{clip-path:url(#SVGID_00000053539398548768629000000002585253176644032133_);fill:#C4C4C4;}
	.st300{clip-path:url(#SVGID_00000053539398548768629000000002585253176644032133_);fill:#C3C3C3;}
	.st301{clip-path:url(#SVGID_00000053539398548768629000000002585253176644032133_);fill:#C2C2C2;}
	.st302{clip-path:url(#SVGID_00000053539398548768629000000002585253176644032133_);fill:#C1C1C1;}
	.st303{clip-path:url(#SVGID_00000053539398548768629000000002585253176644032133_);fill:#C0C0C0;}
	.st304{clip-path:url(#SVGID_00000053539398548768629000000002585253176644032133_);fill:#BFBFBF;}
	.st305{clip-path:url(#SVGID_00000053539398548768629000000002585253176644032133_);fill:#BEBEBE;}
	.st306{clip-path:url(#SVGID_00000053539398548768629000000002585253176644032133_);fill:#BDBDBD;}
	.st307{clip-path:url(#SVGID_00000053539398548768629000000002585253176644032133_);fill:#BCBCBC;}
	.st308{clip-path:url(#SVGID_00000053539398548768629000000002585253176644032133_);fill:#BBBBBB;}
	.st309{clip-path:url(#SVGID_00000053539398548768629000000002585253176644032133_);fill:#BABABA;}
	.st310{clip-path:url(#SVGID_00000053539398548768629000000002585253176644032133_);fill:#B9B9B9;}
	.st311{clip-path:url(#SVGID_00000053539398548768629000000002585253176644032133_);fill:#B8B8B8;}
	.st312{clip-path:url(#SVGID_00000053539398548768629000000002585253176644032133_);fill:#B7B7B7;}
	.st313{clip-path:url(#SVGID_00000053539398548768629000000002585253176644032133_);fill:#B6B6B6;}
	.st314{clip-path:url(#SVGID_00000053539398548768629000000002585253176644032133_);fill:#B5B5B5;}
	.st315{clip-path:url(#SVGID_00000053539398548768629000000002585253176644032133_);fill:#B4B4B4;}
	.st316{clip-path:url(#SVGID_00000053539398548768629000000002585253176644032133_);fill:#B3B3B3;}
	.st317{clip-path:url(#SVGID_00000053539398548768629000000002585253176644032133_);fill:#B2B2B2;}
	.st318{clip-path:url(#SVGID_00000053539398548768629000000002585253176644032133_);fill:#B1B1B1;}
	.st319{clip-path:url(#SVGID_00000053539398548768629000000002585253176644032133_);fill:#B0B0B0;}
	.st320{clip-path:url(#SVGID_00000053539398548768629000000002585253176644032133_);fill:#AFAFAF;}
	.st321{clip-path:url(#SVGID_00000053539398548768629000000002585253176644032133_);fill:#AEAEAE;}
	.st322{clip-path:url(#SVGID_00000053539398548768629000000002585253176644032133_);fill:#ADADAD;}
	.st323{clip-path:url(#SVGID_00000053539398548768629000000002585253176644032133_);fill:#ACACAC;}
	.st324{clip-path:url(#SVGID_00000053539398548768629000000002585253176644032133_);fill:#ABABAB;}
	.st325{clip-path:url(#SVGID_00000053539398548768629000000002585253176644032133_);fill:#AAAAAA;}
	.st326{clip-path:url(#SVGID_00000053539398548768629000000002585253176644032133_);fill:#A9A9A9;}
	.st327{clip-path:url(#SVGID_00000053539398548768629000000002585253176644032133_);fill:#A8A8A8;}
	.st328{clip-path:url(#SVGID_00000053539398548768629000000002585253176644032133_);fill:#A7A7A7;}
	.st329{clip-path:url(#SVGID_00000053539398548768629000000002585253176644032133_);fill:#A6A6A6;}
	.st330{clip-path:url(#SVGID_00000053539398548768629000000002585253176644032133_);fill:#A5A5A5;}
	.st331{clip-path:url(#SVGID_00000053539398548768629000000002585253176644032133_);fill:#A4A4A4;}
	.st332{clip-path:url(#SVGID_00000053539398548768629000000002585253176644032133_);fill:#A3A3A3;}
	.st333{clip-path:url(#SVGID_00000053539398548768629000000002585253176644032133_);fill:#A2A2A2;}
	.st334{fill:#383839;}
	.st335{fill:#222123;}
	.st336{fill:#160C08;}
</style>
<g>
	<defs>
		<rect id="SVGID_00000023251767405911850160000011667636740080353928_" width="300" height="380"/>
	</defs>
	<clipPath id="SVGID_00000176748811980088945350000006937184211480640130_">
		<use xlink:href="#SVGID_00000023251767405911850160000011667636740080353928_"  style="overflow:visible;"/>
	</clipPath>
	<g style="clip-path:url(#SVGID_00000176748811980088945350000006937184211480640130_);">
		<g class="st1">
			<g>
				<path class="st2" d="M292,23.37c-4.19-12.9-9.32-26.64-15.29-38.83c-5.72-11.7-5.79-23.33-10.05-36.47
					c-40.24,4.64-58.07,39.47-86.49,39.79c1.39,4.06,2.78,8.11,4.17,12.16c-0.05,0.76,0.25,1.62,0.88,2.55
					c5.01,14.6,9.99,29.13,14.94,43.58c0.24,0.04,0.49,0.08,0.73,0.11l6.22,19.16c-1.4,0.96-2.7,1.96-3.11,3.59
					c-0.81,3.24-1.84,6.6-0.66,9.72c0.87,2.32,1.66,4.67,2.35,7.04c-0.76,0.11-1.52,0.23-2.27,0.35
					c-4.2,30.88-14.08,61.07-24.16,76.38c0.16-0.36,0.32-0.73,0.45-1.11c1.53-2.71,2.33-5.84,2.26-8.96
					c-0.08-3.05-0.99-6.07-2.59-8.66c2.47-5.52,3.03-11.89,1.47-17.74c-1.3-4.87-4.08-9.33-7.8-12.73
					c-1.95-2.97-4.95-5.72-10.04-6.9c-4.18-0.97-11.16-1.76-15.36-1.36c-5.51,0.53-9.93,2.87-13.35,6.57
					c-2.84,1.68-5.37,3.89-7.04,6.71c-2.23,3.75-2.72,8.69-0.53,12.47l1.1-0.8c0.23,0.96,0.6,1.89,1.08,2.75
					c-0.1,0.13-0.19,0.27-0.27,0.41c-0.87,1.52-0.9,3.43-0.34,5.09c0.57,1.66,1.68,3.08,2.99,4.25c0.62,0.56,1.28,1.06,1.96,1.54
					c0.01,0.03,0.01,0.06,0.02,0.09c1.18,5.15,4.36,9.36,8.56,12.52c0.44,0.33,0.85,0.65,1.24,0.96c-0.07,0.71-0.18,1.4-0.34,2.08
					c-0.46,1.96-1.09,3.9-1.81,5.79c-0.41,1.07-0.85,2.12-1.31,3.15c-0.15-0.39-0.3-0.79-0.45-1.18c-1.64,0.2-3.28,0.4-4.92,0.6
					c-9.47-0.63-14.59-1.01-29.41-5.25c-5.65-1.62-10.66-5.27-14.39-9.8c-0.26-0.31-0.46-0.66-0.67-1.01
					c-7.74-12.89-10.36-24.81-16.43-38.57c-0.17,0.03-0.33,0.06-0.49,0.09c0.11-4.36,1.98-8.7,2.47-13.06
					c-2.78,1.11-5.06,3.63-5.56,6.66c-0.81,0.9-1.58,1.96-2.39,2.85c-0.67-5.79-1.23-11.42-1.4-17.26
					c-0.61-0.33-1.59-0.14-2.02,0.43c-0.43,0.57-0.58,1.31-0.69,2.02c-0.7,4.58-0.29,9.23,0.11,13.82
					c-0.16,0.29-0.36,0.22-0.68,0.27c-0.97-4.29-2.21-8.63-3.57-12.81c-0.28-0.87-0.58-1.75-1.16-2.44
					c-0.57-0.69-1.49-1.15-2.35-0.91c-0.32,0.54-0.89,0.72-1.42,1.03c-0.44,0.25-0.96,0.3-1.4,0.54c-0.45,0.23-0.82,0.8-0.59,1.25
					c-1.11,0.14-1.65,1.71-1.68,2.87c-0.23,6.97,0.92,13.95,3.32,20.4c-0.04,0.01-0.08,0.03-0.11,0.04
					c2.29,22.74,2.14,34.12,11.62,54.67c4.3,9.32,26.4,24.72,47.31,32.06c-0.03,0.37-0.06,0.74-0.09,1.11
					c-1.09,15.16-0.76,28.65-0.23,43.87c0.85,1.15,2.07,2.25,3.49,3.26c-11.35,42.51-24.29,120.26-25.27,178.7c0,0,0,0,0,0.01
					h182.14c-18.72-62.77-40.86-124.5-69.08-183.4c0.35-0.19,0.7-0.38,1.05-0.57c-5.12-17.25-7.05-34.01-8.64-46.67
					c13.36-16.95,23.57-27.96,30.38-50.95c7.14-24.1,2.16-43.9-0.04-65.45c-1.45-0.29-2.92-0.5-4.39-0.64
					c0.48-2.32,1.36-4.64,1.65-7c0.33-2.71-0.12-5.54-1.34-7.98c0.18-2.24-1.01-4.35-2.29-6.19c-0.69-0.99-1.44-1.96-2.43-2.66
					c-0.99-0.69-2.5-1.24-3.59-0.72c-1.39,0.67-2.75,1.69-4.03,2.67l-5.43-16.73C232.04,47.99,251.9,20.53,292,23.37z
					 M182.45,172.55c-0.13-0.11-0.26-0.23-0.39-0.35c0.01-0.16,0.02-0.32,0.03-0.48C182.21,172,182.33,172.27,182.45,172.55z
					 M166.16,159.89c0.01-0.01,0.02-0.01,0.02-0.02c0.27,1.43,0.89,2.83,1.78,4c-0.23,0.26-0.46,0.52-0.69,0.78
					C166.83,163.09,166.45,161.5,166.16,159.89z"/>
			</g>
		</g>
		<g>
			<g>
				<g>
					<path class="st7" d="M67.45,117.41c-0.04-0.94-0.09-1.89-0.13-2.83c-0.22-4.73,1.93-9.42,2.46-14.14
						c-2.78,1.11-5.06,3.63-5.56,6.66c-0.81,0.9-1.58,1.96-2.39,2.85c-0.67-5.79-1.23-11.42-1.4-17.26
						c-0.61-0.33-1.59-0.14-2.02,0.43c-0.43,0.57-0.58,1.31-0.69,2.02c-0.7,4.58-0.29,9.23,0.11,13.82
						c-0.16,0.29-0.36,0.22-0.68,0.27c-0.97-4.29-2.21-8.63-3.57-12.81c-0.28-0.87-0.58-1.75-1.16-2.44s-1.49-1.15-2.35-0.91
						c-0.32,0.54-0.89,0.72-1.42,1.03c-0.44,0.25-0.96,0.3-1.4,0.54c-0.45,0.23-0.82,0.8-0.59,1.25c-1.11,0.14-1.65,1.71-1.68,2.87
						c-0.24,7.28,1.02,14.59,3.66,21.29C54.9,120.79,61.51,119.72,67.45,117.41z"/>
				</g>
				<g>
					<path class="st8" d="M49.57,93.77c0.45,1.27,0.84,2.56,1.21,3.86c0.19,0.65,0.36,1.3,0.53,1.95l0.5,1.95l0.46,1.96
						c0.14,0.66,0.3,1.31,0.42,1.97c0.27,1.32,0.52,2.64,0.7,3.98c-0.45-1.27-0.84-2.56-1.21-3.86c-0.19-0.65-0.35-1.3-0.53-1.95
						l-0.5-1.95l-0.46-1.96c-0.14-0.66-0.29-1.31-0.42-1.97C50,96.43,49.75,95.11,49.57,93.77z"/>
				</g>
				<g>
					<path class="st8" d="M46.61,95.88c0.42,1.18,0.78,2.37,1.11,3.56c0.33,1.2,0.64,2.4,0.93,3.61c0.29,1.21,0.55,2.42,0.79,3.64
						c0.24,1.22,0.45,2.44,0.6,3.68c-0.42-1.18-0.78-2.37-1.11-3.56c-0.33-1.2-0.65-2.4-0.93-3.61c-0.29-1.21-0.55-2.42-0.79-3.64
						C46.97,98.34,46.76,97.12,46.61,95.88z"/>
				</g>
				<g>
					<path class="st8" d="M61.67,110.44c-0.58,0.61-1.15,1.21-1.68,1.84c-0.53,0.62-1.04,1.27-1.51,1.93
						c-0.47,0.67-0.91,1.35-1.32,2.06c-0.41,0.71-0.79,1.44-1.18,2.19c0.12-0.84,0.38-1.65,0.71-2.43c0.34-0.78,0.76-1.52,1.25-2.21
						c0.49-0.69,1.05-1.34,1.68-1.91C60.25,111.34,60.93,110.83,61.67,110.44z"/>
				</g>
			</g>
			<g>
				<path class="st15" d="M131.62,168.24c-11.47-0.79-16.06-0.79-32.33-5.44c-5.65-1.62-10.66-5.27-14.39-9.8
					c-0.26-0.31-0.46-0.66-0.67-1.01c-7.74-12.89-10.36-24.81-16.43-38.57c-8.01,1.51-11.94,3.02-19.6,5.79
					c2.29,22.74,2.14,34.12,11.62,54.67c5.27,11.44,37.33,32.02,61.13,35.65C123.6,196.1,126.38,180.88,131.62,168.24z"/>
			</g>
			<g>
				<path class="st179" d="M84.38,157.68c-0.17,2.87-0.3,5.72-0.33,8.57c-0.02,2.85,0.05,5.7,0.22,8.54
					c0.17,2.84,0.45,5.67,0.82,8.5c0.38,2.83,0.85,5.64,1.37,8.47c-0.96-2.71-1.68-5.5-2.22-8.33c-0.55-2.83-0.9-5.7-1.08-8.57
					c-0.17-2.88-0.17-5.77,0.02-8.64C83.39,163.35,83.76,160.49,84.38,157.68z"/>
			</g>
			<g>
				<path class="st179" d="M81.47,152.78c-1.49,1.45-2.9,2.98-4.19,4.59c-0.31,0.41-0.63,0.82-0.95,1.23l-0.9,1.26
					c-0.28,0.43-0.57,0.86-0.86,1.28l-0.81,1.32l-0.77,1.34l-0.72,1.37l-0.67,1.39c-0.2,0.47-0.41,0.95-0.63,1.42
					c-0.8,1.91-1.47,3.87-2.03,5.87c0.29-2.06,0.83-4.1,1.55-6.06c0.19-0.49,0.38-0.98,0.57-1.46l0.64-1.44l0.71-1.4l0.77-1.37
					l0.84-1.33c0.3-0.43,0.59-0.87,0.89-1.29l0.95-1.25c0.33-0.4,0.67-0.8,1.01-1.2C78.26,155.47,79.79,154.03,81.47,152.78z"/>
			</g>
			<g>
				<path class="st7" d="M201.45,90.74c-0.96-4.08-2.19-8.09-3.66-12.01c-1.18-3.12-0.15-6.49,0.66-9.72
					c0.58-2.32,2.98-3.38,4.88-4.83c1.59-1.21,3.33-2.65,5.13-3.52c1.09-0.52,2.6,0.03,3.59,0.72c0.99,0.69,1.74,1.67,2.43,2.66
					c1.29,1.84,2.48,3.95,2.29,6.19c1.22,2.44,1.67,5.27,1.34,7.98c-0.46,3.84-2.51,7.58-1.83,11.39
					C211.34,90.54,206.46,90.58,201.45,90.74z"/>
			</g>
			<g>
				<path class="st9" d="M267.17,432.89H84.63c0-0.15,0.4,0.14,0.4-0.01c1.05-62.55,15.8-147.24,27.64-187.14
					c27.68,2.79,53.68,0.54,80.81-5.75C223.92,301.74,247.44,366.74,267.17,432.89z"/>
			</g>
			<g>
				<path class="st21" d="M115.51,250.93l-0.6,5.54l-0.58,5.54l-0.53,5.54l-0.48,5.55c-0.61,7.4-1.07,14.81-1.28,22.22
					c-0.21,7.42-0.2,14.84,0.17,22.24c0.35,7.4,1.03,14.79,2.13,22.12c1.08,7.33,2.61,14.59,4.6,21.72
					c1.98,7.14,4.45,14.13,7.42,20.92c1.48,3.39,3.11,6.72,4.85,9.99c1.75,3.27,3.63,6.46,5.66,9.56c2.02,3.11,4.18,6.13,6.48,9.04
					l1.75,2.16l1.81,2.12l1.85,2.08l1.9,2.03l-1.97-1.98l-1.92-2.03l-1.86-2.08l-1.81-2.13c-2.37-2.86-4.61-5.84-6.7-8.92
					c-2.09-3.08-4.03-6.26-5.84-9.52c-1.81-3.26-3.47-6.59-5.01-9.99c-1.54-3.39-2.94-6.85-4.2-10.35
					c-1.27-3.5-2.41-7.05-3.43-10.63c-2.03-7.17-3.58-14.47-4.68-21.84c-1.08-7.37-1.76-14.8-2.08-22.23
					c-0.31-7.44-0.29-14.89,0.02-22.32c0.29-7.43,0.86-14.85,1.61-22.24l0.6-5.54l0.66-5.53l0.71-5.53L115.51,250.93z"/>
			</g>
			<g>
				<path class="st21" d="M135.01,258.17c3.81,16.04,8.87,31.76,15.16,46.96l2.42,5.68l2.52,5.63l2.64,5.58l2.75,5.52
					c3.73,7.33,7.75,14.51,12.07,21.5c4.29,7.01,8.89,13.84,13.74,20.48l3.68,4.95l3.78,4.87l3.88,4.79l3.97,4.72
					c10.73,12.47,22.47,24.08,35.06,34.73c-13-10.15-25.03-21.56-35.97-33.93l-4.06-4.68l-3.95-4.78l-3.85-4.86l-3.74-4.94
					c-4.91-6.64-9.54-13.5-13.88-20.54c-4.31-7.05-8.35-14.27-12.06-21.65l-2.72-5.57l-2.6-5.63l-2.48-5.68l-2.34-5.73
					C142.95,290.24,138.2,274.35,135.01,258.17z"/>
			</g>
			<g>
				<polygon class="st21" points="171.62,249.72 172.91,252.62 174.19,255.52 176.82,261.28 179.51,267.02 182.26,272.72 
					185.08,278.39 187.97,284.03 190.92,289.63 193.94,295.2 197.02,300.73 200.18,306.22 203.39,311.68 206.67,317.09 
					210.02,322.47 213.43,327.81 216.88,333.12 218.65,335.76 220.4,338.4 218.54,335.83 216.69,333.26 213.06,328.05 
					209.53,322.79 206.09,317.46 202.73,312.08 199.45,306.65 196.27,301.16 193.16,295.63 190.15,290.04 187.22,284.41 
					184.39,278.74 181.64,273.02 178.99,267.26 176.43,261.46 173.97,255.61 172.79,252.67 				"/>
			</g>
			<g>
				<path class="st15" d="M173,163.56c10.32-14.95,20.57-45.83,24.87-77.44c7.54-1.27,15.47-1.75,22.98-0.27
					c2.2,21.55,7.17,41.35,0.04,65.45c-7.14,24.1-18.02,35.03-32.33,53.44C184.62,188.38,179.56,179.06,173,163.56z"/>
			</g>
			<g>
				<g>
					<path class="st180" d="M173.94,140.74c3.86-13.88-2.92-29.98-17.82-33.2c-0.53-0.11-1.06-0.21-1.6-0.25
						c-0.24,17.74,4.6,35.43,5.46,53.15C165.91,155.32,171.84,148.29,173.94,140.74z"/>
				</g>
				<g>
					<path class="st11" d="M130.55,134.47c0.16-1.74-1.34-3.4-3.07-3.63c-1.74-0.24-3.51,0.8-4.37,2.32
						c-0.87,1.52-0.9,3.43-0.34,5.09c0.57,1.66,1.68,3.08,2.99,4.25c1.3,1.17,2.79,2.11,4.27,3.05
						C129.84,142.01,130.23,138.01,130.55,134.47z"/>
				</g>
				<g>
					<g>
						<path class="st7" d="M160.11,156.64c-2.51,3.04-5.6,5.5-9.03,7.12c-4.9,2.32-10.46,2.91-15.69,1.72
							c-0.69,1.79-1.46,3.55-2.28,5.24c-3.33,6.9-7.81,13.08-12.9,18.51c2.24,4.32,5.84,9.43,10.08,11.18
							c7.28,3.01,15.64,1.2,22.49-2.86c6.85-4.06,11.95-10.43,17.48-16.45C164.67,174.36,161.17,165.66,160.11,156.64z"/>
					</g>
					<g>
						<path class="st11" d="M151.08,163.76c3.43-1.62,6.52-4.08,9.03-7.12c-0.69-5.91-0.35-11.96,1.15-17.69
							c-0.62-0.9-2.7-1.79-3.73-1.81c-1.03-0.03-2.03,0.29-3.01,0.63c-5.97,2.06-12.03,5.66-17.29,9.37
							c0.16,4.03,0.89,8.64-0.04,12.55c-0.46,1.96-1.09,3.9-1.81,5.79C140.61,166.66,146.17,166.07,151.08,163.76z"/>
					</g>
				</g>
				<g>
					<path class="st7" d="M127.69,128.37c-0.87,5.13-1.14,10.61,0.04,15.76c1.18,5.15,4.36,9.36,8.56,12.52
						c3.21,2.41,4.97,4.48,8.93,3.82c7.21-1.21,15.8-8.13,17.95-15.17c1.23-4.02,1.69-7.69,2.05-11.87c0.29-3.3,0.16-6.66-0.97-9.77
						c-1.56-4.31-5.96-6.8-10.45-7.72c-4.49-0.93-9.15-0.24-13.61,0.84c-3.06,0.74-6.15,1.7-8.67,3.58
						C129.01,122.23,128.21,125.27,127.69,128.37z"/>
				</g>
				<g>
					<path class="st7" d="M164.34,134.76c0.12-1.71,1.82-3.07,3.53-3.03c1.71,0.04,3.26,1.31,3.86,2.91c0.6,1.6,0.34,3.45-0.46,4.96
						c-0.8,1.51-2.1,2.71-3.54,3.64c-1.44,0.93-3.02,1.61-4.59,2.28C163.85,142.13,164.1,138.21,164.34,134.76z"/>
				</g>
				<g>
					<path class="st180" d="M152.38,108.03c-3.95-0.39-7.86-0.27-11.65,0.42c-1.89,0.35-3.75,0.84-5.55,1.47l-0.68,0.24
						c-0.22,0.08-0.44,0.17-0.67,0.26c-0.22,0.09-0.45,0.17-0.66,0.26l-0.65,0.29c-0.88,0.38-1.73,0.8-2.56,1.25
						c-0.83,0.46-1.63,0.95-2.4,1.5c-0.77,0.54-1.5,1.12-2.19,1.75c-1.38,1.25-2.57,2.72-3.45,4.34c-0.87,1.63-1.45,3.45-1.61,5.34
						c-0.08,0.94-0.06,1.9,0.07,2.85c0.06,0.48,0.17,0.95,0.3,1.42c0.07,0.23,0.14,0.47,0.22,0.7c0.09,0.23,0.18,0.46,0.27,0.69
						c-0.14-0.2-0.28-0.41-0.42-0.62c-0.13-0.21-0.25-0.43-0.37-0.65c-0.22-0.45-0.43-0.92-0.59-1.4c-0.33-0.96-0.51-1.98-0.57-3.01
						c-0.12-2.06,0.3-4.16,1.12-6.08l0.16-0.36c0.06-0.12,0.12-0.23,0.18-0.35c0.12-0.23,0.23-0.47,0.37-0.7
						c0.26-0.46,0.54-0.89,0.84-1.32c0.6-0.86,1.29-1.65,2.03-2.38c0.74-0.73,1.54-1.4,2.37-2.01c0.84-0.61,1.71-1.16,2.6-1.66
						c3.6-1.96,7.57-3.15,11.61-3.55C144.52,106.34,148.62,106.74,152.38,108.03z"/>
				</g>
				<g>
					<path class="st180" d="M143.24,112.31c-1.27,1.62-2.07,3.38-2.46,5.2c-0.38,1.81-0.34,3.67,0.18,5.35
						c0.52,1.69,1.52,3.25,2.86,4.53c1.34,1.29,2.99,2.29,4.95,2.92c-1.02,0.16-2.09,0.07-3.12-0.21c-1.03-0.28-2.02-0.74-2.92-1.35
						l-0.66-0.49l-0.62-0.54c-0.19-0.2-0.39-0.39-0.57-0.59c-0.18-0.21-0.35-0.43-0.52-0.64c-0.67-0.89-1.19-1.89-1.52-2.97
						c-0.33-1.08-0.46-2.2-0.41-3.31c0.02-0.28,0.05-0.55,0.07-0.83c0.04-0.27,0.09-0.54,0.14-0.81c0.07-0.27,0.13-0.53,0.2-0.8
						l0.27-0.77c0.4-1.01,0.96-1.95,1.66-2.76C141.47,113.43,142.3,112.75,143.24,112.31z"/>
				</g>
				<g>
					<circle class="st14" cx="158.95" cy="141.32" r="4.18"/>
				</g>
				<g>
					<ellipse class="st14" cx="130.94" cy="141.32" rx="3.35" ry="4.18"/>
				</g>
				<g>
					<path class="st13" d="M151.34,146.27c-4.56-1.05-9.35-0.95-13.86,0.29c0.39,1.64,1.19,3.29,2.34,4.47
						c1.9,1.97,4.92,2.47,7.42,1.51C149.73,151.58,151.04,149.06,151.34,146.27z"/>
				</g>
				<g>
					<path class="st8" d="M140.08,130.26c1.13,0.3,2.17,0.97,2.97,1.88c0.8,0.91,1.37,2.06,1.56,3.3c0.19,1.24-0.02,2.52-0.54,3.64
						c-0.51,1.13-1.34,2.1-2.36,2.77l0.13-0.42c0.12,0.52,0.32,1.04,0.54,1.56l0.35,0.78c0.12,0.26,0.24,0.52,0.35,0.79
						c-0.19-0.22-0.38-0.43-0.56-0.66c-0.18-0.22-0.36-0.45-0.53-0.69c-0.34-0.47-0.64-0.98-0.87-1.55l-0.09-0.22l0.22-0.2
						c0.81-0.72,1.43-1.61,1.83-2.59c0.4-0.98,0.57-2.04,0.46-3.08c-0.11-1.04-0.5-2.06-1.09-2.97c-0.3-0.46-0.65-0.88-1.04-1.28
						c-0.1-0.09-0.2-0.19-0.31-0.29l-0.32-0.27l-0.34-0.26C140.31,130.43,140.19,130.35,140.08,130.26z"/>
				</g>
				<g>
					
						<ellipse transform="matrix(0.0365 -0.9993 0.9993 0.0365 11.6261 283.464)" class="st180" cx="152.81" cy="135.7" rx="2.54" ry="2.19"/>
				</g>
				<g>
					
						<ellipse transform="matrix(0.0365 -0.9993 0.9993 0.0365 -4.3235 266.9216)" class="st180" cx="136.26" cy="135.7" rx="2.54" ry="2.19"/>
				</g>
				<g>
					<path class="st8" d="M165.83,141.32c-0.05-0.45-0.07-0.9-0.06-1.35c0.01-0.44,0.03-0.89,0.07-1.33l0.01-0.08l0.08-0.11
						c0.56-0.77,1.29-1.41,2.12-1.87c0.42-0.23,0.86-0.41,1.32-0.52c0.46-0.12,0.93-0.18,1.4-0.14c-0.42,0.21-0.81,0.42-1.19,0.64
						c-0.38,0.22-0.74,0.46-1.09,0.71c-0.7,0.5-1.35,1.06-1.93,1.69l0.09-0.19c-0.09,0.43-0.21,0.86-0.33,1.29
						C166.16,140.48,166.02,140.91,165.83,141.32z"/>
				</g>
				<g>
					<path class="st180" d="M140.28,120.07c0.24,3.87,2.16,5.49,5.15,7.96c3,2.47,7.04,3.62,10.89,3.11
						c-3.72-2.8-5.58-5.44-5.27-10.08c1.99,6.7,7.38,12.67,14.15,14.39c0.18,1.67-0.14,3.89-0.67,5.49c1.29-2.44,2.49-5.1,3.3-7.73
						c1.4-4.58,4.67-8.46,2.93-12.92c-1.74-4.46-4.08-11.72-13.3-13.87c-4.18-0.97-11.16-1.76-15.36-1.36
						c-9.23,0.89-15.4,6.83-18.91,15.81c-1.07,2.73-1.58,5.74-1.03,8.61c0.56,2.88,2.28,5.6,4.88,6.96
						c-0.1-2.15,0.19-3.02,0.55-4.71C132.92,127.61,135.39,124.91,140.28,120.07z"/>
				</g>
				<g>
					<path class="st12" d="M130.33,129.26c0.66-0.51,1.44-0.85,2.25-1.08c0.81-0.22,1.66-0.32,2.5-0.29
						c0.84,0.03,1.68,0.18,2.48,0.47c0.79,0.28,1.54,0.69,2.17,1.24c-0.8-0.23-1.57-0.43-2.35-0.56c-0.77-0.14-1.55-0.22-2.33-0.25
						c-0.78-0.03-1.56,0-2.34,0.09C131.92,128.94,131.14,129.09,130.33,129.26z"/>
				</g>
				<g>
					<path class="st12" d="M158.57,129.97c-0.79-0.24-1.56-0.46-2.33-0.61c-0.77-0.16-1.55-0.26-2.32-0.3
						c-0.78-0.04-1.56-0.03-2.34,0.04c-0.79,0.07-1.57,0.19-2.39,0.34c0.67-0.49,1.46-0.83,2.27-1.03c0.82-0.21,1.67-0.28,2.51-0.23
						c0.84,0.05,1.68,0.22,2.47,0.52C157.21,128.98,157.95,129.4,158.57,129.97z"/>
				</g>
				<g>
					<path class="st12" d="M149.18,133.91c0.37-0.76,1.04-1.37,1.82-1.77c0.78-0.4,1.69-0.59,2.58-0.51
						c0.9,0.08,1.75,0.43,2.45,0.97c0.69,0.54,1.23,1.26,1.46,2.08c-0.55-0.63-1.17-1.13-1.85-1.49c-0.67-0.37-1.4-0.6-2.14-0.67
						c-0.74-0.07-1.5,0.03-2.23,0.26C150.54,133.01,149.84,133.39,149.18,133.91z"/>
				</g>
				<g>
					<path class="st12" d="M139.48,133.91c-0.66-0.52-1.36-0.9-2.09-1.13c-0.73-0.24-1.49-0.33-2.23-0.26
						c-0.74,0.07-1.47,0.3-2.14,0.67c-0.68,0.37-1.29,0.86-1.85,1.49c0.23-0.81,0.77-1.54,1.46-2.08c0.69-0.54,1.55-0.89,2.45-0.97
						c0.9-0.08,1.8,0.11,2.58,0.51C138.44,132.53,139.11,133.15,139.48,133.91z"/>
				</g>
			</g>
			<g>
				<path class="st15" d="M189.23,192.96c2.04,12.92,3.41,34.06,9.91,55.97c-20.48,11.29-56.03,16.72-77.95,10.43
					c-4.23-1.21-11.5-4.5-14.37-8.42c-0.53-15.22-0.86-28.72,0.23-43.87c0.47-6.61,2.03-13.24,4.11-19.36
					c1.08-3.19,2.36-6.3,3.81-9.27c0.81-1.66,3.05-7.5,4.61-8.08c3.82-1.42,8.2-2.25,12.18-2.6c1.91,5.79,5.04,10.18,10.98,17.38
					c7.21-6.14,14.4-13.15,21.12-20.05c3.93,1.85,7.03,3.79,10.95,5.63C183.32,178.21,187.41,181.42,189.23,192.96z"/>
			</g>
			<g>
				<path class="st16" d="M162.48,163.8c-7.41,8.53-16.71,16.98-25.46,24.12c1.23,1.37,2.05,3.33,3.28,4.7
					c11.36-5.83,21.33-14.82,28.38-25.46C166.64,165.92,164.71,164.63,162.48,163.8z"/>
			</g>
			<g>
				<path class="st16" d="M128.21,168.1c1.81-0.22,3.61-0.44,5.42-0.66c2.53,6.88,6.29,13.28,10.81,19.05
					c-1.49,1.76-3.3,3.07-5.49,3.82C133.1,184.19,129.96,176.39,128.21,168.1z"/>
			</g>
			<g>
				<path class="st180" d="M174.38,179.59c1.53,1.57,2.29,3.84,2.03,6.01c-0.26,2.17-0.86,4.45-2.72,5.6
					c1.16,2.02,0.91,4.6-0.06,6.71s-2.77,3.8-4.35,5.5c-1.3-0.24-2.61-0.67-3.91-0.91c-1.09-1.92-1.47-4.23-1.07-6.39
					s1.25-4.26,2.96-5.65c-1.22-1.52-1.8-3.55-1.56-5.48c0.24-1.94,0.96-3.86,2.52-5.03c-1.74-1.67-2.89-3.94-3.21-6.33
					s-0.03-4.82,1.21-6.89c-3.49-1.14-5.96-5.21-5.74-8.88c3.81-4.5,7.64-8.8,11.45-13.29c3.79,5.26,4.4,12.64,1.53,18.45
					c2.35,1.93,3.21,5.37,3.08,8.41C176.42,174.46,175.91,176.95,174.38,179.59z"/>
			</g>
			<g>
				<path class="st179" d="M144.24,219.86l0.76,1.43l0.81,1.4l0.87,1.36l0.93,1.32c1.27,1.75,2.67,3.39,4.17,4.93
					c1.51,1.54,3.1,2.99,4.78,4.34c1.68,1.35,3.42,2.62,5.23,3.79c1.8,1.18,3.66,2.28,5.56,3.32c1.89,1.04,3.82,2.01,5.77,2.96
					c1.95,0.94,3.91,1.84,5.89,2.73l2.96,1.33c0.99,0.44,1.98,0.88,2.97,1.33l-1.52-0.57l-1.52-0.59l-3.02-1.19
					c-2.01-0.82-4.01-1.66-5.98-2.56c-1.98-0.89-3.93-1.86-5.85-2.87c-1.92-1.03-3.79-2.13-5.62-3.31c-1.82-1.2-3.58-2.48-5.27-3.86
					c-1.68-1.39-3.28-2.87-4.76-4.47c-1.49-1.59-2.85-3.3-4.07-5.1l-0.88-1.38l-0.82-1.41l-0.75-1.44L144.24,219.86z"/>
			</g>
			<g>
				<g>
					<g>
						
							<rect x="202.61" y="8.66" transform="matrix(0.9512 -0.3086 0.3086 0.9512 -11.1433 66.3931)" class="st21" width="3.37" height="119.52"/>
					</g>
					<g>
						<g>
							<g>
								<path class="st15" d="M286.45,23.37c-42.2-2.99-61.99,27.58-91.85,22.77c-6.62-19.3-13.28-38.72-19.99-58.29
									c28.42-0.32,46.25-35.15,86.49-39.79c4.26,13.14,4.33,24.78,10.05,36.47C277.12-3.27,282.26,10.47,286.45,23.37z"/>
							</g>
						</g>
						<g>
							<g>
								<g>
									<g>
										<g>
											<path class="st22" d="M251.56,6.7c-1.18,2.64-2.34,5.31-3.46,7.98c-0.73-0.35-1.45-0.7-2.17-1.04
												c1.1-2.69,2.23-5.38,3.38-8.04C250.05,5.96,250.8,6.33,251.56,6.7z"/>
										</g>
									</g>
									<g>
										<g>
											<path class="st22" d="M255.94-2.68c-1.28,2.61-2.52,5.26-3.73,7.93c-0.76-0.38-1.51-0.75-2.26-1.12
												c1.18-2.7,2.39-5.38,3.64-8.02C254.37-3.49,255.15-3.09,255.94-2.68z"/>
										</g>
									</g>
									<g>
										<g>
											<path class="st22" d="M255.5,8.7c-1.23,2.6-2.44,5.22-3.61,7.86c-0.74-0.37-1.48-0.74-2.21-1.1
												c1.15-2.66,2.32-5.31,3.52-7.93C253.96,7.91,254.73,8.31,255.5,8.7z"/>
										</g>
									</g>
									<g>
										<g>
											<path class="st22" d="M260.08-0.48c-1.34,2.55-2.64,5.14-3.9,7.76c-0.78-0.4-1.55-0.8-2.32-1.19
												c1.23-2.65,2.5-5.28,3.8-7.86C258.47-1.35,259.27-0.92,260.08-0.48z"/>
										</g>
									</g>
									<g>
										<g>
											<path class="st22" d="M259.54,10.83c-1.29,2.54-2.54,5.11-3.76,7.71c-0.76-0.39-1.51-0.78-2.26-1.16
												c1.19-2.62,2.41-5.23,3.67-7.8C257.97,9.99,258.75,10.41,259.54,10.83z"/>
										</g>
									</g>
									<g>
										<g>
											<path class="st22" d="M264.33,1.88c-1.4,2.47-2.76,5-4.08,7.56c-0.8-0.43-1.59-0.85-2.37-1.27
												c1.29-2.6,2.61-5.16,3.97-7.68C262.67,0.95,263.5,1.41,264.33,1.88z"/>
										</g>
									</g>
								</g>
								<g>
									<g>
										<g>
											<path class="st22" d="M198.56-10.24c-1.67,5.29-3.36,10.27-5.13,14.84c-0.59-0.38-1.18-0.76-1.76-1.15
												c1.77-4.48,3.46-9.37,5.12-14.6C197.38-10.84,197.97-10.54,198.56-10.24z"/>
										</g>
									</g>
									<g>
										<g>
											<path class="st22" d="M201.61-8.71c-1.68,5.41-3.38,10.52-5.14,15.24c-0.59-0.37-1.18-0.74-1.77-1.11
												c1.76-4.63,3.46-9.67,5.13-15.01C200.43-9.29,201.02-9,201.61-8.71z"/>
										</g>
									</g>
									<g>
										<g>
											<path class="st22" d="M204.69-7.22c-1.7,5.51-3.41,10.74-5.17,15.61c-0.59-0.35-1.18-0.71-1.77-1.07
												c1.76-4.78,3.47-9.95,5.15-15.4C203.49-7.79,204.09-7.51,204.69-7.22z"/>
										</g>
									</g>
								</g>
								<g>
									<g>
										<g>
											<path class="st22" d="M207.56,29.74c-1.96-1.23-3.92-2.5-5.88-3.81c0.25-0.61,0.51-1.22,0.76-1.85
												c1.96,1.28,3.92,2.51,5.89,3.71C208.07,28.45,207.81,29.1,207.56,29.74z"/>
										</g>
									</g>
									<g>
										<g>
											<path class="st22" d="M214.58,33.98c-1.98-1.16-3.96-2.34-5.94-3.57c0.25-0.65,0.51-1.31,0.76-1.97
												c1.98,1.19,3.97,2.35,5.96,3.48C215.09,32.61,214.84,33.3,214.58,33.98z"/>
										</g>
									</g>
									<g>
										<g>
											<path class="st22" d="M215.91,30.4c-4.32-2.41-8.62-4.94-12.93-7.68c0.25-0.64,0.5-1.28,0.75-1.93
												c4.31,2.67,8.61,5.13,12.95,7.48C216.42,28.98,216.16,29.69,215.91,30.4z"/>
										</g>
									</g>
									<g>
										<g>
											<path class="st22" d="M213.26,37.42c-4.29-2.62-8.58-5.4-12.89-8.44c0.26-0.58,0.51-1.17,0.76-1.76
												c4.31,2.95,8.59,5.66,12.89,8.21C213.77,36.1,213.51,36.76,213.26,37.42z"/>
										</g>
									</g>
								</g>
							</g>
							<g>
								<g>
									<g>
										<path class="st23" d="M219.32-12.38c-6.56,4.42-9.6,13.97-7.02,21.9c0.02,0.06,0.04,0.13,0.06,0.19
											c0.02,0.06,0.04,0.12,0.06,0.19c1.4,3.86,5.08,5.67,8.33,3.86c3.37-1.88,5.02-6.85,3.63-11.01
											c-1.39-4.16,0.26-9.33,3.8-11.51c3.56-2.2,7.71-0.48,9.22,3.73C234.43-13.64,226.19-17,219.32-12.38z"/>
									</g>
								</g>
								<g>
									<g>
										<path class="st24" d="M237.4-5.04c-1.51-4.21-5.66-5.94-9.22-3.73c-3.54,2.18-5.19,7.35-3.8,11.51
											c1.39,4.16-0.25,9.13-3.63,11.01c-3.25,1.81-6.93,0-8.33-3.86c2.75,7.87,10.25,11.6,17,7.89
											c7.07-3.89,10.86-13.79,8.11-22.41c-0.02-0.07-0.04-0.14-0.07-0.2C237.45-4.9,237.43-4.97,237.4-5.04z"/>
									</g>
								</g>
							</g>
						</g>
					</g>
				</g>
				<g class="st3">
					<g>
						<defs>
							
								<ellipse id="SVGID_00000050630177047800326600000002362701444424492691_" transform="matrix(0.3277 -0.9448 0.9448 0.3277 133.4051 211.5599)" cx="215.35" cy="12.05" rx="9.17" ry="38.57"/>
						</defs>
						<clipPath id="SVGID_00000168099461497122858210000009376817462864088970_">
							<use xlink:href="#SVGID_00000050630177047800326600000002362701444424492691_"  style="overflow:visible;"/>
						</clipPath>
						
							<rect x="177.24" y="-5.38" style="clip-path:url(#SVGID_00000168099461497122858210000009376817462864088970_);fill:#FFFFFF;" width="76.21" height="34.85"/>
						
							<ellipse transform="matrix(0.3277 -0.9448 0.9448 0.3277 133.4044 211.5596)" style="clip-path:url(#SVGID_00000168099461497122858210000009376817462864088970_);fill:#FFFFFF;" cx="215.35" cy="12.05" rx="9.17" ry="38.57"/>
						
							<ellipse transform="matrix(0.3277 -0.9448 0.9448 0.3277 133.4044 211.5596)" style="clip-path:url(#SVGID_00000168099461497122858210000009376817462864088970_);fill:#FEFEFE;" cx="215.35" cy="12.05" rx="9.04" ry="38.04"/>
						
							<ellipse transform="matrix(0.3277 -0.9448 0.9448 0.3277 133.4044 211.5596)" style="clip-path:url(#SVGID_00000168099461497122858210000009376817462864088970_);fill:#FDFDFD;" cx="215.35" cy="12.05" rx="8.91" ry="37.5"/>
						
							<ellipse transform="matrix(0.3277 -0.9448 0.9448 0.3277 133.4045 211.5596)" style="clip-path:url(#SVGID_00000168099461497122858210000009376817462864088970_);fill:#FCFCFC;" cx="215.35" cy="12.05" rx="8.79" ry="36.97"/>
						
							<ellipse transform="matrix(0.3277 -0.9448 0.9448 0.3277 133.4044 211.5596)" style="clip-path:url(#SVGID_00000168099461497122858210000009376817462864088970_);fill:#FBFBFB;" cx="215.35" cy="12.05" rx="8.66" ry="36.43"/>
						
							<ellipse transform="matrix(0.3277 -0.9448 0.9448 0.3277 133.4044 211.5596)" style="clip-path:url(#SVGID_00000168099461497122858210000009376817462864088970_);fill:#FAFAFA;" cx="215.35" cy="12.05" rx="8.53" ry="35.89"/>
						
							<ellipse transform="matrix(0.3277 -0.9448 0.9448 0.3277 133.4044 211.5596)" style="clip-path:url(#SVGID_00000168099461497122858210000009376817462864088970_);fill:#F9F9F9;" cx="215.35" cy="12.05" rx="8.4" ry="35.36"/>
						
							<ellipse transform="matrix(0.3277 -0.9448 0.9448 0.3277 133.4044 211.5596)" style="clip-path:url(#SVGID_00000168099461497122858210000009376817462864088970_);fill:#F8F8F8;" cx="215.35" cy="12.05" rx="8.28" ry="34.82"/>
						
							<ellipse transform="matrix(0.3277 -0.9448 0.9448 0.3277 133.4044 211.5596)" style="clip-path:url(#SVGID_00000168099461497122858210000009376817462864088970_);fill:#F7F7F7;" cx="215.35" cy="12.05" rx="8.15" ry="34.29"/>
						
							<ellipse transform="matrix(0.3277 -0.9448 0.9448 0.3277 133.4045 211.5596)" style="clip-path:url(#SVGID_00000168099461497122858210000009376817462864088970_);fill:#F6F6F6;" cx="215.35" cy="12.05" rx="8.02" ry="33.75"/>
						
							<ellipse transform="matrix(0.3277 -0.9448 0.9448 0.3277 133.4044 211.5596)" style="clip-path:url(#SVGID_00000168099461497122858210000009376817462864088970_);fill:#F5F5F5;" cx="215.35" cy="12.05" rx="7.89" ry="33.22"/>
						
							<ellipse transform="matrix(0.3277 -0.9448 0.9448 0.3277 133.4044 211.5596)" style="clip-path:url(#SVGID_00000168099461497122858210000009376817462864088970_);fill:#F4F4F4;" cx="215.35" cy="12.05" rx="7.77" ry="32.68"/>
						
							<ellipse transform="matrix(0.3277 -0.9448 0.9448 0.3277 133.4044 211.5596)" style="clip-path:url(#SVGID_00000168099461497122858210000009376817462864088970_);fill:#F3F3F3;" cx="215.35" cy="12.05" rx="7.64" ry="32.14"/>
						
							<ellipse transform="matrix(0.3277 -0.9448 0.9448 0.3277 133.4044 211.5596)" style="clip-path:url(#SVGID_00000168099461497122858210000009376817462864088970_);fill:#F2F2F2;" cx="215.35" cy="12.05" rx="7.51" ry="31.61"/>
						
							<ellipse transform="matrix(0.3277 -0.9448 0.9448 0.3277 133.4044 211.5596)" style="clip-path:url(#SVGID_00000168099461497122858210000009376817462864088970_);fill:#F1F1F1;" cx="215.35" cy="12.05" rx="7.38" ry="31.07"/>
						
							<ellipse transform="matrix(0.3277 -0.9448 0.9448 0.3277 133.4044 211.5596)" style="clip-path:url(#SVGID_00000168099461497122858210000009376817462864088970_);fill:#F0F0F0;" cx="215.35" cy="12.05" rx="7.26" ry="30.54"/>
						
							<ellipse transform="matrix(0.3277 -0.9448 0.9448 0.3277 133.4044 211.5596)" style="clip-path:url(#SVGID_00000168099461497122858210000009376817462864088970_);fill:#EFEFEF;" cx="215.35" cy="12.05" rx="7.13" ry="30"/>
						
							<ellipse transform="matrix(0.3277 -0.9448 0.9448 0.3277 133.4044 211.5596)" style="clip-path:url(#SVGID_00000168099461497122858210000009376817462864088970_);fill:#EEEEEE;" cx="215.35" cy="12.05" rx="7" ry="29.47"/>
						
							<ellipse transform="matrix(0.3277 -0.9448 0.9448 0.3277 133.4044 211.5596)" style="clip-path:url(#SVGID_00000168099461497122858210000009376817462864088970_);fill:#EDEDED;" cx="215.35" cy="12.05" rx="6.88" ry="28.93"/>
						
							<ellipse transform="matrix(0.3277 -0.9448 0.9448 0.3277 133.4044 211.5596)" style="clip-path:url(#SVGID_00000168099461497122858210000009376817462864088970_);fill:#ECECEC;" cx="215.35" cy="12.05" rx="6.75" ry="28.39"/>
						
							<ellipse transform="matrix(0.3277 -0.9448 0.9448 0.3277 133.4044 211.5596)" style="clip-path:url(#SVGID_00000168099461497122858210000009376817462864088970_);fill:#EBEBEB;" cx="215.35" cy="12.05" rx="6.62" ry="27.86"/>
						
							<ellipse transform="matrix(0.3277 -0.9448 0.9448 0.3277 133.4044 211.5596)" style="clip-path:url(#SVGID_00000168099461497122858210000009376817462864088970_);fill:#EAEAEA;" cx="215.35" cy="12.05" rx="6.49" ry="27.32"/>
						
							<ellipse transform="matrix(0.3277 -0.9448 0.9448 0.3277 133.4044 211.5596)" style="clip-path:url(#SVGID_00000168099461497122858210000009376817462864088970_);fill:#E9E9E9;" cx="215.35" cy="12.05" rx="6.37" ry="26.79"/>
						
							<ellipse transform="matrix(0.3277 -0.9448 0.9448 0.3277 133.4044 211.5596)" style="clip-path:url(#SVGID_00000168099461497122858210000009376817462864088970_);fill:#E8E8E8;" cx="215.35" cy="12.05" rx="6.24" ry="26.25"/>
						
							<ellipse transform="matrix(0.3277 -0.9448 0.9448 0.3277 133.4044 211.5596)" style="clip-path:url(#SVGID_00000168099461497122858210000009376817462864088970_);fill:#E7E7E7;" cx="215.35" cy="12.05" rx="6.11" ry="25.72"/>
						
							<ellipse transform="matrix(0.3277 -0.9448 0.9448 0.3277 133.4044 211.5596)" style="clip-path:url(#SVGID_00000168099461497122858210000009376817462864088970_);fill:#E6E6E6;" cx="215.35" cy="12.05" rx="5.98" ry="25.18"/>
						
							<ellipse transform="matrix(0.3277 -0.9448 0.9448 0.3277 133.4044 211.5596)" style="clip-path:url(#SVGID_00000168099461497122858210000009376817462864088970_);fill:#E5E5E5;" cx="215.35" cy="12.05" rx="5.86" ry="24.64"/>
						
							<ellipse transform="matrix(0.3277 -0.9448 0.9448 0.3277 133.4045 211.5596)" style="clip-path:url(#SVGID_00000168099461497122858210000009376817462864088970_);fill:#E4E4E4;" cx="215.35" cy="12.05" rx="5.73" ry="24.11"/>
						
							<ellipse transform="matrix(0.3277 -0.9448 0.9448 0.3277 133.4045 211.5596)" style="clip-path:url(#SVGID_00000168099461497122858210000009376817462864088970_);fill:#E3E3E3;" cx="215.35" cy="12.05" rx="5.6" ry="23.57"/>
						
							<ellipse transform="matrix(0.3277 -0.9448 0.9448 0.3277 133.4044 211.5596)" style="clip-path:url(#SVGID_00000168099461497122858210000009376817462864088970_);fill:#E2E2E2;" cx="215.35" cy="12.05" rx="5.47" ry="23.04"/>
						
							<ellipse transform="matrix(0.3277 -0.9448 0.9448 0.3277 133.4044 211.5596)" style="clip-path:url(#SVGID_00000168099461497122858210000009376817462864088970_);fill:#E1E1E1;" cx="215.35" cy="12.05" rx="5.35" ry="22.5"/>
						
							<ellipse transform="matrix(0.3277 -0.9448 0.9448 0.3277 133.4044 211.5596)" style="clip-path:url(#SVGID_00000168099461497122858210000009376817462864088970_);fill:#E0E0E0;" cx="215.35" cy="12.05" rx="5.22" ry="21.97"/>
						
							<ellipse transform="matrix(0.3277 -0.9448 0.9448 0.3277 133.4044 211.5596)" style="clip-path:url(#SVGID_00000168099461497122858210000009376817462864088970_);fill:#DFDFDF;" cx="215.35" cy="12.05" rx="5.09" ry="21.43"/>
						
							<ellipse transform="matrix(0.3277 -0.9448 0.9448 0.3277 133.4045 211.5596)" style="clip-path:url(#SVGID_00000168099461497122858210000009376817462864088970_);fill:#DEDEDE;" cx="215.35" cy="12.05" rx="4.97" ry="20.89"/>
						
							<ellipse transform="matrix(0.3277 -0.9448 0.9448 0.3277 133.4045 211.5596)" style="clip-path:url(#SVGID_00000168099461497122858210000009376817462864088970_);fill:#DDDDDD;" cx="215.35" cy="12.05" rx="4.84" ry="20.36"/>
						
							<ellipse transform="matrix(0.3277 -0.9448 0.9448 0.3277 133.4045 211.5596)" style="clip-path:url(#SVGID_00000168099461497122858210000009376817462864088970_);fill:#DCDCDC;" cx="215.35" cy="12.05" rx="4.71" ry="19.82"/>
						
							<ellipse transform="matrix(0.3277 -0.9448 0.9448 0.3277 133.4045 211.5596)" style="clip-path:url(#SVGID_00000168099461497122858210000009376817462864088970_);fill:#DADBDB;" cx="215.35" cy="12.05" rx="4.58" ry="19.29"/>
						
							<ellipse transform="matrix(0.3277 -0.9448 0.9448 0.3277 133.4044 211.5596)" style="clip-path:url(#SVGID_00000168099461497122858210000009376817462864088970_);fill:#D9DADA;" cx="215.35" cy="12.05" rx="4.46" ry="18.75"/>
						
							<ellipse transform="matrix(0.3277 -0.9448 0.9448 0.3277 133.4044 211.5596)" style="clip-path:url(#SVGID_00000168099461497122858210000009376817462864088970_);fill:#D8D9D9;" cx="215.35" cy="12.05" rx="4.33" ry="18.22"/>
						
							<ellipse transform="matrix(0.3277 -0.9448 0.9448 0.3277 133.4044 211.5596)" style="clip-path:url(#SVGID_00000168099461497122858210000009376817462864088970_);fill:#D7D8D8;" cx="215.35" cy="12.05" rx="4.2" ry="17.68"/>
						
							<ellipse transform="matrix(0.3277 -0.9448 0.9448 0.3277 133.4045 211.5596)" style="clip-path:url(#SVGID_00000168099461497122858210000009376817462864088970_);fill:#D6D7D7;" cx="215.35" cy="12.05" rx="4.07" ry="17.14"/>
						
							<ellipse transform="matrix(0.3277 -0.9448 0.9448 0.3277 133.4045 211.5596)" style="clip-path:url(#SVGID_00000168099461497122858210000009376817462864088970_);fill:#D5D6D6;" cx="215.35" cy="12.05" rx="3.95" ry="16.61"/>
						
							<ellipse transform="matrix(0.3277 -0.9448 0.9448 0.3277 133.4044 211.5596)" style="clip-path:url(#SVGID_00000168099461497122858210000009376817462864088970_);fill:#D4D5D5;" cx="215.35" cy="12.05" rx="3.82" ry="16.07"/>
						
							<ellipse transform="matrix(0.3277 -0.9448 0.9448 0.3277 133.4044 211.5596)" style="clip-path:url(#SVGID_00000168099461497122858210000009376817462864088970_);fill:#D3D4D4;" cx="215.35" cy="12.05" rx="3.69" ry="15.54"/>
						
							<ellipse transform="matrix(0.3277 -0.9448 0.9448 0.3277 133.4044 211.5596)" style="clip-path:url(#SVGID_00000168099461497122858210000009376817462864088970_);fill:#D2D3D3;" cx="215.35" cy="12.05" rx="3.56" ry="15"/>
						
							<ellipse transform="matrix(0.3277 -0.9448 0.9448 0.3277 133.4043 211.5596)" style="clip-path:url(#SVGID_00000168099461497122858210000009376817462864088970_);fill:#D1D2D2;" cx="215.35" cy="12.05" rx="3.44" ry="14.47"/>
						
							<ellipse transform="matrix(0.3277 -0.9448 0.9448 0.3277 133.4043 211.5596)" style="clip-path:url(#SVGID_00000168099461497122858210000009376817462864088970_);fill:#D0D1D1;" cx="215.35" cy="12.05" rx="3.31" ry="13.93"/>
						
							<ellipse transform="matrix(0.3277 -0.9448 0.9448 0.3277 133.4044 211.5596)" style="clip-path:url(#SVGID_00000168099461497122858210000009376817462864088970_);fill:#CFD0D0;" cx="215.35" cy="12.05" rx="3.18" ry="13.39"/>
						
							<ellipse transform="matrix(0.3277 -0.9448 0.9448 0.3277 133.4044 211.5596)" style="clip-path:url(#SVGID_00000168099461497122858210000009376817462864088970_);fill:#CECFCF;" cx="215.35" cy="12.05" rx="3.06" ry="12.86"/>
						
							<ellipse transform="matrix(0.3277 -0.9448 0.9448 0.3277 133.4044 211.5596)" style="clip-path:url(#SVGID_00000168099461497122858210000009376817462864088970_);fill:#CDCECE;" cx="215.35" cy="12.05" rx="2.93" ry="12.32"/>
						
							<ellipse transform="matrix(0.3277 -0.9448 0.9448 0.3277 133.4045 211.5596)" style="clip-path:url(#SVGID_00000168099461497122858210000009376817462864088970_);fill:#CCCDCD;" cx="215.35" cy="12.05" rx="2.8" ry="11.79"/>
						
							<ellipse transform="matrix(0.3277 -0.9448 0.9448 0.3277 133.4045 211.5596)" style="clip-path:url(#SVGID_00000168099461497122858210000009376817462864088970_);fill:#CBCCCC;" cx="215.35" cy="12.05" rx="2.67" ry="11.25"/>
						
							<ellipse transform="matrix(0.3277 -0.9448 0.9448 0.3277 133.4046 211.5597)" style="clip-path:url(#SVGID_00000168099461497122858210000009376817462864088970_);fill:#CACBCB;" cx="215.35" cy="12.05" rx="2.55" ry="10.71"/>
						
							<ellipse transform="matrix(0.3277 -0.9448 0.9448 0.3277 133.4043 211.5596)" style="clip-path:url(#SVGID_00000168099461497122858210000009376817462864088970_);fill:#C9CACA;" cx="215.35" cy="12.05" rx="2.42" ry="10.18"/>
						
							<ellipse transform="matrix(0.3277 -0.9448 0.9448 0.3277 133.4042 211.5595)" style="clip-path:url(#SVGID_00000168099461497122858210000009376817462864088970_);fill:#C8C9C9;" cx="215.35" cy="12.05" rx="2.29" ry="9.64"/>
						
							<ellipse transform="matrix(0.3277 -0.9448 0.9448 0.3277 133.4044 211.5596)" style="clip-path:url(#SVGID_00000168099461497122858210000009376817462864088970_);fill:#C7C8C8;" cx="215.35" cy="12.05" rx="2.16" ry="9.11"/>
						
							<ellipse transform="matrix(0.3277 -0.9448 0.9448 0.3277 133.4045 211.5596)" style="clip-path:url(#SVGID_00000168099461497122858210000009376817462864088970_);fill:#C6C7C7;" cx="215.35" cy="12.05" rx="2.04" ry="8.57"/>
						
							<ellipse transform="matrix(0.3277 -0.9448 0.9448 0.3277 133.4045 211.5596)" style="clip-path:url(#SVGID_00000168099461497122858210000009376817462864088970_);fill:#C5C6C6;" cx="215.35" cy="12.05" rx="1.91" ry="8.04"/>
						
							<ellipse transform="matrix(0.3277 -0.9448 0.9448 0.3277 133.4045 211.5596)" style="clip-path:url(#SVGID_00000168099461497122858210000009376817462864088970_);fill:#C4C5C5;" cx="215.35" cy="12.05" rx="1.78" ry="7.5"/>
						
							<ellipse transform="matrix(0.3277 -0.9448 0.9448 0.3277 133.4045 211.5596)" style="clip-path:url(#SVGID_00000168099461497122858210000009376817462864088970_);fill:#C3C4C4;" cx="215.35" cy="12.05" rx="1.66" ry="6.96"/>
						
							<ellipse transform="matrix(0.3277 -0.9448 0.9448 0.3277 133.4045 211.5596)" style="clip-path:url(#SVGID_00000168099461497122858210000009376817462864088970_);fill:#C2C3C3;" cx="215.35" cy="12.05" rx="1.53" ry="6.43"/>
						<path style="clip-path:url(#SVGID_00000168099461497122858210000009376817462864088970_);fill:#C1C2C2;" d="M220.92,13.98
							c-0.25,0.73-2.95,0.46-6.03-0.61s-5.36-2.52-5.11-3.25c0.25-0.73,2.95-0.46,6.03,0.61C218.88,11.79,221.17,13.25,220.92,13.98
							z"/>
						<path style="clip-path:url(#SVGID_00000168099461497122858210000009376817462864088970_);fill:#C0C1C1;" d="M220.41,13.8
							c-0.23,0.66-2.68,0.42-5.48-0.55c-2.8-0.97-4.87-2.29-4.64-2.96c0.23-0.66,2.68-0.42,5.48,0.55S220.64,13.14,220.41,13.8z"/>
						
							<ellipse transform="matrix(0.3277 -0.9448 0.9448 0.3277 133.4044 211.5596)" style="clip-path:url(#SVGID_00000168099461497122858210000009376817462864088970_);fill:#BFC0C0;" cx="215.35" cy="12.05" rx="1.15" ry="4.82"/>
						
							<ellipse transform="matrix(0.3277 -0.9448 0.9448 0.3277 133.4046 211.5597)" style="clip-path:url(#SVGID_00000168099461497122858210000009376817462864088970_);fill:#BEBFBF;" cx="215.35" cy="12.05" rx="1.02" ry="4.29"/>
						<path style="clip-path:url(#SVGID_00000168099461497122858210000009376817462864088970_);fill:#BDBEBE;" d="M218.89,13.28
							c-0.16,0.47-1.88,0.29-3.84-0.39c-1.96-0.68-3.41-1.61-3.25-2.07c0.16-0.47,1.88-0.29,3.84,0.39
							C217.6,11.88,219.05,12.81,218.89,13.28z"/>
						<path style="clip-path:url(#SVGID_00000168099461497122858210000009376817462864088970_);fill:#BCBDBD;" d="M218.39,13.1
							c-0.14,0.4-1.61,0.25-3.29-0.33c-1.68-0.58-2.92-1.38-2.79-1.78c0.14-0.4,1.61-0.25,3.29,0.33
							C217.28,11.91,218.52,12.7,218.39,13.1z"/>
						<path style="clip-path:url(#SVGID_00000168099461497122858210000009376817462864088970_);fill:#BBBCBC;" d="M217.88,12.92
							c-0.12,0.33-1.34,0.21-2.74-0.28c-1.4-0.48-2.44-1.15-2.32-1.48c0.12-0.33,1.34-0.21,2.74,0.28S217.99,12.59,217.88,12.92z"/>
						<path style="clip-path:url(#SVGID_00000168099461497122858210000009376817462864088970_);fill:#BABBBB;" d="M217.37,12.75
							c-0.09,0.27-1.07,0.17-2.19-0.22c-1.12-0.39-1.95-0.92-1.86-1.18c0.09-0.27,1.07-0.17,2.19,0.22
							C216.63,11.95,217.47,12.48,217.37,12.75z"/>
						<path style="clip-path:url(#SVGID_00000168099461497122858210000009376817462864088970_);fill:#B9BABA;" d="M216.87,12.57
							c-0.07,0.2-0.81,0.13-1.64-0.17c-0.84-0.29-1.46-0.69-1.39-0.89c0.07-0.2,0.81-0.13,1.64,0.17
							C216.31,11.98,216.94,12.37,216.87,12.57z"/>
						<path style="clip-path:url(#SVGID_00000168099461497122858210000009376817462864088970_);fill:#B8B9B9;" d="M216.36,12.4
							c-0.05,0.13-0.54,0.08-1.1-0.11c-0.56-0.19-0.97-0.46-0.93-0.59c0.05-0.13,0.54-0.08,1.1,0.11
							C215.99,12,216.41,12.26,216.36,12.4z"/>
						<path style="clip-path:url(#SVGID_00000168099461497122858210000009376817462864088970_);fill:#B7B8B8;" d="M215.86,12.22
							c-0.02,0.07-0.27,0.04-0.55-0.06c-0.28-0.1-0.49-0.23-0.46-0.3c0.02-0.07,0.27-0.04,0.55,0.06
							C215.67,12.02,215.88,12.16,215.86,12.22z"/>
					</g>
				</g>
			</g>
			<g>
				<path class="st179" d="M187.07,203.42c2.92-6.21,5.37-12.63,7.06-19.25c0.84-3.31,1.52-6.66,1.97-10.04
					c0.11-0.84,0.21-1.69,0.31-2.54c0.09-0.85,0.16-1.7,0.24-2.55l0.16-2.55c0.03-0.85,0.07-1.7,0.08-2.56
					c0.08-3.41-0.04-6.82-0.32-10.22c-0.27-3.4-0.73-6.79-1.28-10.17c-1.14-6.75-2.79-13.41-4.66-20.01
					c2.3,6.47,4.2,13.1,5.51,19.86c0.66,3.38,1.15,6.8,1.48,10.23c0.32,3.43,0.45,6.89,0.38,10.34c-0.08,3.45-0.36,6.9-0.87,10.32
					c-0.52,3.41-1.23,6.8-2.17,10.11C193.1,191.03,190.4,197.41,187.07,203.42z"/>
			</g>
			<g>
				<path class="st179" d="M195.95,106.31l0.42,1.34l0.41,1.35l0.9,2.66l0.97,2.64l1.04,2.61l1.11,2.58l1.19,2.54l1.25,2.51
					l1.33,2.47l1.39,2.43l1.47,2.39l1.53,2.35c0.54,0.77,1.07,1.53,1.6,2.31l1.67,2.26l1.73,2.21l1.78,2.17l0.93,1.06l0.92,1.07
					l-0.99-1l-0.98-1.01l-1.9-2.08l-1.82-2.15l-1.74-2.22c-0.56-0.76-1.11-1.52-1.66-2.28l-1.58-2.34l-1.5-2.4l-1.42-2.44
					l-1.33-2.49l-1.24-2.54l-1.15-2.58l-1.06-2.62l-0.97-2.65l-0.87-2.68l-0.76-2.71l-0.34-1.37L195.95,106.31z"/>
			</g>
			<g>
				<path class="st179" d="M116.7,175.18c-1.26,2.43-2.42,4.9-3.46,7.42c-0.25,0.63-0.5,1.27-0.75,1.9l-0.7,1.92l-0.66,1.93
					l-0.6,1.95l-0.56,1.96l-0.5,1.98l-0.46,1.99c-0.13,0.67-0.27,1.33-0.4,2c-0.51,2.68-0.87,5.38-1.14,8.11
					c-0.01-2.74,0.22-5.48,0.63-8.19c0.11-0.68,0.22-1.35,0.34-2.03l0.41-2.02l0.49-2l0.55-1.99l0.62-1.96l0.68-1.94l0.75-1.92
					c0.27-0.63,0.54-1.26,0.82-1.89C113.9,179.89,115.2,177.47,116.7,175.18z"/>
			</g>
			<g class="st1">
				<path class="st2" d="M141.94,192.09c-0.32-0.01-0.6,0.03-0.86,0.1c0.01-0.25,0.02-0.5,0.04-0.74
					c-2.81,2.72-4.12,6.61-5.23,10.36c-6.09,20.45-9.43,41.72-9.9,63.05c2.67,0.4,5.24,0.67,7.91,1.07c-0.25-9.16,0.11-18.4,1-27.58
					c-0.01,11.77,1,23.54,3.08,35.09c2.67,0.38,3.71,0.25,6.39,0.63c-1.32-24.86-1.99-50.58-1.95-75.48
					c7.15,1.89,15.09,1.77,22.31,0.15c0.82-3.11,0.99-6.45,1.02-9.67C157.73,188.03,149.45,189.08,141.94,192.09z"/>
			</g>
			<g>
				<path class="st179" d="M118.49,214.53c-0.08,4.07,0.05,8.12,0.45,12.14c0.12,1,0.24,2.01,0.35,3.01l0.45,2.99
					c0.19,0.99,0.36,1.98,0.54,2.98l0.65,2.95l0.74,2.93l0.84,2.91l0.93,2.88c0.35,0.95,0.69,1.9,1.03,2.85
					c1.44,3.78,3.13,7.46,5.01,11.06c-2.29-3.37-4.21-6.98-5.82-10.74c-0.39-0.94-0.77-1.89-1.14-2.84l-1.02-2.89l-0.89-2.93
					l-0.77-2.97l-0.63-3c-0.17-1.01-0.35-2.01-0.51-3.02l-0.38-3.04c-0.09-1.02-0.17-2.04-0.25-3.05
					C117.84,222.66,117.95,218.56,118.49,214.53z"/>
			</g>
			<g>
				<path class="st334" d="M142.37,270.76c-1.32-24.86-1.99-50.58-1.95-75.48c7.15,1.89,15.09,1.77,22.31,0.15
					c0.82-3.11,0.99-6.45,1.02-9.67c-8.02-1.04-16.3,0.01-23.8,3.02c-0.79-0.02-1.31,0.22-1.95,0.67
					c-5.91,26.38-6.8,54.07-2.01,80.67C138.65,270.51,139.7,270.38,142.37,270.76z"/>
			</g>
			<g>
				<path class="st16" d="M139.12,188.15c-2.81,2.72-4.12,6.61-5.23,10.36c-6.09,20.45-9.43,41.72-9.9,63.05
					c2.67,0.4,5.24,0.67,7.91,1.07c-0.47-17.32,1.2-34.9,4.64-51.88C138.09,203.1,138.76,195.93,139.12,188.15z"/>
			</g>
			<g>
				<path class="st335" d="M140.6,189.74c1.97,0.13,3.93,0.27,5.89,0.32c1.96,0.06,3.92,0.05,5.87-0.03
					c1.95-0.07,3.91-0.22,5.85-0.43c0.49-0.05,0.97-0.1,1.44-0.19c0.47-0.09,0.92-0.22,1.34-0.42c0.42-0.2,0.79-0.5,1.07-0.88
					c0.28-0.37,0.47-0.84,0.46-1.34c0.05,0.24,0.05,0.5,0.01,0.75c-0.05,0.25-0.14,0.49-0.26,0.72c-0.25,0.45-0.62,0.84-1.06,1.12
					c-0.44,0.28-0.93,0.47-1.42,0.61c-0.49,0.14-0.99,0.23-1.47,0.31c-1.95,0.34-3.93,0.55-5.92,0.62
					c-1.98,0.08-3.97,0.02-5.95-0.17C144.48,190.57,142.52,190.24,140.6,189.74z"/>
			</g>
			<g>
				<path class="st180" d="M166.21,200.84c-2.15,3.09-3.17,6.95-2.81,10.69c0.36,3.74,2.08,7.34,4.78,9.97
					c2.64,2.57,6.28,4.37,7.72,7.76c0.24-1.66-0.3-3.6-0.99-5.13c1.06,1.9,2.77,3.43,4.77,4.26c-1.89-2.99-2.67-6.76-3.27-10.24
					s-1.07-7.04-2.41-10.31C172.66,204.57,169.52,202.07,166.21,200.84z"/>
			</g>
			<g>
				<path class="st7" d="M199.01,69.77c0.76-0.83,1.57-1.63,2.41-2.39c0.46-0.42,1.08-0.62,1.7-0.57c1.82,0.15,3.67,0.51,5.31,1.28
					c0.85,0.4,1.14,1.48,0.6,2.24c-0.37,0.53-0.97,0.85-1.58,1.08c-1.18,0.46-2.45,0.66-3.72,0.59c1.7,3.22,2.91,7.03,3.22,10.67
					c-3.88-1.2-7.39-5-8.75-9.03C197.74,72.3,198.06,70.81,199.01,69.77z"/>
			</g>
			<g>
				<path class="st8" d="M213.24,63.44c-0.19,0.52-0.46,1.01-0.75,1.47c-0.3,0.46-0.63,0.9-0.98,1.31c-0.36,0.41-0.75,0.8-1.16,1.16
					c-0.42,0.36-0.86,0.69-1.35,0.95c0.3-0.47,0.64-0.89,0.97-1.32c0.34-0.42,0.68-0.83,1.03-1.23c0.35-0.4,0.71-0.8,1.08-1.2
					C212.45,64.19,212.82,63.8,213.24,63.44z"/>
			</g>
			<g>
				<path class="st8" d="M208.86,74.77c0.63-0.47,1.27-0.91,1.9-1.36c0.63-0.45,1.24-0.9,1.85-1.37c0.61-0.47,1.21-0.94,1.81-1.43
					c0.6-0.49,1.19-0.99,1.81-1.48c-0.41,0.67-0.91,1.29-1.45,1.86c-0.54,0.57-1.13,1.1-1.76,1.58c-0.63,0.48-1.29,0.91-1.98,1.29
					C210.33,74.22,209.61,74.55,208.86,74.77z"/>
			</g>
			<g>
				<path class="st8" d="M209.96,78.82c0.64-0.3,1.27-0.59,1.88-0.9c0.61-0.31,1.21-0.64,1.79-0.98c0.58-0.35,1.15-0.72,1.71-1.12
					c0.56-0.39,1.11-0.81,1.68-1.23c-0.36,0.61-0.83,1.15-1.34,1.64c-0.52,0.49-1.09,0.92-1.7,1.28c-0.61,0.37-1.26,0.67-1.93,0.9
					C211.37,78.63,210.67,78.79,209.96,78.82z"/>
			</g>
			<g>
				<path class="st8" d="M210.37,81.18c0.56,0.29,1.13,0.45,1.71,0.52c0.58,0.07,1.16,0.06,1.73-0.01c0.58-0.08,1.16-0.21,1.74-0.36
					c0.58-0.15,1.18-0.32,1.79-0.44c-0.51,0.37-1.05,0.68-1.62,0.93c-0.57,0.25-1.19,0.45-1.83,0.53c-0.64,0.08-1.3,0.05-1.93-0.14
					C211.35,82.03,210.76,81.69,210.37,81.18z"/>
			</g>
			<g>
				<path class="st8" d="M207,71.69c0.37-0.21,0.74-0.4,1.09-0.61c0.35-0.21,0.69-0.44,0.98-0.7c0.58-0.51,1.02-1.2,1.08-1.91
					l0.21,0.34c-0.78-0.32-1.58-0.6-2.4-0.84c-0.41-0.12-0.82-0.23-1.23-0.33c-0.42-0.1-0.84-0.18-1.27-0.27
					c0.43-0.07,0.87-0.07,1.31-0.06c0.44,0.02,0.88,0.06,1.31,0.14c0.87,0.15,1.71,0.4,2.53,0.73l0.23,0.09l-0.02,0.24
					c-0.04,0.48-0.22,0.93-0.48,1.31c-0.25,0.38-0.58,0.7-0.95,0.96c-0.36,0.25-0.76,0.44-1.16,0.58
					C207.82,71.51,207.42,71.62,207,71.69z"/>
			</g>
			<g>
				<path class="st180" d="M161.8,109.35l1.24,0.62l1.2,0.7l1.16,0.76l1.12,0.82c1.46,1.14,2.8,2.44,3.98,3.88
					c1.19,1.43,2.22,2.99,3.09,4.64c0.86,1.65,1.54,3.4,2.03,5.2c0.48,1.8,0.76,3.66,0.84,5.52c0.07,1.86-0.04,3.73-0.36,5.56
					c-0.31,1.83-0.82,3.63-1.51,5.35l-0.56,1.27l-0.62,1.24l-0.69,1.2l-0.76,1.15l0.68-1.2l0.62-1.23l0.55-1.26l0.48-1.29
					c0.61-1.73,1.04-3.51,1.31-5.31c0.25-1.81,0.35-3.63,0.24-5.45c-0.1-1.82-0.38-3.62-0.85-5.38c-0.46-1.76-1.13-3.46-1.95-5.08
					c-0.82-1.63-1.81-3.16-2.93-4.6c-1.13-1.43-2.39-2.76-3.79-3.95l-1.06-0.87l-1.11-0.82l-1.15-0.76L161.8,109.35z"/>
			</g>
			<g>
				<path class="st180" d="M172.68,141.09c2.64,3.2,4.08,7.28,4.07,11.34c-0.01,4.06-1.48,8.06-4.03,11.12
					c2.37-3.2,3.57-7.2,3.36-11.1c-0.21-3.9-1.82-7.67-4.41-10.48L172.68,141.09z"/>
			</g>
			<g>
				<path class="st336" d="M168.62,147.74c-0.59,1.35-1,2.77-1.23,4.21c-0.23,1.45-0.26,2.91-0.13,4.36
					c0.13,1.45,0.44,2.88,0.92,4.25c0.48,1.37,1.13,2.67,1.95,3.86l-0.29-0.12c0.39-0.08,0.81,0.03,1.11,0.23
					c0.31,0.19,0.56,0.44,0.77,0.7c0.21,0.26,0.39,0.54,0.56,0.82c0.16,0.29,0.31,0.56,0.45,0.85c0.58,1.14,1.06,2.34,1.36,3.59
					c0.3,1.25,0.44,2.56,0.29,3.86c-0.15,1.3-0.57,2.57-1.27,3.68c-0.35,0.56-0.78,1.07-1.27,1.51c-0.06,0.05-0.12,0.11-0.19,0.16
					l-0.2,0.15c-0.07,0.05-0.13,0.1-0.2,0.15l-0.21,0.14c-0.07,0.04-0.14,0.09-0.2,0.13l-0.17,0.12c-0.06,0.04-0.11,0.09-0.15,0.13
					c-0.05,0.05-0.1,0.09-0.15,0.14c-0.36,0.42-0.6,0.97-0.74,1.55c-0.14,0.58-0.2,1.2-0.23,1.81c-0.02,0.61-0.01,1.24,0.04,1.86
					c0.04,0.61,0.15,1.21,0.32,1.8c0.34,1.18,0.92,2.28,1.71,3.23l-0.35,0.31l-0.25-0.27l0.4-0.13c-0.12,1.01-0.29,2.01-0.52,2.99
					c-0.23,0.99-0.52,1.96-0.89,2.9c-0.36,0.94-0.8,1.86-1.31,2.73c-0.51,0.87-1.11,1.69-1.8,2.42c0.65-0.77,1.2-1.61,1.67-2.49
					c0.47-0.88,0.87-1.8,1.19-2.75c0.32-0.95,0.57-1.91,0.77-2.89c0.2-0.98,0.34-1.97,0.42-2.96l0.05-0.51l0.35,0.38l0.25,0.27
					l-0.35,0.31c-0.85-0.98-1.49-2.13-1.87-3.37c-0.1-0.31-0.17-0.63-0.24-0.94c-0.06-0.32-0.11-0.64-0.13-0.97
					c-0.05-0.64-0.08-1.28-0.06-1.92c0.02-0.64,0.07-1.29,0.22-1.94c0.15-0.64,0.4-1.29,0.86-1.83c0.06-0.07,0.13-0.13,0.19-0.19
					c0.06-0.06,0.13-0.13,0.2-0.17l0.22-0.16l0.19-0.13l0.19-0.12c0.06-0.04,0.12-0.09,0.18-0.14l0.18-0.14
					c0.06-0.05,0.11-0.1,0.17-0.15c0.44-0.4,0.83-0.87,1.15-1.38c0.64-1.02,1.03-2.2,1.17-3.41c0.14-1.2,0.02-2.44-0.26-3.64
					c-0.29-1.2-0.74-2.36-1.28-3.47c-0.14-0.28-0.28-0.56-0.42-0.83c-0.15-0.26-0.31-0.52-0.49-0.75c-0.35-0.46-0.84-0.83-1.3-0.74
					l-0.19,0.04l-0.1-0.16c-0.83-1.25-1.47-2.61-1.94-4.03c-0.47-1.42-0.74-2.89-0.83-4.38c-0.09-1.48,0.02-2.98,0.3-4.43l0.25-1.08
					l0.32-1.06l0.39-1.03L168.62,147.74z"/>
			</g>
			<g>
				<path class="st336" d="M163.18,149.95c-0.44,1.45-0.63,2.94-0.55,4.41c0.04,0.73,0.14,1.47,0.31,2.18
					c0.17,0.71,0.4,1.41,0.71,2.07c0.3,0.67,0.67,1.3,1.09,1.9c0.42,0.6,0.91,1.15,1.43,1.67c1.06,1.03,2.3,1.87,3.68,2.49
					c-1.47-0.36-2.86-1.11-4.03-2.11c-0.59-0.5-1.12-1.07-1.59-1.68c-0.47-0.62-0.86-1.29-1.19-1.99c-0.31-0.71-0.56-1.45-0.71-2.21
					c-0.15-0.76-0.23-1.53-0.22-2.3C162.13,152.83,162.48,151.29,163.18,149.95z"/>
			</g>
			<g>
				<path class="st336" d="M169.42,169.7c0.52,0.79,0.9,1.67,1.16,2.58c0.27,0.91,0.42,1.86,0.47,2.82
					c0.04,0.95-0.03,1.91-0.22,2.85c-0.19,0.93-0.49,1.84-0.94,2.67c0.19-0.93,0.34-1.84,0.43-2.75c0.08-0.91,0.11-1.83,0.07-2.74
					c-0.04-0.91-0.14-1.82-0.3-2.73C169.92,171.5,169.69,170.61,169.42,169.7z"/>
			</g>
			<g>
				<path class="st336" d="M152.65,111.29c0.23,2.25,0.71,4.45,1.44,6.56c0.2,0.52,0.4,1.04,0.59,1.57l0.68,1.53l0.76,1.49
					l0.85,1.44l0.93,1.39l1.01,1.33l1.08,1.27c0.39,0.4,0.77,0.8,1.16,1.21c1.59,1.57,3.37,2.95,5.3,4.13
					c-2.06-0.93-3.97-2.22-5.65-3.75c-0.41-0.39-0.82-0.79-1.23-1.19l-1.14-1.27l-1.05-1.35l-0.96-1.42l-0.86-1.48l-0.76-1.53
					l-0.65-1.58c-0.19-0.54-0.37-1.08-0.54-1.62C152.94,115.82,152.6,113.55,152.65,111.29z"/>
			</g>
			<g>
				<path class="st336" d="M145.87,107.14c-1.99,0.67-3.86,1.59-5.58,2.75c-0.85,0.58-1.68,1.21-2.44,1.9
					c-0.77,0.69-1.49,1.43-2.14,2.22c-0.66,0.79-1.26,1.63-1.8,2.51c-0.55,0.88-1.01,1.8-1.43,2.74c-0.83,1.9-1.39,3.91-1.7,5.98
					c0.03-2.1,0.46-4.2,1.21-6.18c0.37-0.99,0.84-1.95,1.37-2.87c0.54-0.92,1.15-1.79,1.83-2.61c0.69-0.81,1.43-1.58,2.24-2.27
					c0.81-0.69,1.67-1.32,2.58-1.87C141.82,108.35,143.81,107.55,145.87,107.14z"/>
			</g>
		</g>
	</g>
</g>
</svg>
