<svg width="14" height="18" viewBox="0 0 14 18" fill="none" xmlns="http://www.w3.org/2000/svg">
<path d="M9.5725 15.0014L7 13.5184L4.4275 15.0014L5.11 12.1383L2.84376 10.2181L5.8275 9.96951L7 7.2864L8.1725 9.96951L11.1562 10.2181L8.89 12.1383M14 0H1.03549e-05V1.71445L4.2525 4.83474C2.76886 5.45502 1.54942 6.55825 0.800403 7.95788C0.0513857 9.3575 -0.181235 10.9676 0.141882 12.5159C0.464999 14.0642 1.32402 15.4556 2.57368 16.4549C3.82333 17.4542 5.38691 18 7 18C8.61309 18 10.1767 17.4542 11.4263 16.4549C12.676 15.4556 13.535 14.0642 13.8581 12.5159C14.1812 10.9676 13.9486 9.3575 13.1996 7.95788C12.4506 6.55825 11.2311 5.45502 9.7475 4.83474L14 1.71445M12.25 11.1439C12.2505 12.118 11.9686 13.0721 11.4372 13.8953C10.9058 14.7186 10.1467 15.3771 9.24824 15.7942C8.34978 16.2113 7.34889 16.3699 6.36202 16.2516C5.37515 16.1332 4.44287 15.7427 3.67366 15.1256C2.90445 14.5084 2.32992 13.69 2.01693 12.7655C1.70394 11.8409 1.66536 10.8484 1.90566 9.9032C2.14596 8.95804 2.65528 8.09915 3.37435 7.42648C4.09342 6.7538 4.99268 6.295 5.9675 6.10343C6.64871 5.96624 7.35129 5.96624 8.0325 6.10343C9.22155 6.33709 10.2914 6.96684 11.0602 7.88569C11.829 8.80453 12.2494 9.9558 12.25 11.1439ZM7.55125 4.28612H6.44875L2.94876 1.71445H11.1212L7.55125 4.28612Z" fill="#FFA931"/>
</svg>
