<svg width="18" height="20" viewBox="0 0 18 20" fill="none" xmlns="http://www.w3.org/2000/svg">
<path d="M12.7885 15.2821L13.1042 15.4659L13.3753 15.2209C13.8129 14.8254 14.3762 14.58 15 14.58C16.3339 14.58 17.42 15.6661 17.42 17C17.42 18.3316 16.3361 19.41 15 19.41C13.6639 19.41 12.58 18.3316 12.58 17C12.58 16.8139 12.6042 16.6329 12.6464 16.4558L12.7323 16.0949L12.4118 15.908L5.29178 11.758L4.97194 11.5716L4.7003 11.8231C4.24562 12.2441 3.65469 12.5 3 12.5C1.61614 12.5 0.5 11.3839 0.5 10C0.5 8.61614 1.61614 7.5 3 7.5C3.65469 7.5 4.24562 7.75589 4.7003 8.17688L4.97196 8.42843L5.29182 8.24196L12.3418 4.13196L12.6558 3.94892L12.5786 3.59379C12.531 3.37472 12.5 3.1861 12.5 3C12.5 1.61614 13.6161 0.5 15 0.5C16.3839 0.5 17.5 1.61614 17.5 3C17.5 4.38386 16.3839 5.5 15 5.5C14.3453 5.5 13.7544 5.24411 13.2997 4.82312L13.028 4.57157L12.7082 4.75804L5.65818 8.86804L5.34421 9.05108L5.42141 9.40621C5.46903 9.62528 5.5 9.8139 5.5 10C5.5 10.1861 5.46903 10.3747 5.42141 10.5938L5.34415 10.9492L5.65848 11.1321L12.7885 15.2821ZM16.5 3C16.5 2.17386 15.8261 1.5 15 1.5C14.1739 1.5 13.5 2.17386 13.5 3C13.5 3.82614 14.1739 4.5 15 4.5C15.8261 4.5 16.5 3.82614 16.5 3ZM1.5 10C1.5 10.8261 2.17386 11.5 3 11.5C3.82614 11.5 4.5 10.8261 4.5 10C4.5 9.17386 3.82614 8.5 3 8.5C2.17386 8.5 1.5 9.17386 1.5 10ZM13.5 17C13.5 17.8261 14.1739 18.5 15 18.5C15.8261 18.5 16.5 17.8261 16.5 17C16.5 16.1739 15.8261 15.5 15 15.5C14.1739 15.5 13.5 16.1739 13.5 17Z" fill="black" stroke="white"/>
</svg>
